<svg xmlns="http://www.w3.org/2000/svg" viewBox="0 0 500 500"><g id="freepik--Floor--inject-28"><ellipse id="freepik--floor--inject-28" cx="250" cy="345.35" rx="235.59" ry="136.02" style="fill:#f0f0f0"></ellipse></g><g id="freepik--Shadows--inject-28"><path id="freepik--Shadow--inject-28" d="M183.77,459.05,28.61,369.47a.71.71,0,0,1,0-1.35L266.88,230.56a2.58,2.58,0,0,1,2.33,0l155.16,89.58a.71.71,0,0,1,0,1.34L186.1,459.05A2.58,2.58,0,0,1,183.77,459.05Z" style="fill:#e0e0e0"></path><path id="freepik--shadow--inject-28" d="M419.82,389.56c5.4,11.63-6.56,23.59-26.71,26.71s-40.86-3.79-46.26-15.42,6.56-23.6,26.71-26.72S414.42,377.92,419.82,389.56Z" style="fill:#e0e0e0"></path></g><g id="freepik--Plant--inject-28"><g id="freepik--Plants--inject-28"><path d="M405,310.28l-11.25-5.95s-.86-17.2.48-30.83c1.88-19.15,16.12-41.39,30.88-36s-6.76,24.92-11.56,41.16S405,310.28,405,310.28Z" style="fill:#7E57C2"></path><path d="M405,310.28l-11.25-5.95s-.86-17.2.48-30.83c1.88-19.15,16.12-41.39,30.88-36s-6.76,24.92-11.56,41.16S405,310.28,405,310.28Z" style="opacity:0.1"></path><path d="M399.54,308.29h0a.5.5,0,0,0,.48-.52c-1.44-42.56,19.75-64,20-64.18a.49.49,0,0,0-.7-.7c-.22.21-21.71,21.93-20.25,64.92A.5.5,0,0,0,399.54,308.29Z" style="fill:#e0e0e0"></path><path d="M410.81,313.68,405,310.3a65.41,65.41,0,0,1,3.63-28.39C414,267.2,428,259.18,434.46,261.38c7.87,2.67,7.92,10.2,5.05,15.16C436.14,282.37,415.06,297.14,410.81,313.68Z" style="fill:#7E57C2"></path><path d="M407.72,312.4h0a.51.51,0,0,0,.49-.5c-.11-26.91,25.15-45.1,25.41-45.28a.5.5,0,1,0-.58-.81c-.26.18-25.94,18.67-25.82,46.09A.5.5,0,0,0,407.72,312.4Z" style="fill:#e0e0e0"></path></g></g><g id="freepik--Gears--inject-28"><g id="freepik--gears--inject-28"><path d="M150,55.17h0a.83.83,0,0,0-.9.07l-1.87,1.23-.41,1.12a2.16,2.16,0,0,0,.5,2.08,8.8,8.8,0,0,1,.86,1,1.26,1.26,0,0,0,1.75.39l4.35-2.87a.86.86,0,0,1,.89-.09Zm-6.71,16c-.61-3.53-2.86-5.29-5.78-5a8.37,8.37,0,0,1,.6,2.06c1,5.6-2.58,13.55-7.91,17.74a10.85,10.85,0,0,1-5.59,2.5c1.74,3.76,6.17,4.11,10.77.49C140.69,84.72,144.23,76.77,143.26,71.17Zm.1-23.93h0a1.35,1.35,0,0,0-.35-.14l-3.28-.74a1.78,1.78,0,0,0-1.86.86l-3.09,5.89a2.67,2.67,0,0,1-.69.79h0a2.56,2.56,0,0,1-.53.35l1,3.22a1.11,1.11,0,0,0,1.55.7,16.34,16.34,0,0,1,2-.66,3.55,3.55,0,0,0,1.17-.61,2.48,2.48,0,0,0,.7-.8l3.09-5.89a1.78,1.78,0,0,1,1.86-.86l3.29.74a1.61,1.61,0,0,1,.33.12Zm-9.26,57a1,1,0,0,1-.31-.5l-1.11-3.69a1.12,1.12,0,0,0-1.55-.71,15.4,15.4,0,0,1-2,.67,2.46,2.46,0,0,0-.64.26l.15.48a.94.94,0,0,0,.42.57h0Zm-6.29-54a.81.81,0,0,0-.37-.09,1,1,0,0,0-.6.23l-4.93,3.87a1.07,1.07,0,0,0-.19.18,1.79,1.79,0,0,0-.13.14,3.9,3.9,0,0,0-.43.78,1.39,1.39,0,0,1-.06.19h0a2.6,2.6,0,0,0-.13.79l.3,4.69a3.7,3.7,0,0,1-.77,2.26c-.81,1-1.57,2-2.28,3a2.54,2.54,0,0,1-1.09.83,1.76,1.76,0,0,1-.43.13.78.78,0,0,1-.21,0,1.32,1.32,0,0,1-.28,0l-3.16-.16H113a1.15,1.15,0,0,0-.26,0,.64.64,0,0,0-.23,0h0a1.72,1.72,0,0,0-.26.1,2.6,2.6,0,0,0-.45.28,1.86,1.86,0,0,0-.51.65l-3,6.67a1.25,1.25,0,0,0,.5,1.6l3.51,2a1.58,1.58,0,0,1,.08.91,30.25,30.25,0,0,0-.55,3.18,4,4,0,0,1-1.06,2.16l0,0-4.32,4a.93.93,0,0,0-.21.23l0,0a1.05,1.05,0,0,0-.17.29,2.48,2.48,0,0,0-.33,1.59l.83,4.75a.92.92,0,0,0,.37.65l5.16,3a.9.9,0,0,1-.36-.63L110.83,94a2.19,2.19,0,0,1,.06-.91,2.5,2.5,0,0,1,.68-1.24l4.3-4,.06,0A4,4,0,0,0,117,85.65a27.92,27.92,0,0,1,.56-3.18,1.62,1.62,0,0,0-.88-1.77l-2.56-1.08a1.28,1.28,0,0,1-.67-1.69l3-6.67a1.75,1.75,0,0,1,.51-.65,2,2,0,0,1,1.3-.47l3.17.15a2,2,0,0,0,.92-.18,2.46,2.46,0,0,0,1.08-.83c.72-1,1.49-2.06,2.29-3a3.63,3.63,0,0,0,.76-2.26l-.29-4.68a2.16,2.16,0,0,1,.12-.81,2.68,2.68,0,0,1,.82-1.28L132,53.35a.84.84,0,0,1,1-.14Zm-7.39,49.71a2.19,2.19,0,0,0-.51-2.08,7.26,7.26,0,0,1-.85-1,1.27,1.27,0,0,0-1.75-.39l-2.49,1.63L113,103a1.09,1.09,0,0,0,.44,1.33h0l5.2,3a1.09,1.09,0,0,1-.44-1.35Z" style="fill:#7E57C2"></path><path d="M150,55.17h0a.83.83,0,0,0-.9.07l-1.87,1.23-.41,1.12a2.16,2.16,0,0,0,.5,2.08,8.8,8.8,0,0,1,.86,1,1.26,1.26,0,0,0,1.75.39l4.35-2.87a.86.86,0,0,1,.89-.09Zm-6.71,16c-.61-3.53-2.86-5.29-5.78-5a8.37,8.37,0,0,1,.6,2.06c1,5.6-2.58,13.55-7.91,17.74a10.85,10.85,0,0,1-5.59,2.5c1.74,3.76,6.17,4.11,10.77.49C140.69,84.72,144.23,76.77,143.26,71.17Zm.1-23.93h0a1.35,1.35,0,0,0-.35-.14l-3.28-.74a1.78,1.78,0,0,0-1.86.86l-3.09,5.89a2.67,2.67,0,0,1-.69.79h0a2.56,2.56,0,0,1-.53.35l1,3.22a1.11,1.11,0,0,0,1.55.7,16.34,16.34,0,0,1,2-.66,3.55,3.55,0,0,0,1.17-.61,2.48,2.48,0,0,0,.7-.8l3.09-5.89a1.78,1.78,0,0,1,1.86-.86l3.29.74a1.61,1.61,0,0,1,.33.12Zm-9.26,57a1,1,0,0,1-.31-.5l-1.11-3.69a1.12,1.12,0,0,0-1.55-.71,15.4,15.4,0,0,1-2,.67,2.46,2.46,0,0,0-.64.26l.15.48a.94.94,0,0,0,.42.57h0Zm-6.29-54a.81.81,0,0,0-.37-.09,1,1,0,0,0-.6.23l-4.93,3.87a1.07,1.07,0,0,0-.19.18,1.79,1.79,0,0,0-.13.14,3.9,3.9,0,0,0-.43.78,1.39,1.39,0,0,1-.06.19h0a2.6,2.6,0,0,0-.13.79l.3,4.69a3.7,3.7,0,0,1-.77,2.26c-.81,1-1.57,2-2.28,3a2.54,2.54,0,0,1-1.09.83,1.76,1.76,0,0,1-.43.13.78.78,0,0,1-.21,0,1.32,1.32,0,0,1-.28,0l-3.16-.16H113a1.15,1.15,0,0,0-.26,0,.64.64,0,0,0-.23,0h0a1.72,1.72,0,0,0-.26.1,2.6,2.6,0,0,0-.45.28,1.86,1.86,0,0,0-.51.65l-3,6.67a1.25,1.25,0,0,0,.5,1.6l3.51,2a1.58,1.58,0,0,1,.08.91,30.25,30.25,0,0,0-.55,3.18,4,4,0,0,1-1.06,2.16l0,0-4.32,4a.93.93,0,0,0-.21.23l0,0a1.05,1.05,0,0,0-.17.29,2.48,2.48,0,0,0-.33,1.59l.83,4.75a.92.92,0,0,0,.37.65l5.16,3a.9.9,0,0,1-.36-.63L110.83,94a2.19,2.19,0,0,1,.06-.91,2.5,2.5,0,0,1,.68-1.24l4.3-4,.06,0A4,4,0,0,0,117,85.65a27.92,27.92,0,0,1,.56-3.18,1.62,1.62,0,0,0-.88-1.77l-2.56-1.08a1.28,1.28,0,0,1-.67-1.69l3-6.67a1.75,1.75,0,0,1,.51-.65,2,2,0,0,1,1.3-.47l3.17.15a2,2,0,0,0,.92-.18,2.46,2.46,0,0,0,1.08-.83c.72-1,1.49-2.06,2.29-3a3.63,3.63,0,0,0,.76-2.26l-.29-4.68a2.16,2.16,0,0,1,.12-.81,2.68,2.68,0,0,1,.82-1.28L132,53.35a.84.84,0,0,1,1-.14Zm-7.39,49.71a2.19,2.19,0,0,0-.51-2.08,7.26,7.26,0,0,1-.85-1,1.27,1.27,0,0,0-1.75-.39l-2.49,1.63L113,103a1.09,1.09,0,0,0,.44,1.33h0l5.2,3a1.09,1.09,0,0,1-.44-1.35Z" style="fill:#fff;opacity:0.7000000000000001"></path><path d="M150,55.17h0a.83.83,0,0,0-.9.07l-1.87,1.23-.41,1.12a2.16,2.16,0,0,0,.5,2.08,8.8,8.8,0,0,1,.86,1,1.26,1.26,0,0,0,1.75.39l4.35-2.87a.86.86,0,0,1,.89-.09Zm-6.71,16c-.61-3.53-2.86-5.29-5.78-5a8.37,8.37,0,0,1,.6,2.06c1,5.6-2.58,13.55-7.91,17.74a10.85,10.85,0,0,1-5.59,2.5c1.74,3.76,6.17,4.11,10.77.49C140.69,84.72,144.23,76.77,143.26,71.17Zm.1-23.93h0a1.35,1.35,0,0,0-.35-.14l-3.28-.74a1.78,1.78,0,0,0-1.86.86l-3.09,5.89a2.67,2.67,0,0,1-.69.79h0a2.56,2.56,0,0,1-.53.35l1,3.22a1.11,1.11,0,0,0,1.55.7,16.34,16.34,0,0,1,2-.66,3.55,3.55,0,0,0,1.17-.61,2.48,2.48,0,0,0,.7-.8l3.09-5.89a1.78,1.78,0,0,1,1.86-.86l3.29.74a1.61,1.61,0,0,1,.33.12Zm-9.26,57a1,1,0,0,1-.31-.5l-1.11-3.69a1.12,1.12,0,0,0-1.55-.71,15.4,15.4,0,0,1-2,.67,2.46,2.46,0,0,0-.64.26l.15.48a.94.94,0,0,0,.42.57h0Zm-6.29-54a.81.81,0,0,0-.37-.09,1,1,0,0,0-.6.23l-4.93,3.87a1.07,1.07,0,0,0-.19.18,1.79,1.79,0,0,0-.13.14,3.9,3.9,0,0,0-.43.78,1.39,1.39,0,0,1-.06.19h0a2.6,2.6,0,0,0-.13.79l.3,4.69a3.7,3.7,0,0,1-.77,2.26c-.81,1-1.57,2-2.28,3a2.54,2.54,0,0,1-1.09.83,1.76,1.76,0,0,1-.43.13.78.78,0,0,1-.21,0,1.32,1.32,0,0,1-.28,0l-3.16-.16H113a1.15,1.15,0,0,0-.26,0,.64.64,0,0,0-.23,0h0a1.72,1.72,0,0,0-.26.1,2.6,2.6,0,0,0-.45.28,1.86,1.86,0,0,0-.51.65l-3,6.67a1.25,1.25,0,0,0,.5,1.6l3.51,2a1.58,1.58,0,0,1,.08.91,30.25,30.25,0,0,0-.55,3.18,4,4,0,0,1-1.06,2.16l0,0-4.32,4a.93.93,0,0,0-.21.23l0,0a1.05,1.05,0,0,0-.17.29,2.48,2.48,0,0,0-.33,1.59l.83,4.75a.92.92,0,0,0,.37.65l5.16,3a.9.9,0,0,1-.36-.63L110.83,94a2.19,2.19,0,0,1,.06-.91,2.5,2.5,0,0,1,.68-1.24l4.3-4,.06,0A4,4,0,0,0,117,85.65a27.92,27.92,0,0,1,.56-3.18,1.62,1.62,0,0,0-.88-1.77l-2.56-1.08a1.28,1.28,0,0,1-.67-1.69l3-6.67a1.75,1.75,0,0,1,.51-.65,2,2,0,0,1,1.3-.47l3.17.15a2,2,0,0,0,.92-.18,2.46,2.46,0,0,0,1.08-.83c.72-1,1.49-2.06,2.29-3a3.63,3.63,0,0,0,.76-2.26l-.29-4.68a2.16,2.16,0,0,1,.12-.81,2.68,2.68,0,0,1,.82-1.28L132,53.35a.84.84,0,0,1,1-.14Zm-7.39,49.71a2.19,2.19,0,0,0-.51-2.08,7.26,7.26,0,0,1-.85-1,1.27,1.27,0,0,0-1.75-.39l-2.49,1.63L113,103a1.09,1.09,0,0,0,.44,1.33h0l5.2,3a1.09,1.09,0,0,1-.44-1.35Z" style="opacity:0.05"></path><path d="M115.87,87.85l-4.3,4a2.5,2.5,0,0,0-.68,1.24l-5.17-3a2.66,2.66,0,0,1,.26-.68,1.05,1.05,0,0,1,.17-.29l0,0a.93.93,0,0,1,.21-.23l4.32-4Z" style="fill:#7E57C2"></path><path d="M122.32,70.11a2,2,0,0,1-.92.18l-3.17-.15a2,2,0,0,0-1.3.47l-5.18-3a2.6,2.6,0,0,1,.45-.28,1.72,1.72,0,0,1,.26-.1h0a.64.64,0,0,1,.23,0,1.15,1.15,0,0,1,.26,0h.08l3.16.16a1.32,1.32,0,0,0,.28,0l.21,0a2.8,2.8,0,0,0,.41-.13h0Z" style="fill:#7E57C2"></path><path d="M155.14,58.14a.83.83,0,0,0-.89.11l-4.36,2.86a1.26,1.26,0,0,1-1.74-.39,8.06,8.06,0,0,0-.86-1,2.17,2.17,0,0,1-.51-2.08l.42-1.11,1.87-1.23a.82.82,0,0,1,.9-.09h0Z" style="fill:#7E57C2"></path><path d="M148.53,50.22a1.61,1.61,0,0,0-.33-.12l-3.29-.74a1.78,1.78,0,0,0-1.86.86L140,56.11a2.48,2.48,0,0,1-.7.8l-5.17-3a2.67,2.67,0,0,0,.69-.79l3.09-5.89a1.78,1.78,0,0,1,1.86-.86l3.28.74a1.35,1.35,0,0,1,.35.14h0Z" style="fill:#7E57C2"></path><path d="M133,53.21a.84.84,0,0,0-1,.14l-4.92,3.87a2.68,2.68,0,0,0-.82,1.28l-5.18-3a1.39,1.39,0,0,0,.06-.19,3.9,3.9,0,0,1,.43-.78,1.79,1.79,0,0,1,.13-.14,1.07,1.07,0,0,1,.19-.18l4.93-3.87a1,1,0,0,1,.6-.23.81.81,0,0,1,.37.09Z" style="fill:#7E57C2"></path><path d="M115.87,87.85l-4.3,4a2.5,2.5,0,0,0-.68,1.24l-5.17-3a2.66,2.66,0,0,1,.26-.68,1.05,1.05,0,0,1,.17-.29l0,0a.93.93,0,0,1,.21-.23l4.32-4Z" style="fill:#fff;opacity:0.9"></path><path d="M122.32,70.11a2,2,0,0,1-.92.18l-3.17-.15a2,2,0,0,0-1.3.47l-5.18-3a2.6,2.6,0,0,1,.45-.28,1.72,1.72,0,0,1,.26-.1h0a.64.64,0,0,1,.23,0,1.15,1.15,0,0,1,.26,0h.08l3.16.16a1.32,1.32,0,0,0,.28,0l.21,0a2.8,2.8,0,0,0,.41-.13h0Z" style="fill:#fff;opacity:0.9"></path><path d="M155.14,58.14a.83.83,0,0,0-.89.11l-4.36,2.86a1.26,1.26,0,0,1-1.74-.39,8.06,8.06,0,0,0-.86-1,2.17,2.17,0,0,1-.51-2.08l.42-1.11,1.87-1.23a.82.82,0,0,1,.9-.09h0Z" style="fill:#fff;opacity:0.9"></path><path d="M148.53,50.22a1.61,1.61,0,0,0-.33-.12l-3.29-.74a1.78,1.78,0,0,0-1.86.86L140,56.11a2.48,2.48,0,0,1-.7.8l-5.17-3a2.67,2.67,0,0,0,.69-.79l3.09-5.89a1.78,1.78,0,0,1,1.86-.86l3.28.74a1.35,1.35,0,0,1,.35.14h0Z" style="fill:#fff;opacity:0.9"></path><path d="M133,53.21a.84.84,0,0,0-1,.14l-4.92,3.87a2.68,2.68,0,0,0-.82,1.28l-5.18-3a1.39,1.39,0,0,0,.06-.19,3.9,3.9,0,0,1,.43-.78,1.79,1.79,0,0,1,.13-.14,1.07,1.07,0,0,1,.19-.18l4.93-3.87a1,1,0,0,1,.6-.23.81.81,0,0,1,.37.09Z" style="fill:#fff;opacity:0.9"></path><path d="M156.37,63.57l-.82-4.76a.78.78,0,0,0-1.3-.56l-4.35,2.86a1.26,1.26,0,0,1-1.75-.39,9.84,9.84,0,0,0-.85-1,2.14,2.14,0,0,1-.51-2.08l2.22-6a1.09,1.09,0,0,0-.81-1.49l-3.29-.74a1.77,1.77,0,0,0-1.86.87L140,56.11a3.19,3.19,0,0,1-1.87,1.4,15.91,15.91,0,0,0-2,.67,1.11,1.11,0,0,1-1.55-.71l-1.11-3.68a.82.82,0,0,0-1.39-.44l-4.92,3.87a2.77,2.77,0,0,0-.94,2.09l.3,4.68a3.75,3.75,0,0,1-.77,2.27c-.81,1-1.57,2-2.29,3a2.55,2.55,0,0,1-2,1l-3.16-.16a2,2,0,0,0-1.82,1.12l-3,6.67a1.25,1.25,0,0,0,.66,1.68l2.55,1.09a1.59,1.59,0,0,1,.88,1.77,30.25,30.25,0,0,0-.55,3.18,4,4,0,0,1-1.06,2.16l-4.36,4a2.63,2.63,0,0,0-.74,2.15l.82,4.75a.79.79,0,0,0,1.3.57l4.36-2.87a1.27,1.27,0,0,1,1.75.39,8,8,0,0,0,.85,1,2.17,2.17,0,0,1,.51,2.08l-2.22,6a1.09,1.09,0,0,0,.81,1.49l3.28.74a1.8,1.8,0,0,0,1.87-.86l3.08-5.89a3.26,3.26,0,0,1,1.87-1.4,15.4,15.4,0,0,0,2-.67,1.13,1.13,0,0,1,1.56.71l1.11,3.68a.82.82,0,0,0,1.39.44l4.92-3.87a2.72,2.72,0,0,0,.93-2.08l-.29-4.69a3.69,3.69,0,0,1,.76-2.26,37.59,37.59,0,0,0,2.29-3,2.51,2.51,0,0,1,2-1l3.17.15a2,2,0,0,0,1.81-1.11l3-6.67a1.27,1.27,0,0,0-.66-1.69l-2.56-1.09a1.59,1.59,0,0,1-.88-1.76,28.64,28.64,0,0,0,.55-3.18,4,4,0,0,1,1.07-2.17l4.36-4A2.65,2.65,0,0,0,156.37,63.57Zm-21,25.34c-5.33,4.2-10.44,3-11.41-2.55s2.58-13.55,7.92-17.74,10.44-3.05,11.4,2.55S140.68,84.72,135.35,88.91Z" style="fill:#7E57C2"></path><path d="M156.37,63.57l-.82-4.76a.78.78,0,0,0-1.3-.56l-4.35,2.86a1.26,1.26,0,0,1-1.75-.39,9.84,9.84,0,0,0-.85-1,2.14,2.14,0,0,1-.51-2.08l2.22-6a1.09,1.09,0,0,0-.81-1.49l-3.29-.74a1.77,1.77,0,0,0-1.86.87L140,56.11a3.19,3.19,0,0,1-1.87,1.4,15.91,15.91,0,0,0-2,.67,1.11,1.11,0,0,1-1.55-.71l-1.11-3.68a.82.82,0,0,0-1.39-.44l-4.92,3.87a2.77,2.77,0,0,0-.94,2.09l.3,4.68a3.75,3.75,0,0,1-.77,2.27c-.81,1-1.57,2-2.29,3a2.55,2.55,0,0,1-2,1l-3.16-.16a2,2,0,0,0-1.82,1.12l-3,6.67a1.25,1.25,0,0,0,.66,1.68l2.55,1.09a1.59,1.59,0,0,1,.88,1.77,30.25,30.25,0,0,0-.55,3.18,4,4,0,0,1-1.06,2.16l-4.36,4a2.63,2.63,0,0,0-.74,2.15l.82,4.75a.79.79,0,0,0,1.3.57l4.36-2.87a1.27,1.27,0,0,1,1.75.39,8,8,0,0,0,.85,1,2.17,2.17,0,0,1,.51,2.08l-2.22,6a1.09,1.09,0,0,0,.81,1.49l3.28.74a1.8,1.8,0,0,0,1.87-.86l3.08-5.89a3.26,3.26,0,0,1,1.87-1.4,15.4,15.4,0,0,0,2-.67,1.13,1.13,0,0,1,1.56.71l1.11,3.68a.82.82,0,0,0,1.39.44l4.92-3.87a2.72,2.72,0,0,0,.93-2.08l-.29-4.69a3.69,3.69,0,0,1,.76-2.26,37.59,37.59,0,0,0,2.29-3,2.51,2.51,0,0,1,2-1l3.17.15a2,2,0,0,0,1.81-1.11l3-6.67a1.27,1.27,0,0,0-.66-1.69l-2.56-1.09a1.59,1.59,0,0,1-.88-1.76,28.64,28.64,0,0,0,.55-3.18,4,4,0,0,1,1.07-2.17l4.36-4A2.65,2.65,0,0,0,156.37,63.57Zm-21,25.34c-5.33,4.2-10.44,3-11.41-2.55s2.58-13.55,7.92-17.74,10.44-3.05,11.4,2.55S140.68,84.72,135.35,88.91Z" style="fill:#fff;opacity:0.75"></path><path d="M96.27,72.08h0a1,1,0,0,0-1.1.09l-2.26,1.49L92.41,75A2.62,2.62,0,0,0,93,77.53a11.74,11.74,0,0,1,1,1.26,1.52,1.52,0,0,0,2.11.47l5.27-3.47a1,1,0,0,1,1.07-.11ZM88.16,91.41c-.74-4.26-3.46-6.4-7-6.1a10,10,0,0,1,.73,2.49c1.17,6.77-3.12,16.36-9.56,21.43a13,13,0,0,1-6.76,3c2.12,4.54,7.47,5,13,.59C85.05,107.78,89.32,98.18,88.16,91.41Zm.11-28.91h0a1.35,1.35,0,0,0-.41-.16l-4-.9a2.15,2.15,0,0,0-2.25,1l-3.73,7.12a3.22,3.22,0,0,1-.84,1h0a3,3,0,0,1-.63.42l1.16,3.89a1.36,1.36,0,0,0,1.88.85,19.8,19.8,0,0,1,2.44-.8,4.3,4.3,0,0,0,1.42-.74,3.15,3.15,0,0,0,.84-1L87.9,66.1a2.17,2.17,0,0,1,2.25-1l4,.9a1.57,1.57,0,0,1,.4.14ZM77.09,131.37a1.17,1.17,0,0,1-.37-.6l-1.34-4.46a1.34,1.34,0,0,0-1.88-.85,18.75,18.75,0,0,1-2.44.8,3.32,3.32,0,0,0-.77.32l.18.57a1.08,1.08,0,0,0,.51.69h0ZM69.49,66.1a1,1,0,0,0-.44-.11,1.12,1.12,0,0,0-.73.28l-5.95,4.67a1.61,1.61,0,0,0-.23.22,1.37,1.37,0,0,0-.16.18,4,4,0,0,0-.52.93c0,.08-.05.16-.07.23h0a2.88,2.88,0,0,0-.16,1l.36,5.66a4.51,4.51,0,0,1-.93,2.74c-1,1.17-1.89,2.39-2.76,3.65a3,3,0,0,1-1.31,1,2,2,0,0,1-.52.16,1,1,0,0,1-.25,0,1.3,1.3,0,0,1-.34,0l-3.82-.19h-.09a1.17,1.17,0,0,0-.32,0l-.28.06h0a2,2,0,0,0-.31.12,2.58,2.58,0,0,0-.55.35,2.43,2.43,0,0,0-.62.78l-3.59,8a1.53,1.53,0,0,0,.61,1.94l4.24,2.44a1.92,1.92,0,0,1,.1,1.11,35.54,35.54,0,0,0-.67,3.84,4.78,4.78,0,0,1-1.28,2.61l-.06,0-5.22,4.79a2.26,2.26,0,0,0-.25.28l0,0a2,2,0,0,0-.21.35,3,3,0,0,0-.39,1.92l1,5.75a1.14,1.14,0,0,0,.46.78l6.23,3.59a1.15,1.15,0,0,1-.44-.76L49,119a2.6,2.6,0,0,1,.07-1.1,3,3,0,0,1,.82-1.5l5.2-4.79.06,0a4.88,4.88,0,0,0,1.3-2.61,33.18,33.18,0,0,1,.66-3.84A1.92,1.92,0,0,0,56,102.93l-3.09-1.32a1.53,1.53,0,0,1-.8-2l3.59-8a2.16,2.16,0,0,1,.61-.78,2.34,2.34,0,0,1,1.58-.57l3.83.18a2.47,2.47,0,0,0,1.11-.22,2.9,2.9,0,0,0,1.31-1c.86-1.25,1.79-2.48,2.76-3.65a4.42,4.42,0,0,0,.92-2.74l-.35-5.65a2.67,2.67,0,0,1,.14-1,3.35,3.35,0,0,1,1-1.55l6-4.67a1,1,0,0,1,1.17-.17Zm-8.92,60.05a2.61,2.61,0,0,0-.63-2.5,11.67,11.67,0,0,1-1-1.26,1.53,1.53,0,0,0-2.11-.48l-3,2-2.18,5.91a1.31,1.31,0,0,0,.53,1.61h0L58.41,135a1.31,1.31,0,0,1-.53-1.62Z" style="fill:#7E57C2"></path><path d="M96.27,72.08h0a1,1,0,0,0-1.1.09l-2.26,1.49L92.41,75A2.62,2.62,0,0,0,93,77.53a11.74,11.74,0,0,1,1,1.26,1.52,1.52,0,0,0,2.11.47l5.27-3.47a1,1,0,0,1,1.07-.11ZM88.16,91.41c-.74-4.26-3.46-6.4-7-6.1a10,10,0,0,1,.73,2.49c1.17,6.77-3.12,16.36-9.56,21.43a13,13,0,0,1-6.76,3c2.12,4.54,7.47,5,13,.59C85.05,107.78,89.32,98.18,88.16,91.41Zm.11-28.91h0a1.35,1.35,0,0,0-.41-.16l-4-.9a2.15,2.15,0,0,0-2.25,1l-3.73,7.12a3.22,3.22,0,0,1-.84,1h0a3,3,0,0,1-.63.42l1.16,3.89a1.36,1.36,0,0,0,1.88.85,19.8,19.8,0,0,1,2.44-.8,4.3,4.3,0,0,0,1.42-.74,3.15,3.15,0,0,0,.84-1L87.9,66.1a2.17,2.17,0,0,1,2.25-1l4,.9a1.57,1.57,0,0,1,.4.14ZM77.09,131.37a1.17,1.17,0,0,1-.37-.6l-1.34-4.46a1.34,1.34,0,0,0-1.88-.85,18.75,18.75,0,0,1-2.44.8,3.32,3.32,0,0,0-.77.32l.18.57a1.08,1.08,0,0,0,.51.69h0ZM69.49,66.1a1,1,0,0,0-.44-.11,1.12,1.12,0,0,0-.73.28l-5.95,4.67a1.61,1.61,0,0,0-.23.22,1.37,1.37,0,0,0-.16.18,4,4,0,0,0-.52.93c0,.08-.05.16-.07.23h0a2.88,2.88,0,0,0-.16,1l.36,5.66a4.51,4.51,0,0,1-.93,2.74c-1,1.17-1.89,2.39-2.76,3.65a3,3,0,0,1-1.31,1,2,2,0,0,1-.52.16,1,1,0,0,1-.25,0,1.3,1.3,0,0,1-.34,0l-3.82-.19h-.09a1.17,1.17,0,0,0-.32,0l-.28.06h0a2,2,0,0,0-.31.12,2.58,2.58,0,0,0-.55.35,2.43,2.43,0,0,0-.62.78l-3.59,8a1.53,1.53,0,0,0,.61,1.94l4.24,2.44a1.92,1.92,0,0,1,.1,1.11,35.54,35.54,0,0,0-.67,3.84,4.78,4.78,0,0,1-1.28,2.61l-.06,0-5.22,4.79a2.26,2.26,0,0,0-.25.28l0,0a2,2,0,0,0-.21.35,3,3,0,0,0-.39,1.92l1,5.75a1.14,1.14,0,0,0,.46.78l6.23,3.59a1.15,1.15,0,0,1-.44-.76L49,119a2.6,2.6,0,0,1,.07-1.1,3,3,0,0,1,.82-1.5l5.2-4.79.06,0a4.88,4.88,0,0,0,1.3-2.61,33.18,33.18,0,0,1,.66-3.84A1.92,1.92,0,0,0,56,102.93l-3.09-1.32a1.53,1.53,0,0,1-.8-2l3.59-8a2.16,2.16,0,0,1,.61-.78,2.34,2.34,0,0,1,1.58-.57l3.83.18a2.47,2.47,0,0,0,1.11-.22,2.9,2.9,0,0,0,1.31-1c.86-1.25,1.79-2.48,2.76-3.65a4.42,4.42,0,0,0,.92-2.74l-.35-5.65a2.67,2.67,0,0,1,.14-1,3.35,3.35,0,0,1,1-1.55l6-4.67a1,1,0,0,1,1.17-.17Zm-8.92,60.05a2.61,2.61,0,0,0-.63-2.5,11.67,11.67,0,0,1-1-1.26,1.53,1.53,0,0,0-2.11-.48l-3,2-2.18,5.91a1.31,1.31,0,0,0,.53,1.61h0L58.41,135a1.31,1.31,0,0,1-.53-1.62Z" style="fill:#fff;opacity:0.7000000000000001"></path><path d="M96.27,72.08h0a1,1,0,0,0-1.1.09l-2.26,1.49L92.41,75A2.62,2.62,0,0,0,93,77.53a11.74,11.74,0,0,1,1,1.26,1.52,1.52,0,0,0,2.11.47l5.27-3.47a1,1,0,0,1,1.07-.11ZM88.16,91.41c-.74-4.26-3.46-6.4-7-6.1a10,10,0,0,1,.73,2.49c1.17,6.77-3.12,16.36-9.56,21.43a13,13,0,0,1-6.76,3c2.12,4.54,7.47,5,13,.59C85.05,107.78,89.32,98.18,88.16,91.41Zm.11-28.91h0a1.35,1.35,0,0,0-.41-.16l-4-.9a2.15,2.15,0,0,0-2.25,1l-3.73,7.12a3.22,3.22,0,0,1-.84,1h0a3,3,0,0,1-.63.42l1.16,3.89a1.36,1.36,0,0,0,1.88.85,19.8,19.8,0,0,1,2.44-.8,4.3,4.3,0,0,0,1.42-.74,3.15,3.15,0,0,0,.84-1L87.9,66.1a2.17,2.17,0,0,1,2.25-1l4,.9a1.57,1.57,0,0,1,.4.14ZM77.09,131.37a1.17,1.17,0,0,1-.37-.6l-1.34-4.46a1.34,1.34,0,0,0-1.88-.85,18.75,18.75,0,0,1-2.44.8,3.32,3.32,0,0,0-.77.32l.18.57a1.08,1.08,0,0,0,.51.69h0ZM69.49,66.1a1,1,0,0,0-.44-.11,1.12,1.12,0,0,0-.73.28l-5.95,4.67a1.61,1.61,0,0,0-.23.22,1.37,1.37,0,0,0-.16.18,4,4,0,0,0-.52.93c0,.08-.05.16-.07.23h0a2.88,2.88,0,0,0-.16,1l.36,5.66a4.51,4.51,0,0,1-.93,2.74c-1,1.17-1.89,2.39-2.76,3.65a3,3,0,0,1-1.31,1,2,2,0,0,1-.52.16,1,1,0,0,1-.25,0,1.3,1.3,0,0,1-.34,0l-3.82-.19h-.09a1.17,1.17,0,0,0-.32,0l-.28.06h0a2,2,0,0,0-.31.12,2.58,2.58,0,0,0-.55.35,2.43,2.43,0,0,0-.62.78l-3.59,8a1.53,1.53,0,0,0,.61,1.94l4.24,2.44a1.92,1.92,0,0,1,.1,1.11,35.54,35.54,0,0,0-.67,3.84,4.78,4.78,0,0,1-1.28,2.61l-.06,0-5.22,4.79a2.26,2.26,0,0,0-.25.28l0,0a2,2,0,0,0-.21.35,3,3,0,0,0-.39,1.92l1,5.75a1.14,1.14,0,0,0,.46.78l6.23,3.59a1.15,1.15,0,0,1-.44-.76L49,119a2.6,2.6,0,0,1,.07-1.1,3,3,0,0,1,.82-1.5l5.2-4.79.06,0a4.88,4.88,0,0,0,1.3-2.61,33.18,33.18,0,0,1,.66-3.84A1.92,1.92,0,0,0,56,102.93l-3.09-1.32a1.53,1.53,0,0,1-.8-2l3.59-8a2.16,2.16,0,0,1,.61-.78,2.34,2.34,0,0,1,1.58-.57l3.83.18a2.47,2.47,0,0,0,1.11-.22,2.9,2.9,0,0,0,1.31-1c.86-1.25,1.79-2.48,2.76-3.65a4.42,4.42,0,0,0,.92-2.74l-.35-5.65a2.67,2.67,0,0,1,.14-1,3.35,3.35,0,0,1,1-1.55l6-4.67a1,1,0,0,1,1.17-.17Zm-8.92,60.05a2.61,2.61,0,0,0-.63-2.5,11.67,11.67,0,0,1-1-1.26,1.53,1.53,0,0,0-2.11-.48l-3,2-2.18,5.91a1.31,1.31,0,0,0,.53,1.61h0L58.41,135a1.31,1.31,0,0,1-.53-1.62Z" style="opacity:0.05"></path><path d="M55.07,111.56l-5.2,4.79a3,3,0,0,0-.82,1.5l-6.25-3.6a3.94,3.94,0,0,1,.31-.83,2,2,0,0,1,.21-.35l0,0a2.26,2.26,0,0,1,.25-.28L48.82,108Z" style="fill:#7E57C2"></path><path d="M62.86,90.13a2.47,2.47,0,0,1-1.11.22l-3.83-.18a2.34,2.34,0,0,0-1.58.57l-6.25-3.61a2.58,2.58,0,0,1,.55-.35,2,2,0,0,1,.31-.12h0l.28-.06a1.17,1.17,0,0,1,.32,0h.09l3.82.19a1.3,1.3,0,0,0,.34,0l.25,0a4.91,4.91,0,0,0,.5-.17h0Z" style="fill:#7E57C2"></path><path d="M102.51,75.67a1,1,0,0,0-1.07.13l-5.27,3.46a1.53,1.53,0,0,1-2.11-.48,11.53,11.53,0,0,0-1-1.26,2.6,2.6,0,0,1-.62-2.5l.5-1.35,2.26-1.48a1,1,0,0,1,1.1-.11h0Z" style="fill:#7E57C2"></path><path d="M94.52,66.1a1.57,1.57,0,0,0-.4-.14l-4-.9a2.17,2.17,0,0,0-2.25,1l-3.73,7.12a3.15,3.15,0,0,1-.84,1l-6.26-3.62a3.22,3.22,0,0,0,.84-1l3.73-7.12a2.15,2.15,0,0,1,2.25-1l4,.9a1.35,1.35,0,0,1,.41.16h0Z" style="fill:#7E57C2"></path><path d="M75.75,69.71a1,1,0,0,0-1.17.17l-6,4.67a3.35,3.35,0,0,0-1,1.55l-6.25-3.6c0-.07,0-.15.07-.23a4,4,0,0,1,.52-.93,1.37,1.37,0,0,1,.16-.18,1.61,1.61,0,0,1,.23-.22l5.95-4.67a1.12,1.12,0,0,1,.73-.28,1,1,0,0,1,.44.11Z" style="fill:#7E57C2"></path><path d="M55.07,111.56l-5.2,4.79a3,3,0,0,0-.82,1.5l-6.25-3.6a3.94,3.94,0,0,1,.31-.83,2,2,0,0,1,.21-.35l0,0a2.26,2.26,0,0,1,.25-.28L48.82,108Z" style="fill:#fff;opacity:0.9"></path><path d="M62.86,90.13a2.47,2.47,0,0,1-1.11.22l-3.83-.18a2.34,2.34,0,0,0-1.58.57l-6.25-3.61a2.58,2.58,0,0,1,.55-.35,2,2,0,0,1,.31-.12h0l.28-.06a1.17,1.17,0,0,1,.32,0h.09l3.82.19a1.3,1.3,0,0,0,.34,0l.25,0a4.91,4.91,0,0,0,.5-.17h0Z" style="fill:#fff;opacity:0.9"></path><path d="M102.51,75.67a1,1,0,0,0-1.07.13l-5.27,3.46a1.53,1.53,0,0,1-2.11-.48,11.53,11.53,0,0,0-1-1.26,2.6,2.6,0,0,1-.62-2.5l.5-1.35,2.26-1.48a1,1,0,0,1,1.1-.11h0Z" style="fill:#fff;opacity:0.9"></path><path d="M94.52,66.1a1.57,1.57,0,0,0-.4-.14l-4-.9a2.17,2.17,0,0,0-2.25,1l-3.73,7.12a3.15,3.15,0,0,1-.84,1l-6.26-3.62a3.22,3.22,0,0,0,.84-1l3.73-7.12a2.15,2.15,0,0,1,2.25-1l4,.9a1.35,1.35,0,0,1,.41.16h0Z" style="fill:#fff;opacity:0.9"></path><path d="M75.75,69.71a1,1,0,0,0-1.17.17l-6,4.67a3.35,3.35,0,0,0-1,1.55l-6.25-3.6c0-.07,0-.15.07-.23a4,4,0,0,1,.52-.93,1.37,1.37,0,0,1,.16-.18,1.61,1.61,0,0,1,.23-.22l5.95-4.67a1.12,1.12,0,0,1,.73-.28,1,1,0,0,1,.44.11Z" style="fill:#fff;opacity:0.9"></path><path d="M104,82.22l-1-5.74a1,1,0,0,0-1.57-.68l-5.27,3.46a1.52,1.52,0,0,1-2.11-.48,10.54,10.54,0,0,0-1-1.25A2.62,2.62,0,0,1,92.42,75l2.68-7.26a1.33,1.33,0,0,0-1-1.81l-4-.88a2.14,2.14,0,0,0-2.25,1l-3.73,7.11a3.91,3.91,0,0,1-2.25,1.69,21.25,21.25,0,0,0-2.45.81,1.35,1.35,0,0,1-1.87-.86l-1.35-4.45a1,1,0,0,0-1.67-.53l-6,4.68a3.32,3.32,0,0,0-1.13,2.52l.36,5.66a4.5,4.5,0,0,1-.93,2.73c-1,1.17-1.9,2.39-2.76,3.66a3.06,3.06,0,0,1-2.42,1.22l-3.82-.18a2.45,2.45,0,0,0-2.2,1.34l-3.59,8.06a1.54,1.54,0,0,0,.8,2L56,102.93a1.92,1.92,0,0,1,1.06,2.13,35.54,35.54,0,0,0-.67,3.84,4.75,4.75,0,0,1-1.28,2.61l-5.27,4.84A3.22,3.22,0,0,0,49,119l1,5.75a1,1,0,0,0,1.57.68l5.27-3.47a1.52,1.52,0,0,1,2.11.48,11.53,11.53,0,0,0,1,1.26,2.6,2.6,0,0,1,.61,2.5l-2.68,7.26a1.33,1.33,0,0,0,1,1.81l4,.89a2.16,2.16,0,0,0,2.25-1.05l3.73-7.1a3.89,3.89,0,0,1,2.25-1.7,18,18,0,0,0,2.45-.81,1.35,1.35,0,0,1,1.87.86l1.34,4.45a1,1,0,0,0,1.68.53l5.95-4.67a3.32,3.32,0,0,0,1.13-2.52l-.36-5.66a4.47,4.47,0,0,1,.93-2.74q1.45-1.76,2.76-3.65a3.06,3.06,0,0,1,2.42-1.23l3.82.19a2.46,2.46,0,0,0,2.2-1.35l3.59-8.06a1.54,1.54,0,0,0-.8-2L97,98.25a1.92,1.92,0,0,1-1.06-2.13,33.35,33.35,0,0,0,.66-3.85,4.9,4.9,0,0,1,1.29-2.61l5.27-4.84A3.2,3.2,0,0,0,104,82.22ZM78.6,112.84c-6.44,5.07-12.61,3.69-13.78-3.08s3.11-16.36,9.56-21.43S87,84.64,88.16,91.41,85.05,107.78,78.6,112.84Z" style="fill:#7E57C2"></path><path d="M104,82.22l-1-5.74a1,1,0,0,0-1.57-.68l-5.27,3.46a1.52,1.52,0,0,1-2.11-.48,10.54,10.54,0,0,0-1-1.25A2.62,2.62,0,0,1,92.42,75l2.68-7.26a1.33,1.33,0,0,0-1-1.81l-4-.88a2.14,2.14,0,0,0-2.25,1l-3.73,7.11a3.91,3.91,0,0,1-2.25,1.69,21.25,21.25,0,0,0-2.45.81,1.35,1.35,0,0,1-1.87-.86l-1.35-4.45a1,1,0,0,0-1.67-.53l-6,4.68a3.32,3.32,0,0,0-1.13,2.52l.36,5.66a4.5,4.5,0,0,1-.93,2.73c-1,1.17-1.9,2.39-2.76,3.66a3.06,3.06,0,0,1-2.42,1.22l-3.82-.18a2.45,2.45,0,0,0-2.2,1.34l-3.59,8.06a1.54,1.54,0,0,0,.8,2L56,102.93a1.92,1.92,0,0,1,1.06,2.13,35.54,35.54,0,0,0-.67,3.84,4.75,4.75,0,0,1-1.28,2.61l-5.27,4.84A3.22,3.22,0,0,0,49,119l1,5.75a1,1,0,0,0,1.57.68l5.27-3.47a1.52,1.52,0,0,1,2.11.48,11.53,11.53,0,0,0,1,1.26,2.6,2.6,0,0,1,.61,2.5l-2.68,7.26a1.33,1.33,0,0,0,1,1.81l4,.89a2.16,2.16,0,0,0,2.25-1.05l3.73-7.1a3.89,3.89,0,0,1,2.25-1.7,18,18,0,0,0,2.45-.81,1.35,1.35,0,0,1,1.87.86l1.34,4.45a1,1,0,0,0,1.68.53l5.95-4.67a3.32,3.32,0,0,0,1.13-2.52l-.36-5.66a4.47,4.47,0,0,1,.93-2.74q1.45-1.76,2.76-3.65a3.06,3.06,0,0,1,2.42-1.23l3.82.19a2.46,2.46,0,0,0,2.2-1.35l3.59-8.06a1.54,1.54,0,0,0-.8-2L97,98.25a1.92,1.92,0,0,1-1.06-2.13,33.35,33.35,0,0,0,.66-3.85,4.9,4.9,0,0,1,1.29-2.61l5.27-4.84A3.2,3.2,0,0,0,104,82.22ZM78.6,112.84c-6.44,5.07-12.61,3.69-13.78-3.08s3.11-16.36,9.56-21.43S87,84.64,88.16,91.41,85.05,107.78,78.6,112.84Z" style="fill:#fff;opacity:0.75"></path></g></g><g id="freepik--Device--inject-28"><g id="freepik--Laptop--inject-28"><path d="M51.44,364.16c0,3.37,2.52,7.56,5.64,9.36L179.82,444.4a12.46,12.46,0,0,0,11.28,0L407.24,319.61c3.12-1.8,5.64-6,5.64-9.36s-2.52-7.57-5.64-9.36L284.5,230a12.46,12.46,0,0,0-11.28,0L57.08,354.8C54,356.59,51.44,360.78,51.44,364.16Z" style="fill:#7E57C2"></path><path d="M412.88,310.25c0,3.38-2.52,7.56-5.63,9.36L191.1,444.41a11.63,11.63,0,0,1-5.63,1.34V433.54a11.52,11.52,0,0,0,5.63-1.35L407.25,307.4c2.72-1.57,3.06-4,1-5.79C410.89,303.64,412.88,307.26,412.88,310.25Z" style="opacity:0.5"></path><path d="M57.08,361.31l122.74,70.88a12.46,12.46,0,0,0,11.28,0L407.24,307.4c3.12-1.8,3.12-4.72,0-6.51L284.5,230a12.46,12.46,0,0,0-11.28,0L57.08,354.8C54,356.59,54,359.51,57.08,361.31Z" style="opacity:0.30000000000000004"></path><path d="M185.46,433.55v12.2a11.57,11.57,0,0,1-5.63-1.34L57.07,373.52c-3.11-1.8-5.63-6-5.63-9.36,0-3.17,2.22-7.05,5.06-9-2.52,1.81-2.33,4.47.57,6.15l122.76,70.88A11.47,11.47,0,0,0,185.46,433.55Z" style="opacity:0.6000000000000001"></path><path d="M46.15,355c-2.92-1.69-2.76-4.54-2.76-8.13V177.32A12.47,12.47,0,0,1,49,167.56L265.17,42.77c3.11-1.8,6-.5,8.9,1.19s4.79,3.14,4.79,6.74V220.24a12.48,12.48,0,0,1-5.64,9.77L57.08,354.8C54,356.59,49.07,356.68,46.15,355Z" style="fill:#7E57C2"></path><path d="M278.86,50.69c0-3.59-2.53-5-5.64-3.25L57.07,172.23a11.51,11.51,0,0,0-4,4.22L45,171.77h0a11.63,11.63,0,0,1,4-4.22L265.16,42.77c3.12-1.8,6-.5,8.91,1.19S278.86,47.1,278.86,50.69Z" style="opacity:0.30000000000000004"></path><path d="M51.44,182V351.54c0,3.6,2.52,5,5.64,3.26L273.22,230a12.48,12.48,0,0,0,5.64-9.77V50.7c0-3.6-2.53-5.06-5.64-3.26L57.08,172.23A12.45,12.45,0,0,0,51.44,182Z" style="opacity:0.5"></path><path d="M56.41,355.14c-3.11,1.45-7.54,1.43-10.26-.15-2.92-1.68-2.76-4.53-2.76-8.12V177.32A11.47,11.47,0,0,1,45,171.77l8.05,4.66h0A11.5,11.5,0,0,0,51.44,182V351.54C51.44,354.88,53.61,356.37,56.41,355.14Z" style="opacity:0.6000000000000001"></path><path d="M60.11,178.73,268.5,58.45c1.87-1.08,3.38-.2,3.38,1.95v148a7.48,7.48,0,0,1-3.38,5.86L60.11,334.55c-1.87,1.08-3.38.2-3.38-2v-148A7.48,7.48,0,0,1,60.11,178.73Z" style="fill:#fafafa"></path><path d="M72.68,355.13,273.31,239.3a6.21,6.21,0,0,1,5.63,0l5.84,3.06c1.56.9,1.56,2.36,0,3.26L84.12,361.43a6.23,6.23,0,0,1-5.64,0l-5.8-3.05C71.12,357.48,71.12,356,72.68,355.13Z" style="fill:#7E57C2"></path><path d="M72.68,355.13,273.31,239.3a6.21,6.21,0,0,1,5.63,0l5.84,3.06c1.56.9,1.56,2.36,0,3.26L84.12,361.43a6.23,6.23,0,0,1-5.64,0l-5.8-3.05C71.12,357.48,71.12,356,72.68,355.13Z" style="opacity:0.45"></path><path d="M88.41,364.49,289,248.65a5.75,5.75,0,0,1,5.15-.28l52.22,30.15c1.29.75,1.07,2.08-.49,3L145.53,397.17a5.78,5.78,0,0,1-5.16.29l-52.44-30C86.64,366.71,86.86,365.38,88.41,364.49Z" style="fill:#263238;opacity:0.30000000000000004"></path><path d="M260.6,296.83l6.28-3.63c.27-.15.31-.38.09-.5l-5.54-3.2a1,1,0,0,0-.88.05l-6.28,3.62c-.27.16-.31.38-.09.51l5.54,3.2A1,1,0,0,0,260.6,296.83Zm-8.76-12.31-6.28,3.62c-.27.16-.31.38-.09.51l5.54,3.2a1,1,0,0,0,.88-.05l6.28-3.63c.27-.15.31-.38.09-.51l-5.54-3.19A1,1,0,0,0,251.84,284.52Zm-20.3,11.71-10.63,6.14c-.26.15-.3.38-.09.51l5.55,3.2a1,1,0,0,0,.88-.05l10.63-6.14c.26-.15.3-.38.08-.51l-5.54-3.2A1,1,0,0,0,231.54,296.23Zm11.12-6.41-6.29,3.62c-.26.16-.3.38-.08.51l5.54,3.2a1,1,0,0,0,.88,0l6.28-3.63c.27-.15.31-.38.09-.5l-5.54-3.2A1,1,0,0,0,242.66,289.82ZM218,304l-6.28,3.63c-.27.15-.3.38-.09.51l5.55,3.2a1,1,0,0,0,.87-.05l6.29-3.63c.26-.15.3-.38.08-.51l-5.54-3.2A1,1,0,0,0,218,304Zm-9.18,5.3L202.55,313c-.27.16-.31.38-.09.51l5.54,3.2a1,1,0,0,0,.88-.05l6.29-3.63c.26-.15.3-.38.08-.51l-5.54-3.2A1,1,0,0,0,208.83,309.34Zm23.28,14,6.28-3.62c.27-.16.31-.39.09-.51l-5.54-3.2a1,1,0,0,0-.88.05l-6.28,3.63c-.27.15-.31.38-.09.5l5.54,3.2A1,1,0,0,0,232.11,323.34Zm-9.18,5.3,6.28-3.62c.27-.16.31-.38.09-.51l-5.54-3.2a1,1,0,0,0-.88.05L216.6,325c-.27.15-.31.38-.09.5l5.54,3.2A1,1,0,0,0,222.93,328.64Zm-9.18,5.3,6.28-3.62c.27-.16.31-.38.09-.51l-5.54-3.2a1,1,0,0,0-.88.05l-6.28,3.63c-.27.15-.31.38-.09.5l5.54,3.2A1,1,0,0,0,213.75,333.94Zm-9.18,5.3,6.28-3.62c.27-.16.31-.38.09-.51l-5.54-3.2a1,1,0,0,0-.88,0l-6.28,3.63c-.27.15-.31.38-.09.51l5.54,3.19A1,1,0,0,0,204.57,339.24Zm46.85-37.11,6.28-3.63c.27-.15.31-.38.09-.5l-5.54-3.2a1,1,0,0,0-.88.05l-6.28,3.62c-.27.16-.31.39-.09.51l5.54,3.2A1,1,0,0,0,251.42,302.13ZM241.29,318l14-8.09c.27-.15.31-.38.09-.51l-14.25-8.23a1,1,0,0,0-.88.05L233,305.45c-.27.15-.31.38-.09.51l7.92,4.57c.22.13.18.35-.08.51l-5.8,3.35c-.27.15-.31.38-.09.5l5.54,3.2A1,1,0,0,0,241.29,318Zm-41.64-3.39-6.28,3.62c-.27.16-.31.38-.09.51l5.54,3.2a1,1,0,0,0,.88-.05L206,318.3c.27-.15.31-.38.09-.51l-5.54-3.2A1,1,0,0,0,199.65,314.65Zm-9.18,5.3-6.28,3.62c-.27.16-.31.38-.09.51l5.54,3.2a1,1,0,0,0,.88,0l6.28-3.63c.27-.15.31-.38.09-.51l-5.54-3.19A1,1,0,0,0,190.47,320ZM139.42,376.4a1,1,0,0,0,.88,0l6.28-3.63c.27-.15.31-.38.09-.51l-5.54-3.2a1,1,0,0,0-.88.06L134,372.69c-.27.16-.31.38-.09.51Zm-22.4-14L110.74,366c-.26.15-.3.38-.09.5l5.55,3.2a.93.93,0,0,0,.87-.05l6.29-3.62c.26-.16.3-.38.08-.51l-5.54-3.2A1,1,0,0,0,117,362.35Zm11.27,10.41a1,1,0,0,0,.88-.05l6.28-3.62c.27-.16.31-.39.09-.51l-5.54-3.2a1,1,0,0,0-.88.05l-6.28,3.63c-.27.15-.31.38-.09.5Zm25.56,5.83,6.28-3.63c.27-.15.31-.38.09-.5l-5.54-3.2a1,1,0,0,0-.88.05l-6.28,3.62c-.27.16-.31.38-.09.51l5.54,3.2A1,1,0,0,0,153.85,378.59Zm-10.06,5.35a1,1,0,0,0,.88-.05l6.28-3.63c.27-.15.3-.38.09-.5l-5.55-3.2a.93.93,0,0,0-.87.05l-6.29,3.62c-.26.16-.3.39-.08.51ZM126.2,357.05l-6.28,3.63c-.26.15-.3.38-.08.5l5.54,3.2a1,1,0,0,0,.88-.05l6.28-3.62c.26-.16.3-.38.08-.51l-5.54-3.2A1,1,0,0,0,126.2,357.05Zm45.91-26.5-6.28,3.62c-.27.16-.31.39-.09.51l5.54,3.2a1,1,0,0,0,.88-.05l6.28-3.63c.27-.15.31-.38.09-.5L173,330.5A1,1,0,0,0,172.11,330.55Zm-36.72,21.2-6.29,3.63c-.26.15-.3.38-.08.5l5.54,3.2a1,1,0,0,0,.88-.05l6.28-3.62c.27-.16.3-.39.09-.51l-5.55-3.2A1,1,0,0,0,135.39,351.75Zm45.9-26.5L175,328.87c-.27.16-.31.38-.09.51l5.54,3.2a1,1,0,0,0,.88-.05l6.28-3.63c.27-.15.31-.38.09-.5l-5.54-3.2A1,1,0,0,0,181.29,325.25Zm-18.36,10.6-6.28,3.62c-.27.16-.31.39-.09.51l5.54,3.2a1,1,0,0,0,.88-.05l6.28-3.63c.27-.15.31-.38.09-.5l-5.54-3.2A1,1,0,0,0,162.93,335.85Zm-9.18,5.3-6.28,3.63c-.27.15-.31.38-.09.5l5.54,3.2a1,1,0,0,0,.88-.05l6.28-3.63c.27-.15.31-.38.09-.5l-5.54-3.2A1,1,0,0,0,153.75,341.15Zm-9.18,5.3-6.29,3.63c-.26.15-.3.38-.08.5l5.54,3.2a1,1,0,0,0,.88,0l6.28-3.63c.27-.15.3-.38.09-.5l-5.54-3.2A1,1,0,0,0,144.57,346.45Zm41.64,3.4,6.28-3.63c.26-.16.3-.38.09-.51l-5.55-3.2a1,1,0,0,0-.88.05l-6.28,3.63c-.26.15-.3.38-.08.51l5.54,3.2A1,1,0,0,0,186.21,349.85Zm85.92-77.05-6.28,3.63c-.27.15-.31.38-.09.5l5.54,3.2a1,1,0,0,0,.88-.05l6.28-3.63c.27-.15.31-.38.09-.5l-5.54-3.2A1,1,0,0,0,272.13,272.8ZM261,279.22l-6.28,3.62c-.27.16-.31.38-.09.51l5.54,3.2a1,1,0,0,0,.88-.05l6.28-3.63c.27-.15.31-.38.09-.51l-5.54-3.2A1,1,0,0,0,261,279.22Zm20.29-11.72L275,271.12c-.27.16-.3.39-.09.51l5.55,3.2a.93.93,0,0,0,.87-.05l6.29-3.63c.26-.15.3-.38.08-.5l-5.54-3.2A1,1,0,0,0,281.31,267.5Zm-51.15,46.91,6.28-3.63c.27-.16.31-.38.09-.51l-5.54-3.2a1,1,0,0,0-.88.05l-6.28,3.63c-.27.15-.31.38-.09.51l5.54,3.2A1,1,0,0,0,230.16,314.41Zm61.21-52.26a1,1,0,0,0-.88.05l-6.28,3.62c-.26.16-.3.39-.08.51l5.54,3.2a1,1,0,0,0,.87,0l6.29-3.63c.26-.15.3-.38.08-.5Zm-96,82.39,6.28-3.62c.27-.16.3-.38.09-.51l-5.55-3.2a1,1,0,0,0-.87.05l-6.29,3.63c-.26.15-.3.38-.08.51l5.54,3.2A1,1,0,0,0,195.39,344.54Zm112.58-65,6.29-3.62c.26-.16.3-.39.08-.51l-5.54-3.2a1,1,0,0,0-.88.05l-6.28,3.63c-.27.15-.31.38-.09.5l5.54,3.2A1,1,0,0,0,308,279.54Zm-17.89.27,6.28-3.62c.27-.16.31-.39.09-.51l-5.54-3.2a1,1,0,0,0-.88,0l-6.28,3.63c-.27.15-.31.38-.09.5l5.54,3.2A1,1,0,0,0,290.08,279.81Zm10-12.63a1,1,0,0,0-.88.05l-6.28,3.63c-.27.15-.31.38-.09.5l5.54,3.2a1,1,0,0,0,.88-.05l6.28-3.62c.27-.16.31-.39.09-.51Zm1.93-1.12,14.26,8.23a.93.93,0,0,0,.87-.05l6.29-3.62c.26-.16.3-.39.08-.51l-14.25-8.23a1,1,0,0,0-.88.05l-6.28,3.62C301.84,265.71,301.8,265.94,302,266.06Zm-21.17,11.77-6.29,3.63c-.26.15-.3.38-.08.5l5.54,3.2a1,1,0,0,0,.88-.05l6.28-3.62c.27-.16.31-.39.09-.51l-5.54-3.2A1,1,0,0,0,280.85,277.83Zm-69.1,39.89-6.28,3.63c-.27.15-.31.38-.09.51l5.54,3.2a1,1,0,0,0,.88-.05l6.28-3.63c.27-.15.31-.38.09-.51l-5.54-3.2A1,1,0,0,0,211.75,317.72Zm86.16-32.83a1,1,0,0,0,.88-.05l6.28-3.62c.27-.16.31-.38.09-.51l-5.54-3.2a1,1,0,0,0-.88.05l-6.28,3.63c-.27.15-.31.38-.09.5Zm-77,27.53-6.28,3.63c-.27.15-.31.38-.09.51l5.54,3.2a1,1,0,0,0,.88-.05l6.28-3.63c.27-.15.31-.38.09-.51l-5.54-3.2A1,1,0,0,0,220.93,312.42ZM148.6,371.1a1,1,0,0,0,.88-.05l6.28-3.63c.27-.15.31-.38.09-.51l-5.54-3.2a1,1,0,0,0-.88.05l-6.28,3.63c-.27.16-.31.38-.09.51Zm-10.3-11L132,363.76c-.27.15-.31.38-.09.5l5.54,3.2a1,1,0,0,0,.88,0l6.28-3.63c.27-.15.31-.38.09-.5l-5.54-3.2A1,1,0,0,0,138.3,360.13Zm20.36,5.62,6.28-3.63c.27-.15.31-.38.09-.51l-5.54-3.2a1,1,0,0,0-.88,0l-6.28,3.63c-.27.15-.31.38-.09.51l5.54,3.2A1,1,0,0,0,158.66,365.75Zm9.18-5.3,6.29-3.63c.26-.15.3-.38.08-.51l-5.54-3.2a1,1,0,0,0-.88.05l-6.28,3.63c-.27.15-.3.38-.09.51l5.55,3.2A1,1,0,0,0,167.84,360.45Zm9.19-5.3,6.28-3.63c.26-.16.3-.38.08-.51l-5.54-3.2a1,1,0,0,0-.88.05l-6.28,3.63c-.26.15-.3.38-.08.51l5.54,3.2A1,1,0,0,0,177,355.15Zm-29.55-.32-6.28,3.62c-.27.16-.31.39-.09.51l5.54,3.2a1,1,0,0,0,.88-.05l6.28-3.63c.27-.15.31-.38.09-.5l-5.54-3.2A1,1,0,0,0,147.48,354.83Zm9.18-5.3-6.28,3.62c-.27.16-.3.38-.09.51l5.55,3.2a1,1,0,0,0,.87-.05l6.29-3.63c.26-.15.3-.38.08-.5l-5.54-3.2A1,1,0,0,0,156.66,349.53Zm36.73-21.2L187.1,332c-.26.16-.3.38-.08.51l5.54,3.2a1,1,0,0,0,.88-.05l6.28-3.63c.27-.15.3-.38.09-.51l-5.54-3.2A1,1,0,0,0,193.39,328.33Zm-9.18,5.3-6.29,3.62c-.26.16-.3.38-.08.51l5.54,3.2a1,1,0,0,0,.88,0l6.28-3.63c.27-.15.3-.38.09-.51l-5.55-3.2A1,1,0,0,0,184.21,333.63ZM202.57,323l-6.28,3.63c-.27.16-.31.38-.09.51l5.54,3.2a1,1,0,0,0,.88-.05l6.28-3.63c.27-.15.31-.38.09-.51l-5.54-3.2A1,1,0,0,0,202.57,323Zm-36.73,21.21-6.28,3.62c-.26.16-.3.38-.09.51l5.55,3.2a1,1,0,0,0,.88-.05l6.28-3.63c.26-.15.3-.38.08-.5l-5.54-3.2A1,1,0,0,0,165.84,344.23Zm9.18-5.3-6.28,3.62c-.26.16-.3.38-.08.51l5.54,3.2a1,1,0,0,0,.88-.05l6.28-3.63c.26-.15.3-.38.08-.51l-5.54-3.19A1,1,0,0,0,175,338.93Zm-12,34.36,6.28-3.63c.27-.15.31-.38.09-.51L163.86,366a1,1,0,0,0-.88.05l-6.28,3.62c-.27.16-.31.38-.09.51l5.54,3.2A1,1,0,0,0,163,373.29Zm-48.77-2.49-5.54-3.2a1,1,0,0,0-.88,0l-6.28,3.63c-.27.15-.3.38-.09.51L107,375a1,1,0,0,0,.88-.05l6.29-3.62C114.44,371.15,114.48,370.93,114.26,370.8Zm12.1,3.08-5.54-3.2a1,1,0,0,0-.88.05l-9.66,5.58c-.27.15-.31.38-.09.51l5.54,3.2a1,1,0,0,0,.88,0l9.66-5.58C126.54,374.23,126.58,374,126.36,373.88Zm-20.26-9.46-5.54-3.2a.93.93,0,0,0-.87,0L92,365.73c-.26.16-.3.38-.08.51l5.54,3.2a1,1,0,0,0,.88-.05l7.73-4.47C106.28,364.77,106.32,364.54,106.1,364.42ZM112,361a1,1,0,0,0,.88-.05l6.28-3.62c.27-.16.31-.38.09-.51l-5.54-3.2a1,1,0,0,0-.88.05l-6.28,3.63c-.27.15-.31.38-.09.5Zm25.46,16.52L132,374.32a1,1,0,0,0-.88.05l-12.08,7c-.27.15-.31.38-.09.51l5.54,3.2a1,1,0,0,0,.88-.05l12.08-7C137.67,377.87,137.71,377.64,137.49,377.51Zm4.37,7.55-5.55-3.2a.93.93,0,0,0-.87.05l-7.74,4.46c-.26.16-.3.38-.08.51l5.54,3.2A1,1,0,0,0,134,390l7.73-4.47C142,385.41,142.07,385.18,141.86,385.06Zm38.43-63.48a1,1,0,0,0,.88-.05l6.28-3.62c.27-.16.31-.38.09-.51L182,314.2a1,1,0,0,0-.88.05l-6.28,3.63c-.27.15-.31.38-.09.5Zm-18.36,10.61a1,1,0,0,0,.88-.06l6.28-3.62c.27-.16.31-.38.09-.51l-5.54-3.2a1,1,0,0,0-.88.05l-6.28,3.63c-.27.15-.31.38-.09.51Zm-40.72,23.5a1,1,0,0,0,.88-.05l6.28-3.62c.27-.16.31-.38.09-.51l-5.54-3.2a1,1,0,0,0-.88.05L115.76,352c-.27.15-.31.38-.09.5Zm49.9-28.81a1,1,0,0,0,.88-.05l6.28-3.62c.27-.16.31-.38.09-.51l-5.54-3.2a1,1,0,0,0-.88.05l-6.28,3.63c-.27.15-.31.38-.09.51Zm-18.36,10.61a1,1,0,0,0,.88-.06l6.28-3.62c.27-.16.31-.38.09-.51l-5.54-3.2a1,1,0,0,0-.88,0l-6.28,3.63c-.27.15-.31.38-.09.51ZM147,385.77a1,1,0,0,0-.88.05l-9.66,5.58c-.27.16-.31.38-.09.51l5.54,3.2a1,1,0,0,0,.88-.05l9.67-5.58c.26-.15.3-.38.08-.51Zm-7.38-40.68a.93.93,0,0,0,.87,0l6.29-3.62c.26-.16.3-.39.08-.51l-5.54-3.2a1,1,0,0,0-.88.05l-6.28,3.63c-.27.15-.3.38-.09.5Zm-9.19,5.3a1,1,0,0,0,.88-.05l6.28-3.62c.27-.16.31-.39.09-.51L132.1,343a1,1,0,0,0-.88.05l-6.28,3.63c-.27.15-.31.38-.09.5Zm186.66-62.82a1,1,0,0,0-.88.05l-15.46,8.93c-.27.15-.31.38-.09.51l5.54,3.2a1,1,0,0,0,.88-.05l15.46-8.93c.27-.16.31-.38.09-.51Zm-20.3,11.72a1,1,0,0,0-.87,0L289.59,303c-.26.15-.3.38-.08.5l5.54,3.2a1,1,0,0,0,.88-.05l6.28-3.62c.27-.16.3-.39.09-.51ZM172.21,368l6.28-3.63c.27-.15.31-.38.09-.51l-5.54-3.2a1,1,0,0,0-.88.06l-6.28,3.62c-.27.16-.31.38-.09.51l5.54,3.2A1,1,0,0,0,172.21,368Zm106.18-58.1a1,1,0,0,0-.88.05l-6.28,3.63c-.26.15-.3.38-.09.51l5.55,3.19a.93.93,0,0,0,.87,0l6.29-3.62c.26-.16.3-.38.08-.51Zm47.84-27.62a1,1,0,0,0-.88.05L319.07,286c-.27.15-.31.38-.09.51l5.54,3.2a1,1,0,0,0,.88-.05l6.28-3.63c.27-.16.31-.38.09-.51Zm14.72-2.1-14.25-8.23a1,1,0,0,0-.88.05l-6.28,3.63c-.27.15-.31.38-.09.5l14.25,8.24a1,1,0,0,0,.88-.05l6.28-3.63C341.13,280.52,341.17,280.3,341,280.17ZM244.09,329.7a1,1,0,0,0-.88.05l-7.73,4.46c-.27.16-.31.38-.09.51l5.54,3.2a1,1,0,0,0,.88-.05l7.73-4.47c.27-.15.31-.38.09-.5Zm23.19-13.39a1,1,0,0,0-.88.05l-9.66,5.58c-.27.15-.31.38-.09.5l5.54,3.2a1,1,0,0,0,.88-.05l9.66-5.58c.27-.15.31-.38.09-.5ZM222.82,342a1,1,0,0,0-.87,0l-51.71,29.85c-.26.16-.3.39-.08.51l5.54,3.2a1,1,0,0,0,.88-.05l51.7-29.85c.27-.15.3-.38.09-.51Zm-54.6,31.53a1,1,0,0,0-.88.05L159.61,378c-.27.16-.3.38-.09.51l5.55,3.2a1,1,0,0,0,.87-.05l7.74-4.47c.26-.15.3-.38.08-.5Zm65.23-37.66a.93.93,0,0,0-.87.05l-7.74,4.46c-.26.15-.3.38-.08.51l5.54,3.2a1,1,0,0,0,.88-.05l7.73-4.47c.27-.15.3-.38.09-.51Zm-75.86,43.79a1,1,0,0,0-.88.06L149,384.15c-.27.15-.3.38-.09.51l5.55,3.2a1,1,0,0,0,.87-.05l7.74-4.47c.26-.15.3-.38.08-.51Zm97.13-56.07a1,1,0,0,0-.88.05l-7.73,4.46c-.27.16-.31.39-.09.51l5.54,3.2a1,1,0,0,0,.88,0l7.73-4.46c.27-.16.31-.38.09-.51Zm32.85-19a1,1,0,0,0-.88.05l-6.28,3.63c-.26.15-.3.38-.08.5l5.54,3.2a1,1,0,0,0,.88-.05L293,308.3c.26-.16.3-.38.08-.51Zm19.94-14.72,6.28-3.62c.27-.16.3-.38.09-.51l-5.55-3.2a1,1,0,0,0-.87,0l-6.29,3.63c-.26.15-.3.38-.08.51l5.54,3.19A1,1,0,0,0,307.51,289.87Zm-37.73,1.66,6.29-3.63c.26-.15.3-.38.08-.51l-5.54-3.19a1,1,0,0,0-.88.05l-6.28,3.62c-.27.16-.3.38-.09.51l5.54,3.2A1,1,0,0,0,269.78,291.53Zm-24.12,34.05L264,315c.27-.15.3-.38.09-.51l-5.55-3.19a.93.93,0,0,0-.87.05l-18.37,10.6c-.26.15-.3.38-.08.51l5.54,3.19A1,1,0,0,0,245.66,325.58Zm51.79-30.35a1,1,0,0,0,.88-.05l6.28-3.63c.26-.16.3-.38.08-.51l-5.54-3.2a1,1,0,0,0-.87.05L292,291.52c-.26.15-.3.38-.08.51Zm-7.84-5.09,6.28-3.62c.27-.16.31-.38.09-.51l-5.54-3.2a1,1,0,0,0-.88.05l-6.28,3.63c-.27.15-.31.38-.09.51l5.54,3.19A1,1,0,0,0,289.61,290.14Zm-53.13,40.74,6.28-3.62c.26-.16.3-.38.08-.51l-5.54-3.2a1,1,0,0,0-.88.05l-6.28,3.63c-.26.15-.3.38-.08.51l5.54,3.19A1,1,0,0,0,236.48,330.88Zm40.67-23.94a1,1,0,0,0,.88-.05l6.28-3.62c.27-.16.31-.39.09-.51l-5.54-3.2a1,1,0,0,0-.88.05l-6.28,3.63c-.27.15-.31.38-.09.5Zm-86.58,50.45,6.28-3.63c.27-.15.31-.38.09-.51l-5.54-3.2a1,1,0,0,0-.88.05l-6.28,3.63c-.27.16-.31.38-.09.51l5.54,3.2A1,1,0,0,0,190.57,357.39Zm9.18-5.3,6.28-3.63c.27-.15.31-.38.09-.51l-5.54-3.2a1,1,0,0,0-.88.05l-6.28,3.63c-.27.15-.31.38-.09.51l5.54,3.2A1,1,0,0,0,199.75,352.09Zm-18.36,10.6,6.28-3.63c.27-.15.31-.38.09-.51l-5.54-3.2a1,1,0,0,0-.88,0L175.06,359c-.27.16-.31.38-.09.51l5.54,3.2A1,1,0,0,0,181.39,362.69Zm36.72-21.2,6.29-3.63c.26-.16.3-.38.08-.51l-5.54-3.2a1,1,0,0,0-.88.05l-6.28,3.63c-.27.15-.3.38-.09.51l5.54,3.2A1,1,0,0,0,218.11,341.49Zm-9.18,5.3,6.28-3.63c.27-.15.31-.38.09-.51l-5.54-3.2a1,1,0,0,0-.88.05l-6.28,3.63c-.27.15-.31.38-.09.51l5.54,3.2A1,1,0,0,0,208.93,346.79Zm18.36-10.61,6.29-3.62c.26-.16.3-.38.08-.51l-5.54-3.2a1,1,0,0,0-.88,0L221,332.53c-.26.15-.3.38-.08.51l5.54,3.2A1,1,0,0,0,227.29,336.18ZM278,262.81a1,1,0,0,0,.87-.05l6.29-3.63c.26-.15.3-.38.08-.5l-1.47-.86a1,1,0,0,0-.88.05l-6.28,3.63c-.27.16-.31.38-.09.51ZM232.22,291.6a1,1,0,0,0,.88-.05l6.28-3.62c.27-.16.31-.39.09-.51l-5.54-3.2a1,1,0,0,0-.88,0l-6.28,3.63c-.27.15-.31.38-.09.5ZM250.58,281a1,1,0,0,0,.88-.05l6.28-3.63c.27-.15.31-.38.09-.5l-5.54-3.2a1,1,0,0,0-.88.05l-6.28,3.63c-.27.15-.31.38-.09.5ZM221,298.08a1,1,0,0,0,.88-.06l6.28-3.62c.27-.16.31-.38.09-.51l-5.54-3.2a1,1,0,0,0-.88.05l-6.28,3.63c-.27.15-.31.38-.09.51ZM241.4,286.3a1,1,0,0,0,.88-.05l6.28-3.62c.27-.16.31-.39.09-.51l-5.54-3.2a1,1,0,0,0-.88.05L236,282.6c-.27.15-.31.38-.09.5Zm-38.75,22.38a1,1,0,0,0,.88-.05l6.28-3.63c.27-.15.31-.38.09-.51l-5.54-3.2a1,1,0,0,0-.88,0L197.2,305c-.27.15-.31.38-.09.51Zm9.18-5.3a1,1,0,0,0,.88-.05L219,299.7c.27-.16.31-.38.09-.51l-5.54-3.2a1,1,0,0,0-.88.05l-6.28,3.63c-.27.15-.31.38-.09.51Zm47.83-30a1,1,0,0,0,.88-.05l6.28-3.63c.27-.15.31-.38.09-.5l-1.47-.85a1,1,0,0,0-.88.05l-6.28,3.62c-.27.16-.31.38-.09.51Zm27.55-15.9a1,1,0,0,0,.88-.05l6.28-3.63c.26-.15.3-.38.08-.5l-1.47-.86a1,1,0,0,0-.88.05l-6.28,3.63c-.27.15-.31.38-.09.51Zm11.64,6.72a1,1,0,0,0,.88-.05l6.28-3.63c.26-.15.3-.38.09-.5l-5.55-3.2a1,1,0,0,0-.88,0l-6.28,3.62c-.26.16-.3.39-.08.51Zm17.84,20.34L323,281c.27-.16.31-.38.09-.51l-5.54-3.2a1,1,0,0,0-.88.05l-6.29,3.63c-.26.15-.3.38-.08.51l5.54,3.19A1,1,0,0,0,316.69,284.57Zm-47.85-16.46a1,1,0,0,0,.88-.05l6.29-3.63c.26-.15.3-.38.08-.5l-1.47-.86a1,1,0,0,0-.88.06l-6.28,3.62c-.27.16-.31.38-.09.51ZM193.47,314a1,1,0,0,0,.88-.05l6.28-3.63c.27-.15.31-.38.09-.51l-5.54-3.2a1,1,0,0,0-.88.05L188,310.27c-.26.15-.3.38-.08.51Z" style="fill:#7E57C2"></path><path d="M260.6,296.83l6.28-3.63c.27-.15.31-.38.09-.5l-5.54-3.2a1,1,0,0,0-.88.05l-6.28,3.62c-.27.16-.31.38-.09.51l5.54,3.2A1,1,0,0,0,260.6,296.83Zm-8.76-12.31-6.28,3.62c-.27.16-.31.38-.09.51l5.54,3.2a1,1,0,0,0,.88-.05l6.28-3.63c.27-.15.31-.38.09-.51l-5.54-3.19A1,1,0,0,0,251.84,284.52Zm-20.3,11.71-10.63,6.14c-.26.15-.3.38-.09.51l5.55,3.2a1,1,0,0,0,.88-.05l10.63-6.14c.26-.15.3-.38.08-.51l-5.54-3.2A1,1,0,0,0,231.54,296.23Zm11.12-6.41-6.29,3.62c-.26.16-.3.38-.08.51l5.54,3.2a1,1,0,0,0,.88,0l6.28-3.63c.27-.15.31-.38.09-.5l-5.54-3.2A1,1,0,0,0,242.66,289.82ZM218,304l-6.28,3.63c-.27.15-.3.38-.09.51l5.55,3.2a1,1,0,0,0,.87-.05l6.29-3.63c.26-.15.3-.38.08-.51l-5.54-3.2A1,1,0,0,0,218,304Zm-9.18,5.3L202.55,313c-.27.16-.31.38-.09.51l5.54,3.2a1,1,0,0,0,.88-.05l6.29-3.63c.26-.15.3-.38.08-.51l-5.54-3.2A1,1,0,0,0,208.83,309.34Zm23.28,14,6.28-3.62c.27-.16.31-.39.09-.51l-5.54-3.2a1,1,0,0,0-.88.05l-6.28,3.63c-.27.15-.31.38-.09.5l5.54,3.2A1,1,0,0,0,232.11,323.34Zm-9.18,5.3,6.28-3.62c.27-.16.31-.38.09-.51l-5.54-3.2a1,1,0,0,0-.88.05L216.6,325c-.27.15-.31.38-.09.5l5.54,3.2A1,1,0,0,0,222.93,328.64Zm-9.18,5.3,6.28-3.62c.27-.16.31-.38.09-.51l-5.54-3.2a1,1,0,0,0-.88.05l-6.28,3.63c-.27.15-.31.38-.09.5l5.54,3.2A1,1,0,0,0,213.75,333.94Zm-9.18,5.3,6.28-3.62c.27-.16.31-.38.09-.51l-5.54-3.2a1,1,0,0,0-.88,0l-6.28,3.63c-.27.15-.31.38-.09.51l5.54,3.19A1,1,0,0,0,204.57,339.24Zm46.85-37.11,6.28-3.63c.27-.15.31-.38.09-.5l-5.54-3.2a1,1,0,0,0-.88.05l-6.28,3.62c-.27.16-.31.39-.09.51l5.54,3.2A1,1,0,0,0,251.42,302.13ZM241.29,318l14-8.09c.27-.15.31-.38.09-.51l-14.25-8.23a1,1,0,0,0-.88.05L233,305.45c-.27.15-.31.38-.09.51l7.92,4.57c.22.13.18.35-.08.51l-5.8,3.35c-.27.15-.31.38-.09.5l5.54,3.2A1,1,0,0,0,241.29,318Zm-41.64-3.39-6.28,3.62c-.27.16-.31.38-.09.51l5.54,3.2a1,1,0,0,0,.88-.05L206,318.3c.27-.15.31-.38.09-.51l-5.54-3.2A1,1,0,0,0,199.65,314.65Zm-9.18,5.3-6.28,3.62c-.27.16-.31.38-.09.51l5.54,3.2a1,1,0,0,0,.88,0l6.28-3.63c.27-.15.31-.38.09-.51l-5.54-3.19A1,1,0,0,0,190.47,320ZM139.42,376.4a1,1,0,0,0,.88,0l6.28-3.63c.27-.15.31-.38.09-.51l-5.54-3.2a1,1,0,0,0-.88.06L134,372.69c-.27.16-.31.38-.09.51Zm-22.4-14L110.74,366c-.26.15-.3.38-.09.5l5.55,3.2a.93.93,0,0,0,.87-.05l6.29-3.62c.26-.16.3-.38.08-.51l-5.54-3.2A1,1,0,0,0,117,362.35Zm11.27,10.41a1,1,0,0,0,.88-.05l6.28-3.62c.27-.16.31-.39.09-.51l-5.54-3.2a1,1,0,0,0-.88.05l-6.28,3.63c-.27.15-.31.38-.09.5Zm25.56,5.83,6.28-3.63c.27-.15.31-.38.09-.5l-5.54-3.2a1,1,0,0,0-.88.05l-6.28,3.62c-.27.16-.31.38-.09.51l5.54,3.2A1,1,0,0,0,153.85,378.59Zm-10.06,5.35a1,1,0,0,0,.88-.05l6.28-3.63c.27-.15.3-.38.09-.5l-5.55-3.2a.93.93,0,0,0-.87.05l-6.29,3.62c-.26.16-.3.39-.08.51ZM126.2,357.05l-6.28,3.63c-.26.15-.3.38-.08.5l5.54,3.2a1,1,0,0,0,.88-.05l6.28-3.62c.26-.16.3-.38.08-.51l-5.54-3.2A1,1,0,0,0,126.2,357.05Zm45.91-26.5-6.28,3.62c-.27.16-.31.39-.09.51l5.54,3.2a1,1,0,0,0,.88-.05l6.28-3.63c.27-.15.31-.38.09-.5L173,330.5A1,1,0,0,0,172.11,330.55Zm-36.72,21.2-6.29,3.63c-.26.15-.3.38-.08.5l5.54,3.2a1,1,0,0,0,.88-.05l6.28-3.62c.27-.16.3-.39.09-.51l-5.55-3.2A1,1,0,0,0,135.39,351.75Zm45.9-26.5L175,328.87c-.27.16-.31.38-.09.51l5.54,3.2a1,1,0,0,0,.88-.05l6.28-3.63c.27-.15.31-.38.09-.5l-5.54-3.2A1,1,0,0,0,181.29,325.25Zm-18.36,10.6-6.28,3.62c-.27.16-.31.39-.09.51l5.54,3.2a1,1,0,0,0,.88-.05l6.28-3.63c.27-.15.31-.38.09-.5l-5.54-3.2A1,1,0,0,0,162.93,335.85Zm-9.18,5.3-6.28,3.63c-.27.15-.31.38-.09.5l5.54,3.2a1,1,0,0,0,.88-.05l6.28-3.63c.27-.15.31-.38.09-.5l-5.54-3.2A1,1,0,0,0,153.75,341.15Zm-9.18,5.3-6.29,3.63c-.26.15-.3.38-.08.5l5.54,3.2a1,1,0,0,0,.88,0l6.28-3.63c.27-.15.3-.38.09-.5l-5.54-3.2A1,1,0,0,0,144.57,346.45Zm41.64,3.4,6.28-3.63c.26-.16.3-.38.09-.51l-5.55-3.2a1,1,0,0,0-.88.05l-6.28,3.63c-.26.15-.3.38-.08.51l5.54,3.2A1,1,0,0,0,186.21,349.85Zm85.92-77.05-6.28,3.63c-.27.15-.31.38-.09.5l5.54,3.2a1,1,0,0,0,.88-.05l6.28-3.63c.27-.15.31-.38.09-.5l-5.54-3.2A1,1,0,0,0,272.13,272.8ZM261,279.22l-6.28,3.62c-.27.16-.31.38-.09.51l5.54,3.2a1,1,0,0,0,.88-.05l6.28-3.63c.27-.15.31-.38.09-.51l-5.54-3.2A1,1,0,0,0,261,279.22Zm20.29-11.72L275,271.12c-.27.16-.3.39-.09.51l5.55,3.2a.93.93,0,0,0,.87-.05l6.29-3.63c.26-.15.3-.38.08-.5l-5.54-3.2A1,1,0,0,0,281.31,267.5Zm-51.15,46.91,6.28-3.63c.27-.16.31-.38.09-.51l-5.54-3.2a1,1,0,0,0-.88.05l-6.28,3.63c-.27.15-.31.38-.09.51l5.54,3.2A1,1,0,0,0,230.16,314.41Zm61.21-52.26a1,1,0,0,0-.88.05l-6.28,3.62c-.26.16-.3.39-.08.51l5.54,3.2a1,1,0,0,0,.87,0l6.29-3.63c.26-.15.3-.38.08-.5Zm-96,82.39,6.28-3.62c.27-.16.3-.38.09-.51l-5.55-3.2a1,1,0,0,0-.87.05l-6.29,3.63c-.26.15-.3.38-.08.51l5.54,3.2A1,1,0,0,0,195.39,344.54Zm112.58-65,6.29-3.62c.26-.16.3-.39.08-.51l-5.54-3.2a1,1,0,0,0-.88.05l-6.28,3.63c-.27.15-.31.38-.09.5l5.54,3.2A1,1,0,0,0,308,279.54Zm-17.89.27,6.28-3.62c.27-.16.31-.39.09-.51l-5.54-3.2a1,1,0,0,0-.88,0l-6.28,3.63c-.27.15-.31.38-.09.5l5.54,3.2A1,1,0,0,0,290.08,279.81Zm10-12.63a1,1,0,0,0-.88.05l-6.28,3.63c-.27.15-.31.38-.09.5l5.54,3.2a1,1,0,0,0,.88-.05l6.28-3.62c.27-.16.31-.39.09-.51Zm1.93-1.12,14.26,8.23a.93.93,0,0,0,.87-.05l6.29-3.62c.26-.16.3-.39.08-.51l-14.25-8.23a1,1,0,0,0-.88.05l-6.28,3.62C301.84,265.71,301.8,265.94,302,266.06Zm-21.17,11.77-6.29,3.63c-.26.15-.3.38-.08.5l5.54,3.2a1,1,0,0,0,.88-.05l6.28-3.62c.27-.16.31-.39.09-.51l-5.54-3.2A1,1,0,0,0,280.85,277.83Zm-69.1,39.89-6.28,3.63c-.27.15-.31.38-.09.51l5.54,3.2a1,1,0,0,0,.88-.05l6.28-3.63c.27-.15.31-.38.09-.51l-5.54-3.2A1,1,0,0,0,211.75,317.72Zm86.16-32.83a1,1,0,0,0,.88-.05l6.28-3.62c.27-.16.31-.38.09-.51l-5.54-3.2a1,1,0,0,0-.88.05l-6.28,3.63c-.27.15-.31.38-.09.5Zm-77,27.53-6.28,3.63c-.27.15-.31.38-.09.51l5.54,3.2a1,1,0,0,0,.88-.05l6.28-3.63c.27-.15.31-.38.09-.51l-5.54-3.2A1,1,0,0,0,220.93,312.42ZM148.6,371.1a1,1,0,0,0,.88-.05l6.28-3.63c.27-.15.31-.38.09-.51l-5.54-3.2a1,1,0,0,0-.88.05l-6.28,3.63c-.27.16-.31.38-.09.51Zm-10.3-11L132,363.76c-.27.15-.31.38-.09.5l5.54,3.2a1,1,0,0,0,.88,0l6.28-3.63c.27-.15.31-.38.09-.5l-5.54-3.2A1,1,0,0,0,138.3,360.13Zm20.36,5.62,6.28-3.63c.27-.15.31-.38.09-.51l-5.54-3.2a1,1,0,0,0-.88,0l-6.28,3.63c-.27.15-.31.38-.09.51l5.54,3.2A1,1,0,0,0,158.66,365.75Zm9.18-5.3,6.29-3.63c.26-.15.3-.38.08-.51l-5.54-3.2a1,1,0,0,0-.88.05l-6.28,3.63c-.27.15-.3.38-.09.51l5.55,3.2A1,1,0,0,0,167.84,360.45Zm9.19-5.3,6.28-3.63c.26-.16.3-.38.08-.51l-5.54-3.2a1,1,0,0,0-.88.05l-6.28,3.63c-.26.15-.3.38-.08.51l5.54,3.2A1,1,0,0,0,177,355.15Zm-29.55-.32-6.28,3.62c-.27.16-.31.39-.09.51l5.54,3.2a1,1,0,0,0,.88-.05l6.28-3.63c.27-.15.31-.38.09-.5l-5.54-3.2A1,1,0,0,0,147.48,354.83Zm9.18-5.3-6.28,3.62c-.27.16-.3.38-.09.51l5.55,3.2a1,1,0,0,0,.87-.05l6.29-3.63c.26-.15.3-.38.08-.5l-5.54-3.2A1,1,0,0,0,156.66,349.53Zm36.73-21.2L187.1,332c-.26.16-.3.38-.08.51l5.54,3.2a1,1,0,0,0,.88-.05l6.28-3.63c.27-.15.3-.38.09-.51l-5.54-3.2A1,1,0,0,0,193.39,328.33Zm-9.18,5.3-6.29,3.62c-.26.16-.3.38-.08.51l5.54,3.2a1,1,0,0,0,.88,0l6.28-3.63c.27-.15.3-.38.09-.51l-5.55-3.2A1,1,0,0,0,184.21,333.63ZM202.57,323l-6.28,3.63c-.27.16-.31.38-.09.51l5.54,3.2a1,1,0,0,0,.88-.05l6.28-3.63c.27-.15.31-.38.09-.51l-5.54-3.2A1,1,0,0,0,202.57,323Zm-36.73,21.21-6.28,3.62c-.26.16-.3.38-.09.51l5.55,3.2a1,1,0,0,0,.88-.05l6.28-3.63c.26-.15.3-.38.08-.5l-5.54-3.2A1,1,0,0,0,165.84,344.23Zm9.18-5.3-6.28,3.62c-.26.16-.3.38-.08.51l5.54,3.2a1,1,0,0,0,.88-.05l6.28-3.63c.26-.15.3-.38.08-.51l-5.54-3.19A1,1,0,0,0,175,338.93Zm-12,34.36,6.28-3.63c.27-.15.31-.38.09-.51L163.86,366a1,1,0,0,0-.88.05l-6.28,3.62c-.27.16-.31.38-.09.51l5.54,3.2A1,1,0,0,0,163,373.29Zm-48.77-2.49-5.54-3.2a1,1,0,0,0-.88,0l-6.28,3.63c-.27.15-.3.38-.09.51L107,375a1,1,0,0,0,.88-.05l6.29-3.62C114.44,371.15,114.48,370.93,114.26,370.8Zm12.1,3.08-5.54-3.2a1,1,0,0,0-.88.05l-9.66,5.58c-.27.15-.31.38-.09.51l5.54,3.2a1,1,0,0,0,.88,0l9.66-5.58C126.54,374.23,126.58,374,126.36,373.88Zm-20.26-9.46-5.54-3.2a.93.93,0,0,0-.87,0L92,365.73c-.26.16-.3.38-.08.51l5.54,3.2a1,1,0,0,0,.88-.05l7.73-4.47C106.28,364.77,106.32,364.54,106.1,364.42ZM112,361a1,1,0,0,0,.88-.05l6.28-3.62c.27-.16.31-.38.09-.51l-5.54-3.2a1,1,0,0,0-.88.05l-6.28,3.63c-.27.15-.31.38-.09.5Zm25.46,16.52L132,374.32a1,1,0,0,0-.88.05l-12.08,7c-.27.15-.31.38-.09.51l5.54,3.2a1,1,0,0,0,.88-.05l12.08-7C137.67,377.87,137.71,377.64,137.49,377.51Zm4.37,7.55-5.55-3.2a.93.93,0,0,0-.87.05l-7.74,4.46c-.26.16-.3.38-.08.51l5.54,3.2A1,1,0,0,0,134,390l7.73-4.47C142,385.41,142.07,385.18,141.86,385.06Zm38.43-63.48a1,1,0,0,0,.88-.05l6.28-3.62c.27-.16.31-.38.09-.51L182,314.2a1,1,0,0,0-.88.05l-6.28,3.63c-.27.15-.31.38-.09.5Zm-18.36,10.61a1,1,0,0,0,.88-.06l6.28-3.62c.27-.16.31-.38.09-.51l-5.54-3.2a1,1,0,0,0-.88.05l-6.28,3.63c-.27.15-.31.38-.09.51Zm-40.72,23.5a1,1,0,0,0,.88-.05l6.28-3.62c.27-.16.31-.38.09-.51l-5.54-3.2a1,1,0,0,0-.88.05L115.76,352c-.27.15-.31.38-.09.5Zm49.9-28.81a1,1,0,0,0,.88-.05l6.28-3.62c.27-.16.31-.38.09-.51l-5.54-3.2a1,1,0,0,0-.88.05l-6.28,3.63c-.27.15-.31.38-.09.51Zm-18.36,10.61a1,1,0,0,0,.88-.06l6.28-3.62c.27-.16.31-.38.09-.51l-5.54-3.2a1,1,0,0,0-.88,0l-6.28,3.63c-.27.15-.31.38-.09.51ZM147,385.77a1,1,0,0,0-.88.05l-9.66,5.58c-.27.16-.31.38-.09.51l5.54,3.2a1,1,0,0,0,.88-.05l9.67-5.58c.26-.15.3-.38.08-.51Zm-7.38-40.68a.93.93,0,0,0,.87,0l6.29-3.62c.26-.16.3-.39.08-.51l-5.54-3.2a1,1,0,0,0-.88.05l-6.28,3.63c-.27.15-.3.38-.09.5Zm-9.19,5.3a1,1,0,0,0,.88-.05l6.28-3.62c.27-.16.31-.39.09-.51L132.1,343a1,1,0,0,0-.88.05l-6.28,3.63c-.27.15-.31.38-.09.5Zm186.66-62.82a1,1,0,0,0-.88.05l-15.46,8.93c-.27.15-.31.38-.09.51l5.54,3.2a1,1,0,0,0,.88-.05l15.46-8.93c.27-.16.31-.38.09-.51Zm-20.3,11.72a1,1,0,0,0-.87,0L289.59,303c-.26.15-.3.38-.08.5l5.54,3.2a1,1,0,0,0,.88-.05l6.28-3.62c.27-.16.3-.39.09-.51ZM172.21,368l6.28-3.63c.27-.15.31-.38.09-.51l-5.54-3.2a1,1,0,0,0-.88.06l-6.28,3.62c-.27.16-.31.38-.09.51l5.54,3.2A1,1,0,0,0,172.21,368Zm106.18-58.1a1,1,0,0,0-.88.05l-6.28,3.63c-.26.15-.3.38-.09.51l5.55,3.19a.93.93,0,0,0,.87,0l6.29-3.62c.26-.16.3-.38.08-.51Zm47.84-27.62a1,1,0,0,0-.88.05L319.07,286c-.27.15-.31.38-.09.51l5.54,3.2a1,1,0,0,0,.88-.05l6.28-3.63c.27-.16.31-.38.09-.51Zm14.72-2.1-14.25-8.23a1,1,0,0,0-.88.05l-6.28,3.63c-.27.15-.31.38-.09.5l14.25,8.24a1,1,0,0,0,.88-.05l6.28-3.63C341.13,280.52,341.17,280.3,341,280.17ZM244.09,329.7a1,1,0,0,0-.88.05l-7.73,4.46c-.27.16-.31.38-.09.51l5.54,3.2a1,1,0,0,0,.88-.05l7.73-4.47c.27-.15.31-.38.09-.5Zm23.19-13.39a1,1,0,0,0-.88.05l-9.66,5.58c-.27.15-.31.38-.09.5l5.54,3.2a1,1,0,0,0,.88-.05l9.66-5.58c.27-.15.31-.38.09-.5ZM222.82,342a1,1,0,0,0-.87,0l-51.71,29.85c-.26.16-.3.39-.08.51l5.54,3.2a1,1,0,0,0,.88-.05l51.7-29.85c.27-.15.3-.38.09-.51Zm-54.6,31.53a1,1,0,0,0-.88.05L159.61,378c-.27.16-.3.38-.09.51l5.55,3.2a1,1,0,0,0,.87-.05l7.74-4.47c.26-.15.3-.38.08-.5Zm65.23-37.66a.93.93,0,0,0-.87.05l-7.74,4.46c-.26.15-.3.38-.08.51l5.54,3.2a1,1,0,0,0,.88-.05l7.73-4.47c.27-.15.3-.38.09-.51Zm-75.86,43.79a1,1,0,0,0-.88.06L149,384.15c-.27.15-.3.38-.09.51l5.55,3.2a1,1,0,0,0,.87-.05l7.74-4.47c.26-.15.3-.38.08-.51Zm97.13-56.07a1,1,0,0,0-.88.05l-7.73,4.46c-.27.16-.31.39-.09.51l5.54,3.2a1,1,0,0,0,.88,0l7.73-4.46c.27-.16.31-.38.09-.51Zm32.85-19a1,1,0,0,0-.88.05l-6.28,3.63c-.26.15-.3.38-.08.5l5.54,3.2a1,1,0,0,0,.88-.05L293,308.3c.26-.16.3-.38.08-.51Zm19.94-14.72,6.28-3.62c.27-.16.3-.38.09-.51l-5.55-3.2a1,1,0,0,0-.87,0l-6.29,3.63c-.26.15-.3.38-.08.51l5.54,3.19A1,1,0,0,0,307.51,289.87Zm-37.73,1.66,6.29-3.63c.26-.15.3-.38.08-.51l-5.54-3.19a1,1,0,0,0-.88.05l-6.28,3.62c-.27.16-.3.38-.09.51l5.54,3.2A1,1,0,0,0,269.78,291.53Zm-24.12,34.05L264,315c.27-.15.3-.38.09-.51l-5.55-3.19a.93.93,0,0,0-.87.05l-18.37,10.6c-.26.15-.3.38-.08.51l5.54,3.19A1,1,0,0,0,245.66,325.58Zm51.79-30.35a1,1,0,0,0,.88-.05l6.28-3.63c.26-.16.3-.38.08-.51l-5.54-3.2a1,1,0,0,0-.87.05L292,291.52c-.26.15-.3.38-.08.51Zm-7.84-5.09,6.28-3.62c.27-.16.31-.38.09-.51l-5.54-3.2a1,1,0,0,0-.88.05l-6.28,3.63c-.27.15-.31.38-.09.51l5.54,3.19A1,1,0,0,0,289.61,290.14Zm-53.13,40.74,6.28-3.62c.26-.16.3-.38.08-.51l-5.54-3.2a1,1,0,0,0-.88.05l-6.28,3.63c-.26.15-.3.38-.08.51l5.54,3.19A1,1,0,0,0,236.48,330.88Zm40.67-23.94a1,1,0,0,0,.88-.05l6.28-3.62c.27-.16.31-.39.09-.51l-5.54-3.2a1,1,0,0,0-.88.05l-6.28,3.63c-.27.15-.31.38-.09.5Zm-86.58,50.45,6.28-3.63c.27-.15.31-.38.09-.51l-5.54-3.2a1,1,0,0,0-.88.05l-6.28,3.63c-.27.16-.31.38-.09.51l5.54,3.2A1,1,0,0,0,190.57,357.39Zm9.18-5.3,6.28-3.63c.27-.15.31-.38.09-.51l-5.54-3.2a1,1,0,0,0-.88.05l-6.28,3.63c-.27.15-.31.38-.09.51l5.54,3.2A1,1,0,0,0,199.75,352.09Zm-18.36,10.6,6.28-3.63c.27-.15.31-.38.09-.51l-5.54-3.2a1,1,0,0,0-.88,0L175.06,359c-.27.16-.31.38-.09.51l5.54,3.2A1,1,0,0,0,181.39,362.69Zm36.72-21.2,6.29-3.63c.26-.16.3-.38.08-.51l-5.54-3.2a1,1,0,0,0-.88.05l-6.28,3.63c-.27.15-.3.38-.09.51l5.54,3.2A1,1,0,0,0,218.11,341.49Zm-9.18,5.3,6.28-3.63c.27-.15.31-.38.09-.51l-5.54-3.2a1,1,0,0,0-.88.05l-6.28,3.63c-.27.15-.31.38-.09.51l5.54,3.2A1,1,0,0,0,208.93,346.79Zm18.36-10.61,6.29-3.62c.26-.16.3-.38.08-.51l-5.54-3.2a1,1,0,0,0-.88,0L221,332.53c-.26.15-.3.38-.08.51l5.54,3.2A1,1,0,0,0,227.29,336.18ZM278,262.81a1,1,0,0,0,.87-.05l6.29-3.63c.26-.15.3-.38.08-.5l-1.47-.86a1,1,0,0,0-.88.05l-6.28,3.63c-.27.16-.31.38-.09.51ZM232.22,291.6a1,1,0,0,0,.88-.05l6.28-3.62c.27-.16.31-.39.09-.51l-5.54-3.2a1,1,0,0,0-.88,0l-6.28,3.63c-.27.15-.31.38-.09.5ZM250.58,281a1,1,0,0,0,.88-.05l6.28-3.63c.27-.15.31-.38.09-.5l-5.54-3.2a1,1,0,0,0-.88.05l-6.28,3.63c-.27.15-.31.38-.09.5ZM221,298.08a1,1,0,0,0,.88-.06l6.28-3.62c.27-.16.31-.38.09-.51l-5.54-3.2a1,1,0,0,0-.88.05l-6.28,3.63c-.27.15-.31.38-.09.51ZM241.4,286.3a1,1,0,0,0,.88-.05l6.28-3.62c.27-.16.31-.39.09-.51l-5.54-3.2a1,1,0,0,0-.88.05L236,282.6c-.27.15-.31.38-.09.5Zm-38.75,22.38a1,1,0,0,0,.88-.05l6.28-3.63c.27-.15.31-.38.09-.51l-5.54-3.2a1,1,0,0,0-.88,0L197.2,305c-.27.15-.31.38-.09.51Zm9.18-5.3a1,1,0,0,0,.88-.05L219,299.7c.27-.16.31-.38.09-.51l-5.54-3.2a1,1,0,0,0-.88.05l-6.28,3.63c-.27.15-.31.38-.09.51Zm47.83-30a1,1,0,0,0,.88-.05l6.28-3.63c.27-.15.31-.38.09-.5l-1.47-.85a1,1,0,0,0-.88.05l-6.28,3.62c-.27.16-.31.38-.09.51Zm27.55-15.9a1,1,0,0,0,.88-.05l6.28-3.63c.26-.15.3-.38.08-.5l-1.47-.86a1,1,0,0,0-.88.05l-6.28,3.63c-.27.15-.31.38-.09.51Zm11.64,6.72a1,1,0,0,0,.88-.05l6.28-3.63c.26-.15.3-.38.09-.5l-5.55-3.2a1,1,0,0,0-.88,0l-6.28,3.62c-.26.16-.3.39-.08.51Zm17.84,20.34L323,281c.27-.16.31-.38.09-.51l-5.54-3.2a1,1,0,0,0-.88.05l-6.29,3.63c-.26.15-.3.38-.08.51l5.54,3.19A1,1,0,0,0,316.69,284.57Zm-47.85-16.46a1,1,0,0,0,.88-.05l6.29-3.63c.26-.15.3-.38.08-.5l-1.47-.86a1,1,0,0,0-.88.06l-6.28,3.62c-.27.16-.31.38-.09.51ZM193.47,314a1,1,0,0,0,.88-.05l6.28-3.63c.27-.15.31-.38.09-.51l-5.54-3.2a1,1,0,0,0-.88.05L188,310.27c-.26.15-.3.38-.08.51Z" style="opacity:0.1"></path><polygon points="221.58 361.39 222.87 362.13 257.08 381.88 317.92 346.75 319.18 346.03 283.68 325.54 221.58 361.39" style="opacity:0.4"></polygon><polygon points="222.87 362.13 257.08 381.88 317.92 346.75 283.68 327 222.87 362.13" style="fill:#7E57C2"></polygon><polygon points="222.87 362.13 257.08 381.88 317.92 346.75 283.68 327 222.87 362.13" style="opacity:0.45"></polygon><path d="M46.15,355a8.75,8.75,0,0,0,1.73.74,7.69,7.69,0,0,1-1.73-.73,4.51,4.51,0,0,1-.54-.35C45.78,354.77,46,354.88,46.15,355Z" style="fill:#7E57C2"></path><path d="M56,355.52s0,0,.09-.08l-.07.07Z" style="fill:#7E57C2"></path></g></g><g id="freepik--Windows--inject-28"><g id="freepik--Window--inject-28"><g id="freepik--window--inject-28"><path d="M309.64,60.88a1.34,1.34,0,0,0-.07-.4s0,0,0-.08a2,2,0,0,0-.1-.39,1.85,1.85,0,0,0-.26-.55.68.68,0,0,0-.14-.23.65.65,0,0,0-.13-.16,1.48,1.48,0,0,0-.28-.28l0,0a1.68,1.68,0,0,0-.37-.21,3.16,3.16,0,0,0-2.92.37l-220.52,127a9.62,9.62,0,0,0-4.34,7.52V352.8A3,3,0,0,0,82,355.42l.18.11.22.13a1.77,1.77,0,0,0,.37.12,2.16,2.16,0,0,0,.56.08,2.8,2.8,0,0,0,1.44-.42l.11-.06h0L89.06,353,305.33,228.4a9.59,9.59,0,0,0,4.34-7.52V61.42A4.75,4.75,0,0,0,309.64,60.88Z" style="fill:#455a64"></path><path d="M308.25,58.55a3.16,3.16,0,0,0-2.92.37l-220.52,127a9.62,9.62,0,0,0-4.34,7.52v14.17l-5.54-3.25V190.26a9.58,9.58,0,0,1,4.33-7.5l220.54-127a3,3,0,0,1,3.14-.26C303.73,56,307.33,58.06,308.25,58.55Z" style="fill:#7E57C2"></path><path d="M309.66,61.39c0-2.74-2-3.84-4.33-2.47L84.8,185.9a9.58,9.58,0,0,0-4.33,7.5v14.18l229.19-132Z" style="fill:#7E57C2"></path><path d="M305.33,58.92,84.81,185.9a8.74,8.74,0,0,0-3,3.21l-5.51-3.19a8.73,8.73,0,0,1,3-3.16l220.54-127a3,3,0,0,1,3.14-.25c.78.47,4.38,2.52,5.29,3A3.12,3.12,0,0,0,305.33,58.92Z" style="fill:#fff;opacity:0.5"></path><path d="M74.93,204.35V190.26a8.89,8.89,0,0,1,1.32-4.34l5.52,3.18a8.69,8.69,0,0,0-1.3,4.31v14.17Z" style="opacity:0.15"></path><path d="M284,77.46c-1.35.78-2.45,3.1-2.45,5.18s1.1,3.14,2.45,2.36,2.45-3.1,2.45-5.19S285.38,76.68,284,77.46Z" style="fill:#fafafa"></path><path d="M292.85,72.36c-1.35.78-2.45,3.1-2.45,5.18s1.1,3.14,2.45,2.36,2.45-3.1,2.45-5.19S294.2,71.58,292.85,72.36Z" style="fill:#fafafa"></path><path d="M301.66,67.26c-1.35.78-2.44,3.1-2.44,5.18s1.09,3.14,2.44,2.36,2.45-3.1,2.45-5.19S303,66.48,301.66,67.26Z" style="fill:#fafafa"></path><path d="M82,355.42l-.24-.13-4.57-2.64A4.58,4.58,0,0,1,75,349.29a4.44,4.44,0,0,1,0-.63V204.33l5.54,3.25V352.79a2.94,2.94,0,0,0,1.38,2.51Z" style="fill:#37474f"></path></g><g id="freepik--Code--inject-28"><path d="M106.93,204.26l63.42-36.82c.85-.49,1.54-.15,1.54.78a3.29,3.29,0,0,1-1.54,2.55L106.93,207.6c-.85.49-1.54.14-1.54-.78A3.31,3.31,0,0,1,106.93,204.26Z" style="fill:#7E57C2"></path><path d="M123.41,235.41l170.85-99.2c.85-.49,1.54-.14,1.54.78a3.32,3.32,0,0,1-1.54,2.56l-170.85,99.2c-.85.49-1.54.14-1.54-.78A3.32,3.32,0,0,1,123.41,235.41Z" style="fill:#7E57C2"></path><path d="M123.41,247l170.85-99.21c.85-.49,1.54-.14,1.54.78a3.31,3.31,0,0,1-1.54,2.56L123.41,250.3c-.85.49-1.54.14-1.54-.78A3.29,3.29,0,0,1,123.41,247Z" style="fill:#7E57C2"></path><path d="M176.32,164,295.2,95.44c.85-.49,1.54-.14,1.54.78a3.31,3.31,0,0,1-1.54,2.56L176.32,167.33c-.85.49-1.54.14-1.54-.78A3.31,3.31,0,0,1,176.32,164Z" style="fill:#7E57C2"></path><path d="M106.93,213.85l33.39-19.51c.85-.49,1.54-.15,1.54.78a3.29,3.29,0,0,1-1.54,2.55l-33.39,19.51c-.85.49-1.54.15-1.54-.78A3.29,3.29,0,0,1,106.93,213.85Z" style="fill:#7E57C2"></path><path d="M106.93,213.85l33.39-19.51c.85-.49,1.54-.15,1.54.78a3.29,3.29,0,0,1-1.54,2.55l-33.39,19.51c-.85.49-1.54.15-1.54-.78A3.29,3.29,0,0,1,106.93,213.85Z" style="fill:#fff;opacity:0.6000000000000001"></path><path d="M106.93,223.38,124.81,213c.85-.5,1.54-.15,1.54.77a3.29,3.29,0,0,1-1.54,2.56l-17.88,10.4c-.85.49-1.54.14-1.54-.78A3.29,3.29,0,0,1,106.93,223.38Z" style="fill:#7E57C2"></path><path d="M106.93,223.38,124.81,213c.85-.5,1.54-.15,1.54.77a3.29,3.29,0,0,1-1.54,2.56l-17.88,10.4c-.85.49-1.54.14-1.54-.78A3.29,3.29,0,0,1,106.93,223.38Z" style="fill:#fff;opacity:0.6000000000000001"></path><path d="M146.29,190.89l18.28-10.52c.85-.49,1.54-.14,1.54.78a3.31,3.31,0,0,1-1.54,2.56l-18.28,10.52c-.85.49-1.54.14-1.54-.78A3.29,3.29,0,0,1,146.29,190.89Z" style="fill:#7E57C2"></path><path d="M146.29,190.89l18.28-10.52c.85-.49,1.54-.14,1.54.78a3.31,3.31,0,0,1-1.54,2.56l-18.28,10.52c-.85.49-1.54.14-1.54-.78A3.29,3.29,0,0,1,146.29,190.89Z" style="fill:#fff;opacity:0.6000000000000001"></path><path d="M180,236.37,295.2,170c.85-.5,1.54-.15,1.54.77a3.29,3.29,0,0,1-1.54,2.56L180,239.71c-.85.49-1.54.14-1.54-.78A3.31,3.31,0,0,1,180,236.37Z" style="fill:#fff"></path><path d="M182.25,225.6l113-65.2c.85-.49,1.54-.14,1.54.78a3.31,3.31,0,0,1-1.54,2.56l-112.95,65.2c-.85.49-1.54.14-1.54-.78A3.31,3.31,0,0,1,182.25,225.6Z" style="fill:#fff"></path><path d="M134.62,253.49l41.66-24.44c.85-.49,1.54-.14,1.54.78a3.29,3.29,0,0,1-1.54,2.55l-41.66,24.45c-.85.49-1.54.14-1.54-.78A3.31,3.31,0,0,1,134.62,253.49Z" style="fill:#fff"></path><path d="M132.19,208.72l125.15-72.48c.85-.49,1.54-.14,1.54.78a3.31,3.31,0,0,1-1.54,2.56L132.19,212.06c-.85.49-1.54.14-1.54-.78A3.31,3.31,0,0,1,132.19,208.72Z" style="fill:#ebebeb"></path><path d="M264.08,132.39l30.21-17c.85-.49,1.54-.14,1.54.78a3.31,3.31,0,0,1-1.54,2.56l-30.21,17c-.85.49-1.54.14-1.54-.78A3.31,3.31,0,0,1,264.08,132.39Z" style="fill:#ebebeb"></path><path d="M117.28,228l46.16-27.21c.85-.49,1.54-.14,1.54.78a3.29,3.29,0,0,1-1.54,2.55l-46.16,27.21c-.85.49-1.54.14-1.54-.78A3.29,3.29,0,0,1,117.28,228Z" style="fill:#7E57C2"></path><path d="M117.28,228l46.16-27.21c.85-.49,1.54-.14,1.54.78a3.29,3.29,0,0,1-1.54,2.55l-46.16,27.21c-.85.49-1.54.14-1.54-.78A3.29,3.29,0,0,1,117.28,228Z" style="fill:#fff;opacity:0.6000000000000001"></path><path d="M169.41,197.3l124.88-71.69c.85-.49,1.54-.14,1.54.78a3.32,3.32,0,0,1-1.54,2.56L169.41,200.64c-.85.49-1.54.14-1.54-.78A3.31,3.31,0,0,1,169.41,197.3Z" style="fill:#7E57C2"></path><path d="M169.41,197.3l124.88-71.69c.85-.49,1.54-.14,1.54.78a3.32,3.32,0,0,1-1.54,2.56L169.41,200.64c-.85.49-1.54.14-1.54-.78A3.31,3.31,0,0,1,169.41,197.3Z" style="fill:#fff;opacity:0.6000000000000001"></path><path d="M117.28,282.9l177.92-103c.85-.49,1.54-.14,1.54.78a3.29,3.29,0,0,1-1.54,2.56L117.28,286.24c-.85.49-1.54.14-1.54-.78A3.31,3.31,0,0,1,117.28,282.9Z" style="fill:#ebebeb"></path><path d="M117.28,292.45l177.92-103c.85-.49,1.54-.14,1.54.78a3.31,3.31,0,0,1-1.54,2.56l-177.92,103c-.85.5-1.54.15-1.54-.77A3.29,3.29,0,0,1,117.28,292.45Z" style="fill:#ebebeb"></path><path d="M117.28,302,295.2,199c.85-.49,1.54-.14,1.54.78a3.31,3.31,0,0,1-1.54,2.56l-177.92,103c-.85.49-1.54.14-1.54-.78A3.29,3.29,0,0,1,117.28,302Z" style="fill:#ebebeb"></path><path d="M130.64,306.78l45.17-26.3c.85-.5,1.54-.15,1.54.77a3.29,3.29,0,0,1-1.54,2.56l-45.17,26.31c-.85.49-1.54.14-1.54-.78A3.31,3.31,0,0,1,130.64,306.78Z" style="fill:#7E57C2"></path><path d="M181.78,276.91,295.2,211.65c.85-.49,1.54-.14,1.54.78A3.29,3.29,0,0,1,295.2,215L181.78,280.25c-.85.49-1.54.14-1.54-.78A3.32,3.32,0,0,1,181.78,276.91Z" style="fill:#7E57C2"></path><path d="M108.31,319.56l14.25-8.24c.85-.49,1.54-.14,1.54.78a3.31,3.31,0,0,1-1.54,2.56l-14.25,8.24c-.85.49-1.54.14-1.54-.78A3.31,3.31,0,0,1,108.31,319.56Z" style="fill:#7E57C2"></path><path d="M108.31,319.56l14.25-8.24c.85-.49,1.54-.14,1.54.78a3.31,3.31,0,0,1-1.54,2.56l-14.25,8.24c-.85.49-1.54.14-1.54-.78A3.31,3.31,0,0,1,108.31,319.56Z" style="fill:#fff;opacity:0.6000000000000001"></path><path d="M108.31,328.19,122.56,320c.85-.49,1.54-.14,1.54.78a3.31,3.31,0,0,1-1.54,2.56l-14.25,8.24c-.85.49-1.54.14-1.54-.78A3.32,3.32,0,0,1,108.31,328.19Z" style="fill:#7E57C2"></path><path d="M108.31,328.19,122.56,320c.85-.49,1.54-.14,1.54.78a3.31,3.31,0,0,1-1.54,2.56l-14.25,8.24c-.85.49-1.54.14-1.54-.78A3.32,3.32,0,0,1,108.31,328.19Z" style="fill:#fff;opacity:0.6000000000000001"></path><path d="M130.69,315,295.2,220c.85-.49,1.54-.15,1.54.78a3.29,3.29,0,0,1-1.54,2.55L130.69,318.29c-.85.49-1.54.14-1.54-.78A3.32,3.32,0,0,1,130.69,315Z" style="fill:#fff"></path><path d="M89.88,334.07l8.38-4.84c.84-.48,1.52-.09,1.52.88v3.08a3.38,3.38,0,0,1-1.52,2.64l-8.38,4.84c-.84.48-1.52.09-1.52-.88v-3.08A3.39,3.39,0,0,1,89.88,334.07Z" style="fill:#e0e0e0"></path><path d="M89.88,297.32l8.38-4.84c.84-.48,1.52-.09,1.52.88v3.08a3.38,3.38,0,0,1-1.52,2.64l-8.38,4.83c-.84.49-1.52.1-1.52-.88V300A3.36,3.36,0,0,1,89.88,297.32Z" style="fill:#e0e0e0"></path><path d="M89.88,309.58l8.38-4.84c.84-.49,1.52-.09,1.52.88v3.08a3.35,3.35,0,0,1-1.52,2.63l-8.38,4.84c-.84.49-1.52.09-1.52-.88v-3.08A3.36,3.36,0,0,1,89.88,309.58Z" style="fill:#e0e0e0"></path><path d="M89.88,321.83,98.26,317c.84-.49,1.52-.1,1.52.87V321a3.36,3.36,0,0,1-1.52,2.64l-8.38,4.84c-.84.48-1.52.09-1.52-.88v-3.08A3.39,3.39,0,0,1,89.88,321.83Z" style="fill:#e0e0e0"></path><path d="M89.88,260.57l8.38-4.84c.84-.49,1.52-.09,1.52.88v3.08a3.35,3.35,0,0,1-1.52,2.63l-8.38,4.84c-.84.49-1.52.09-1.52-.88V263.2A3.36,3.36,0,0,1,89.88,260.57Z" style="fill:#e0e0e0"></path><path d="M89.88,272.82,98.26,268c.84-.48,1.52-.09,1.52.88v3.08a3.38,3.38,0,0,1-1.52,2.64l-8.38,4.84c-.84.48-1.52.09-1.52-.88v-3.08A3.39,3.39,0,0,1,89.88,272.82Z" style="fill:#e0e0e0"></path><path d="M89.88,285.08l8.38-4.84c.84-.48,1.52-.09,1.52.88v3.08a3.38,3.38,0,0,1-1.52,2.64l-8.38,4.83c-.84.49-1.52.1-1.52-.87v-3.08A3.39,3.39,0,0,1,89.88,285.08Z" style="fill:#e0e0e0"></path><path d="M89.88,223.81,98.26,219c.84-.48,1.52-.09,1.52.88v3.08a3.38,3.38,0,0,1-1.52,2.64l-8.38,4.84c-.84.48-1.52.09-1.52-.88v-3.08A3.39,3.39,0,0,1,89.88,223.81Z" style="fill:#e0e0e0"></path><path d="M89.88,236.07l8.38-4.84c.84-.48,1.52-.09,1.52.88v3.08a3.38,3.38,0,0,1-1.52,2.64l-8.38,4.83c-.84.49-1.52.1-1.52-.87v-3.08A3.39,3.39,0,0,1,89.88,236.07Z" style="fill:#e0e0e0"></path><path d="M89.88,248.33l8.38-4.84c.84-.49,1.52-.09,1.52.88v3.08a3.35,3.35,0,0,1-1.52,2.63l-8.38,4.84c-.84.49-1.52.09-1.52-.88V251A3.36,3.36,0,0,1,89.88,248.33Z" style="fill:#e0e0e0"></path><path d="M89.88,211.57l8.38-4.83c.84-.49,1.52-.1,1.52.87v3.08a3.35,3.35,0,0,1-1.52,2.64l-8.38,4.84c-.84.48-1.52.09-1.52-.88v-3.08A3.39,3.39,0,0,1,89.88,211.57Z" style="fill:#e0e0e0"></path></g></g><g id="freepik--window--inject-28"><path d="M373.85,86.87a1.76,1.76,0,0,0-.07-.4s0-.06,0-.09a1.91,1.91,0,0,0-.1-.38,2.37,2.37,0,0,0-.26-.56.74.74,0,0,0-.14-.22.51.51,0,0,0-.13-.16,1.24,1.24,0,0,0-.28-.28l0,0a2,2,0,0,0-.37-.22,3.16,3.16,0,0,0-2.92.37L149,211.88a9.59,9.59,0,0,0-4.33,7.51v159.4a3,3,0,0,0,1.56,2.62,1.08,1.08,0,0,1,.18.11l.23.12a1.63,1.63,0,0,0,.37.13,2.68,2.68,0,0,0,.56.07,2.73,2.73,0,0,0,1.43-.41l.12-.07h0l4.13-2.39L369.54,254.38a9.57,9.57,0,0,0,4.34-7.51V87.41A4.63,4.63,0,0,0,373.85,86.87Z" style="fill:#fafafa"></path><path d="M372.46,84.53a3.16,3.16,0,0,0-2.92.37L149,211.88a9.59,9.59,0,0,0-4.33,7.51v14.17l-5.54-3.24V216.25a9.58,9.58,0,0,1,4.33-7.5L364,81.77a3,3,0,0,1,3.14-.25C367.93,82,371.53,84.05,372.46,84.53Z" style="fill:#7E57C2"></path><path d="M373.87,87.38c0-2.74-1.95-3.85-4.33-2.47L149,211.88a9.61,9.61,0,0,0-4.33,7.51v14.18l229.19-132Z" style="fill:#7E57C2"></path><path d="M369.54,84.91,149,211.88A9,9,0,0,0,146,215.1l-5.5-3.19a8.5,8.5,0,0,1,3-3.16L364,81.77a3.07,3.07,0,0,1,3.15-.26c.78.48,4.38,2.53,5.29,3A3.12,3.12,0,0,0,369.54,84.91Z" style="fill:#fff;opacity:0.5"></path><path d="M139.13,230.34v-14.1a8.89,8.89,0,0,1,1.32-4.33l5.52,3.18a8.69,8.69,0,0,0-1.3,4.3v14.18Z" style="opacity:0.15"></path><path d="M348.24,103.44c-1.35.78-2.45,3.11-2.45,5.19s1.1,3.14,2.45,2.35,2.45-3.1,2.45-5.18S349.59,102.66,348.24,103.44Z" style="fill:#fafafa"></path><path d="M357.06,98.34c-1.36.79-2.45,3.11-2.45,5.19s1.09,3.14,2.45,2.36,2.44-3.11,2.44-5.19S358.41,97.56,357.06,98.34Z" style="fill:#fafafa"></path><path d="M365.87,93.24c-1.35.79-2.45,3.11-2.45,5.19s1.1,3.14,2.45,2.36,2.45-3.11,2.45-5.19S367.22,92.46,365.87,93.24Z" style="fill:#fafafa"></path><path d="M146.25,381.41l-.24-.13-4.57-2.64a4.55,4.55,0,0,1-2.26-3.36,4.46,4.46,0,0,1-.05-.63V230.32l5.54,3.25V378.78a3,3,0,0,0,1.39,2.51A1.25,1.25,0,0,1,146.25,381.41Z" style="fill:#e0e0e0"></path></g><g id="freepik--version-control--inject-28"><path d="M185.55,267.79V255.22c0-8.16,5.82-18.12,13-22.25l51.15-29.34c7.19-4.13,13-.92,13,7.16v12.42" style="fill:none;stroke:#455a64;stroke-linecap:round;stroke-linejoin:round"></path><line x1="165.24" y1="279.52" x2="352.09" y2="171.62" style="fill:none;stroke:#455a64;stroke-linecap:round;stroke-linejoin:round"></line><path d="M283,211.5V198.32c0-7.8,5.82-17.47,13-21.61l56.06-32.29" style="fill:none;stroke:#455a64;stroke-linecap:round;stroke-linejoin:round"></path><path d="M205.86,256.06V270.6c0,8,5.81,11.17,13,7l69.06-39.88c7.18-4.14,13-14,13-22V201.18" style="fill:none;stroke:#455a64;stroke-linecap:round;stroke-linejoin:round"></path><path d="M305.3,198.64v14.54c0,8,5.82,11.18,13,7L352,200.78" style="fill:none;stroke:#455a64;stroke-linecap:round;stroke-linejoin:round"></path><path d="M165.24,273.87c2.69-1.55,4.87-.29,4.87,2.82a10.79,10.79,0,0,1-4.87,8.44c-2.69,1.55-4.88.29-4.88-2.82A10.8,10.8,0,0,1,165.24,273.87Z" style="fill:#7E57C2"></path><path d="M352.09,166c2.69-1.55,4.88-.29,4.88,2.82a10.8,10.8,0,0,1-4.88,8.44c-2.69,1.55-4.87.29-4.87-2.82A10.79,10.79,0,0,1,352.09,166Z" style="fill:#fff;opacity:0.5"></path><path d="M224.14,212.67c2.69-1.56,4.87-.3,4.87,2.81a10.76,10.76,0,0,1-4.87,8.44c-2.7,1.56-4.88.3-4.88-2.81A10.75,10.75,0,0,1,224.14,212.67Z" style="fill:#7E57C2"></path><path d="M185.55,262.15c2.69-1.56,4.87-.3,4.87,2.81a10.76,10.76,0,0,1-4.87,8.44c-2.69,1.56-4.88.3-4.88-2.81A10.77,10.77,0,0,1,185.55,262.15Z" style="fill:#7E57C2"></path><path d="M262.73,217.59c2.69-1.56,4.87-.3,4.87,2.81a10.76,10.76,0,0,1-4.87,8.44c-2.7,1.56-4.88.3-4.88-2.81A10.75,10.75,0,0,1,262.73,217.59Z" style="fill:#7E57C2"></path><g style="opacity:0.35000000000000003"><path d="M224.14,212.67c2.69-1.56,4.87-.3,4.87,2.81a10.76,10.76,0,0,1-4.87,8.44c-2.7,1.56-4.88.3-4.88-2.81A10.75,10.75,0,0,1,224.14,212.67Z"></path><path d="M185.55,262.15c2.69-1.56,4.87-.3,4.87,2.81a10.76,10.76,0,0,1-4.87,8.44c-2.69,1.56-4.88.3-4.88-2.81A10.77,10.77,0,0,1,185.55,262.15Z"></path><path d="M262.73,217.59c2.69-1.56,4.87-.3,4.87,2.81a10.76,10.76,0,0,1-4.87,8.44c-2.7,1.56-4.88.3-4.88-2.81A10.75,10.75,0,0,1,262.73,217.59Z"></path></g><path d="M283,205.86c2.69-1.55,4.87-.29,4.87,2.81a10.79,10.79,0,0,1-4.87,8.45c-2.7,1.55-4.88.29-4.88-2.82A10.75,10.75,0,0,1,283,205.86Z" style="fill:#7E57C2"></path><path d="M303.35,166.93c2.69-1.55,4.87-.29,4.87,2.82a10.76,10.76,0,0,1-4.87,8.44c-2.7,1.56-4.88.3-4.88-2.81A10.78,10.78,0,0,1,303.35,166.93Z" style="fill:#7E57C2"></path><path d="M327.72,152.86c2.69-1.55,4.87-.29,4.87,2.82a10.76,10.76,0,0,1-4.87,8.44c-2.69,1.55-4.88.29-4.88-2.81A10.81,10.81,0,0,1,327.72,152.86Z" style="fill:#7E57C2"></path><path d="M352.09,138.79c2.69-1.55,4.88-.29,4.88,2.82a10.8,10.8,0,0,1-4.88,8.44c-2.69,1.55-4.87.29-4.87-2.82A10.79,10.79,0,0,1,352.09,138.79Z" style="fill:#7E57C2"></path><g style="opacity:0.15"><path d="M283,205.86c2.69-1.55,4.87-.29,4.87,2.81a10.79,10.79,0,0,1-4.87,8.45c-2.7,1.55-4.88.29-4.88-2.82A10.75,10.75,0,0,1,283,205.86Z"></path><path d="M303.35,166.93c2.69-1.55,4.87-.29,4.87,2.82a10.76,10.76,0,0,1-4.87,8.44c-2.7,1.56-4.88.3-4.88-2.81A10.78,10.78,0,0,1,303.35,166.93Z"></path><path d="M327.72,152.86c2.69-1.55,4.87-.29,4.87,2.82a10.76,10.76,0,0,1-4.87,8.44c-2.69,1.55-4.88.29-4.88-2.81A10.81,10.81,0,0,1,327.72,152.86Z"></path><path d="M352.09,138.79c2.69-1.55,4.88-.29,4.88,2.82a10.8,10.8,0,0,1-4.88,8.44c-2.69,1.55-4.87.29-4.87-2.82A10.79,10.79,0,0,1,352.09,138.79Z"></path></g><path d="M205.86,250.42c2.69-1.56,4.87-.3,4.87,2.81a10.79,10.79,0,0,1-4.87,8.45c-2.69,1.55-4.88.29-4.88-2.82A10.77,10.77,0,0,1,205.86,250.42Z" style="fill:#7E57C2"></path><path d="M254.6,251.36c2.69-1.56,4.88-.3,4.88,2.81a10.77,10.77,0,0,1-4.88,8.44c-2.69,1.56-4.87.3-4.87-2.81A10.76,10.76,0,0,1,254.6,251.36Z" style="fill:#7E57C2"></path><path d="M303.44,194.17c2.7-1.56,4.88-.3,4.88,2.81a10.78,10.78,0,0,1-4.88,8.45c-2.69,1.55-4.87.29-4.87-2.82A10.76,10.76,0,0,1,303.44,194.17Z" style="fill:#7E57C2"></path><path d="M352.09,195.15c2.69-1.56,4.88-.3,4.88,2.81a10.81,10.81,0,0,1-4.88,8.45c-2.69,1.55-4.87.29-4.87-2.82A10.76,10.76,0,0,1,352.09,195.15Z" style="fill:#7E57C2"></path><path d="M327.72,209.22c2.69-1.55,4.87-.29,4.87,2.81a10.79,10.79,0,0,1-4.87,8.45c-2.69,1.55-4.88.29-4.88-2.82A10.77,10.77,0,0,1,327.72,209.22Z" style="fill:#7E57C2"></path><g style="opacity:0.5"><path d="M205.86,250.42c2.69-1.56,4.87-.3,4.87,2.81a10.79,10.79,0,0,1-4.87,8.45c-2.69,1.55-4.88.29-4.88-2.82A10.77,10.77,0,0,1,205.86,250.42Z" style="fill:#fff;opacity:0.5"></path><path d="M254.6,251.36c2.69-1.56,4.88-.3,4.88,2.81a10.77,10.77,0,0,1-4.88,8.44c-2.69,1.56-4.87.3-4.87-2.81A10.76,10.76,0,0,1,254.6,251.36Z" style="fill:#fff;opacity:0.5"></path><path d="M303.44,194.17c2.7-1.56,4.88-.3,4.88,2.81a10.78,10.78,0,0,1-4.88,8.45c-2.69,1.55-4.87.29-4.87-2.82A10.76,10.76,0,0,1,303.44,194.17Z" style="fill:#fff;opacity:0.5"></path><path d="M352.09,195.15c2.69-1.56,4.88-.3,4.88,2.81a10.81,10.81,0,0,1-4.88,8.45c-2.69,1.55-4.87.29-4.87-2.82A10.76,10.76,0,0,1,352.09,195.15Z" style="fill:#fff;opacity:0.5"></path><path d="M327.72,209.22c2.69-1.55,4.87-.29,4.87,2.81a10.79,10.79,0,0,1-4.87,8.45c-2.69,1.55-4.88.29-4.88-2.82A10.77,10.77,0,0,1,327.72,209.22Z" style="fill:#fff;opacity:0.5"></path></g><path d="M161.18,348.87v-5.55a2.4,2.4,0,0,1,1.08-1.88l14.08-8.13c.6-.34,1.08-.06,1.08.63v5.55a2.4,2.4,0,0,1-1.08,1.88l-14.08,8.13C161.66,349.84,161.18,349.56,161.18,348.87Z" style="fill:#7E57C2"></path><path d="M182.57,333.08l18.14-10.47c.6-.35,1.09-.1,1.09.54a2.32,2.32,0,0,1-1.09,1.8l-18.14,10.48c-.6.34-1.08.1-1.08-.55A2.32,2.32,0,0,1,182.57,333.08Z" style="fill:#e0e0e0"></path><path d="M214,318.39v-5.56a2.41,2.41,0,0,1,1.09-1.88l14.08-8.13c.6-.34,1.08-.06,1.08.63V309a2.39,2.39,0,0,1-1.08,1.88L215.07,319C214.47,319.36,214,319.08,214,318.39Z" style="fill:#7E57C2"></path><path d="M214,318.39v-5.56a2.41,2.41,0,0,1,1.09-1.88l14.08-8.13c.6-.34,1.08-.06,1.08.63V309a2.39,2.39,0,0,1-1.08,1.88L215.07,319C214.47,319.36,214,319.08,214,318.39Z" style="opacity:0.35000000000000003"></path><path d="M235.38,302.59l18.14-10.47c.6-.35,1.08-.1,1.08.55a2.3,2.3,0,0,1-1.08,1.79l-18.14,10.48c-.6.34-1.09.1-1.09-.55A2.33,2.33,0,0,1,235.38,302.59Z" style="fill:#e0e0e0"></path><path d="M266.79,287.9v-5.56a2.37,2.37,0,0,1,1.08-1.87L282,272.34c.6-.35,1.09-.07,1.09.62v5.56a2.38,2.38,0,0,1-1.09,1.87l-14.08,8.13C267.27,288.87,266.79,288.59,266.79,287.9Z" style="fill:#7E57C2"></path><path d="M266.79,287.9v-5.56a2.37,2.37,0,0,1,1.08-1.87L282,272.34c.6-.35,1.09-.07,1.09.62v5.56a2.38,2.38,0,0,1-1.09,1.87l-14.08,8.13C267.27,288.87,266.79,288.59,266.79,287.9Z" style="fill:#fff;opacity:0.5"></path><path d="M288.18,272.11l18.15-10.48c.59-.34,1.08-.1,1.08.55a2.35,2.35,0,0,1-1.08,1.8l-18.15,10.47c-.6.35-1.08.1-1.08-.55A2.3,2.3,0,0,1,288.18,272.11Z" style="fill:#e0e0e0"></path><path d="M319.6,257.41v-5.56a2.37,2.37,0,0,1,1.08-1.87l14.08-8.13c.6-.35,1.08-.07,1.08.62V248a2.37,2.37,0,0,1-1.08,1.87L320.68,258C320.08,258.38,319.6,258.1,319.6,257.41Z" style="fill:#7E57C2"></path><path d="M319.6,257.41v-5.56a2.37,2.37,0,0,1,1.08-1.87l14.08-8.13c.6-.35,1.08-.07,1.08.62V248a2.37,2.37,0,0,1-1.08,1.87L320.68,258C320.08,258.38,319.6,258.1,319.6,257.41Z" style="fill:#fff;opacity:0.5"></path><path d="M341,241.62l18.14-10.48c.6-.34,1.09-.1,1.09.55a2.33,2.33,0,0,1-1.09,1.8L341,244c-.6.35-1.08.1-1.08-.54A2.31,2.31,0,0,1,341,241.62Z" style="fill:#e0e0e0"></path></g></g><g id="freepik--speech-bubbles--inject-28"><g id="freepik--speech-bubble--inject-28"><g id="freepik--speech-bubble--inject-28"><path d="M435.74,151,403.2,169.79a2.57,2.57,0,0,0-1.16,2v39.76a2.52,2.52,0,0,0,1.17,2l4.62,2.63a2.62,2.62,0,0,0,2.33,0l32.53-18.82a2.6,2.6,0,0,0,1.16-2V155.58a2.53,2.53,0,0,0-1.16-2L438.07,151A2.62,2.62,0,0,0,435.74,151Z" style="fill:#f28f8f"></path><path d="M410.16,216.18a2.68,2.68,0,0,1-2.33,0l-4.62-2.63a2.52,2.52,0,0,1-1.17-2V171.8a2.36,2.36,0,0,1,.37-1.19l6.93,4c-.22.36-.35.77-.35.14V214.5C409,216.18,409.47,216.57,410.16,216.18Z" style="fill:#f28f8f"></path><path d="M443.84,155.37c-.09-.58-.57-.79-1.15-.46l-32.53,18.82a2.38,2.38,0,0,0-.82.87l-6.94-4a2.25,2.25,0,0,1,.8-.82L435.74,151a2.62,2.62,0,0,1,2.33,0l4.61,2.63A2.55,2.55,0,0,1,443.84,155.37Z" style="fill:#fff;opacity:0.5"></path><path d="M398.86,201.29c-.73-.44-6.29-3.57-6.47-3.68a1.07,1.07,0,0,1-.23-1.65L402,184.63l6.95,4-10.33,11A1.1,1.1,0,0,0,398.86,201.29Z" style="fill:#ffa8a7"></path><path d="M398.86,201.29c-.73-.44-6.29-3.57-6.47-3.68a1.07,1.07,0,0,1-.23-1.65L402,184.63l6.95,4-10.33,11A1.1,1.1,0,0,0,398.86,201.29Z" style="fill:#fff;opacity:0.5"></path><path d="M442.69,154.91l-32.53,18.82a2.57,2.57,0,0,0-1.16,2v12.88l-10.34,11a1,1,0,0,0,.66,1.78l9.67-.71h0v14.78c0,.74.52,1,1.16.67l32.53-18.82a2.6,2.6,0,0,0,1.16-2V155.58C443.85,154.84,443.33,154.54,442.69,154.91Z" style="fill:#ffa8a7"></path></g><path id="freepik--X--inject-28" d="M436.25,190.21l-6.62-5,6.89-13.15a2.5,2.5,0,0,0-4.43-2.32l-6.5,12.42-5.95-4.5a2.5,2.5,0,1,0-3,4l6.62,5-6.6,12.59a2.51,2.51,0,0,0,1.06,3.38,2.54,2.54,0,0,0,1.16.28,2.47,2.47,0,0,0,2.21-1.34l6.21-11.86,6,4.5a2.44,2.44,0,0,0,1.51.51,2.5,2.5,0,0,0,1.51-4.49Z" style="fill:#fafafa"></path></g><g id="freepik--speech-bubble--inject-28"><g id="freepik--speech-bubble--inject-28"><path d="M410.16,155.6a2.65,2.65,0,0,1-2.33,0L403.21,153c-.65-.36-1.17-1.26-1.17-1V112.23a3.82,3.82,0,0,1,.37-2.19l6.93,4a3.76,3.76,0,0,0-.35,2.14v39.76C409,155.61,409.47,156,410.16,155.6Z" style="fill:#263238"></path><path d="M443.84,94.8c-.09-.59-.57-.8-1.15-.46l-32.53,18.82a2.38,2.38,0,0,0-.82.87l-6.94-4a2.36,2.36,0,0,1,.8-.83l32.54-18.82a2.62,2.62,0,0,1,2.33,0L442.68,93A2.55,2.55,0,0,1,443.84,94.8Z" style="fill:#455a64"></path><path d="M398.86,140.71c-.73-.43-6.29-3.56-6.47-3.67a1.07,1.07,0,0,1-.23-1.65L402,124.06l6.95,4-10.33,11A1.09,1.09,0,0,0,398.86,140.71Z" style="fill:#455a64"></path><path d="M442.69,94.34l-32.53,18.82a2.57,2.57,0,0,0-1.16,2v12.88l-10.34,11a1,1,0,0,0,.66,1.78l9.67-.7h0v14.77c0,.75.52,1,1.16.67l32.53-18.82a2.57,2.57,0,0,0,1.16-2V95C443.85,94.27,443.33,94,442.69,94.34Z" style="fill:#37474f"></path></g><path id="freepik--Bug--inject-28" d="M438.42,122.39l-.77-5.69a.67.67,0,0,0-.42-.55.75.75,0,0,0-.26-.05.67.67,0,0,0-.42.16l-1.92,1.54a8.83,8.83,0,0,0-1.16-2.71v0h0l1-2.34,1.27-4.45a.67.67,0,0,0-.47-.85.57.57,0,0,0-.18,0,.69.69,0,0,0-.66.5l-1.24,4.33-.73,1.73a4.94,4.94,0,0,0-.64-.49,4.34,4.34,0,0,0-2.19-.65l1.16-4.49a.7.7,0,0,0-.49-.84l-.17,0a.69.69,0,0,0-.67.51l-1.29,5a7.05,7.05,0,0,0-1.52.6,7.59,7.59,0,0,0-1.06.68l-.83-3.06a.68.68,0,0,0-.66-.5.55.55,0,0,0-.18,0,.68.68,0,0,0-.48.84l1,3.66a18.31,18.31,0,0,0-3.52,4.82l-.3-.48-1-3A.69.69,0,0,0,419,116a.64.64,0,0,0-.2,0,.7.7,0,0,0-.45.86l1,3.23.87,1.33a25.65,25.65,0,0,0-1.59,5l-.15,0-2.39.63a.69.69,0,0,0-.5.55l-1.15,6.71a.69.69,0,0,0,.56.79h.12a.68.68,0,0,0,.67-.57l1.08-6.28,1.51-.39a21,21,0,0,0-.22,2.48,15,15,0,0,0,.6,5,.8.8,0,0,0-.17.15l-2.21,2.68a.69.69,0,0,0-.09.74l2.13,4.32a.69.69,0,0,0,.62.38.63.63,0,0,0,.3-.07.68.68,0,0,0,.31-.92l-1.93-3.92,1.62-2a5.82,5.82,0,0,0,2,2.3,4.36,4.36,0,0,0,2.34.66,5.93,5.93,0,0,0,2.83-.78l0,0h0c3-1.65,5.72-5.64,7.22-10.18l.08,0,1.68.28-2.2,6a.69.69,0,0,0,.41.88.93.93,0,0,0,.24,0,.69.69,0,0,0,.64-.45l2.48-6.8a.66.66,0,0,0-.06-.58.64.64,0,0,0-.48-.33l-2.4-.4a22.91,22.91,0,0,0,.83-5.34,17.3,17.3,0,0,0-.13-2.84l.06,0,1.48-1.19.6,4.48a.69.69,0,0,0,.68.59h.09a.71.71,0,0,0,.59-.77Zm-11.11-7.61a4.62,4.62,0,0,1,2.18-.62,3,3,0,0,1,1.61.46,3.59,3.59,0,0,1,.77.64,14.29,14.29,0,0,1-5.45,6.15,5.27,5.27,0,0,1-2.45.7,3.06,3.06,0,0,1-2.13-.83C423.26,118.32,425.21,115.91,427.31,114.78Zm-7.77,15.71a23.42,23.42,0,0,1,1.72-7.9,4.31,4.31,0,0,0,2.68.9,6.08,6.08,0,0,0,2.08-.4L425.56,138a4.45,4.45,0,0,1-1.83.44,3,3,0,0,1-1.62-.46C420.39,136.91,419.42,134.11,419.54,130.49Zm7.42,6.65.45-14.72a15.49,15.49,0,0,0,5.33-5.85,12.18,12.18,0,0,1,.94,5.55C433.5,128,430.57,134.41,427,137.14Z" style="fill:#7E57C2"></path></g><g id="freepik--speech-bubble--inject-28"><g id="freepik--speech-bubble--inject-28"><path d="M435.74,29.82,403.2,48.64c-.64.37-1.16,1.27-1.16,3V91.42c0-.26.52.63,1.17,1l4.62,2.63a2.62,2.62,0,0,0,2.33,0l32.53-18.82a2.57,2.57,0,0,0,1.16-2V34.44a2.53,2.53,0,0,0-1.16-2l-4.62-2.63A2.62,2.62,0,0,0,435.74,29.82Z" style="fill:#7E57C2"></path><path d="M410.16,95a2.68,2.68,0,0,1-2.33,0l-4.62-2.63c-.65-.36-1.17-1.26-1.17-1V51.65a3.78,3.78,0,0,1,.37-2.18l6.93,4c-.22.36-.35.77-.35.14V93.36C409,95,409.47,95.43,410.16,95Z" style="opacity:0.2"></path><path d="M443.84,34.23c-.09-.59-.57-.8-1.15-.46L410.16,52.59a2.38,2.38,0,0,0-.82.87l-6.94-4a2.36,2.36,0,0,1,.8-.83l32.54-18.82a2.62,2.62,0,0,1,2.33,0l4.61,2.63A2.55,2.55,0,0,1,443.84,34.23Z" style="fill:#fff;opacity:0.5"></path><path d="M398.86,80.14c-.73-.43-6.29-3.57-6.47-3.67a1.08,1.08,0,0,1-.23-1.66L402,63.49l6.95,4-10.33,11A1.1,1.1,0,0,0,398.86,80.14Z" style="fill:#7E57C2"></path><path d="M398.86,80.14c-.73-.43-6.29-3.57-6.47-3.67a1.08,1.08,0,0,1-.23-1.66L402,63.49l6.95,4-10.33,11A1.1,1.1,0,0,0,398.86,80.14Z" style="fill:#fff;opacity:0.5"></path><path d="M442.69,33.77,410.16,52.59a2.57,2.57,0,0,0-1.16,2V67.48l-10.34,11a1,1,0,0,0,.66,1.78l9.67-.7h0V94.36c0,.74.52,1,1.16.67l32.53-18.82a2.57,2.57,0,0,0,1.16-2V34.44C443.85,33.7,443.33,33.4,442.69,33.77Z" style="fill:#7E57C2"></path></g><path id="freepik--Check--inject-28" d="M436.66,44.87a2.91,2.91,0,0,0-3.79,1.55L422,72.41l-2.61-2.53a2.89,2.89,0,0,0-4,4.14L421,79.51a2.88,2.88,0,0,0,4.67-1L438.2,48.66A2.9,2.9,0,0,0,436.66,44.87Z" style="fill:#fafafa"></path></g></g><g id="freepik--Character--inject-28"><g id="freepik--character--inject-28"><path d="M338.05,261.43c5.26.81,8.46,3.8,8.62,7.95s-6.39,20.05-6.39,20.05c7.23,6.55,12.19,10.89,15.72,13.4,2.79,2,10.38,11.14,10.15,13s-3.28-1.92-5.26-3.85-5.79-2.27-10.05-4.32-18.41-9.16-20.25-11.71S338.05,261.43,338.05,261.43Z" style="fill:#ffa8a7"></path><path d="M337.57,261.33a12.25,12.25,0,0,1,4.52,1.07A8.38,8.38,0,0,1,346.8,268c.38,2.31-.52,6.16-2.14,10.35a93.39,93.39,0,0,1-4.06,8.81l-3-2.43Z" style="fill:#37474f"></path><path d="M365,388c-.83,0-.88.91-1,2.87a14.08,14.08,0,0,0,.1,6.29c1.86,3.3,4.26,3.29,6.57,6.67,1.84,2.71,4.54,6.19,10.11,6.81,6.81.75,9.82-3.21,8.08-4.9-1.92-1.86-6.66-4.32-12.06-11.44C374.1,390.71,365,388,365,388Z" style="fill:#455a64"></path><path d="M370.91,378s1.9,7.88,3.72,11.55A61,61,0,0,0,382,400.12c.59.73,1.91,2.12,2.43,2.67,1.15,1.23.16,1.88-1,2-2.77.37-5.4-.54-8.31-2.86-3.35-2.67-4.62-4.71-7.49-7.8a13.35,13.35,0,0,1-2.32-3.19,4.77,4.77,0,0,1-.34-2.42,8.22,8.22,0,0,0-.34-2.58,19.08,19.08,0,0,0-.78-2.54c-.32-.95-1.73-3.19-2.17-4.08Z" style="fill:#ffa8a7"></path><path d="M311.54,305.44c-1,5.79-2.08,9.33-.41,15.29s4.94,9.81,15.21,14.79c7,3.39,19.59,9.23,21.61,10.08s2.25,2.06,2,5.88,1.21,10,5.59,17.8c4.63,8.18,7.2,12.22,7.2,12.22a14.55,14.55,0,0,0,8.45-2.32s-7.34-36.39-9.13-41.35-20.84-20.77-20.84-20.77,1.87-7.94,3.25-13.72Z" style="fill:#37474f"></path><path d="M384.53,378.6c-.83,0-.83,1-.89,2.92a14.09,14.09,0,0,0,.4,6.27c2,3.21,4.41,3.09,6.87,6.36,2,2.62,4.84,6,10.42,6.32,6.85.43,9.67-3.67,7.85-5.27-2-1.77-6.86-4-12.59-10.87C393.73,380.92,384.53,378.6,384.53,378.6Z" style="fill:#455a64"></path><path d="M389.08,364.06s3.38,12,5.36,15.55a59.65,59.65,0,0,0,7.64,10.33c.62.7,2,2,2.55,2.56,1.21,1.17.25,1.86-.93,2.08-2.75.5-5.42-.29-8.43-2.46-3.48-2.51-4.84-4.49-7.86-7.44A13.36,13.36,0,0,1,385,381.6a4.76,4.76,0,0,1-.46-2.4,7.91,7.91,0,0,0-.12-2.61,17.33,17.33,0,0,0-.78-2.54,22.44,22.44,0,0,0-1.25-2.73Z" style="fill:#ffa8a7"></path><path d="M331.05,294c-1,5.79-1.35,9.07.69,14.91s6.78,15.14,14.95,19.71c6.77,3.79,17,7.65,19,8.54,1.55.69,2.07,2.37,2.72,6.56.6,3.79,2.43,7.92,6.81,15.67,4.63,8.18,8.22,14.35,8.22,14.35,1.84.34,6.56-.65,7.86-2.31,0,0-9.78-38.17-11.56-43.12S365,316,359.49,312.82s-8.65-5.19-15-9.48Z" style="fill:#37474f"></path><path d="M345.35,311.88a45,45,0,0,1-4.1,5.18l1.17,1A16.44,16.44,0,0,0,345.35,311.88Z" style="fill:#37474f"></path><path d="M323.47,261.82a35.47,35.47,0,0,0-6.8,1s4.06,4.81,1.45,13.35c-1.85,6.05-3.33,6.31-6.79,7.46,2.38,10.27-.2,24.24-.2,24.24s6.63,5.35,20.76,4.07c12.41-1.13,12.61-8.62,12.61-8.62l-4.33-4.86.6-9.44s4.6-3.26,4.36-10.72c-.28-8.6-7.24-17-7.24-17a20.23,20.23,0,0,0-4.37-.18Z" style="fill:#7E57C2"></path><path d="M323.47,261.82a35.47,35.47,0,0,0-6.8,1s4.06,4.81,1.45,13.35c-1.85,6.05-3.33,6.31-6.79,7.46,2.38,10.27-.2,24.24-.2,24.24s6.63,5.35,20.76,4.07c12.41-1.13,12.61-8.62,12.61-8.62l-4.33-4.86.6-9.44s4.6-3.26,4.36-10.72c-.28-8.6-7.24-17-7.24-17a20.23,20.23,0,0,0-4.37-.18Z" style="fill:#fff;opacity:0.5"></path><path d="M341.55,308.55c-6.41,1.11-15.56-.25-18.73-3.52s-5.88-10.64-4.93-15.29c1.16-5.63,2.69-13.24,1.76-18.28l-.55-.19a24.41,24.41,0,0,1-1,4.92c-1.85,6.05-3.33,6.31-6.79,7.46,2.17,10-.2,24.24-.2,24.24s6.63,5.35,20.76,4.07c4-.37,7.4-1.46,9.66-3.41Z" style="opacity:0.1"></path><path d="M335.33,225a19.18,19.18,0,0,0-2.51-.22,17.69,17.69,0,0,0-9.16,2.52,14.58,14.58,0,0,0-7.39,12.64c.21,7.8,3.85,11.47,7,16.83h6a26.29,26.29,0,0,1,3.55,0,7.13,7.13,0,0,0,4.63-1.18,9.9,9.9,0,0,0,4.23-5,7.18,7.18,0,0,1,1.46-3,9.38,9.38,0,0,1,2.55-1.22,6.05,6.05,0,0,0,3.31-6.48,3.5,3.5,0,0,0-.65-6.82,8.63,8.63,0,0,0,1.11-2.73,3.53,3.53,0,0,0-.57-2.82c-.83-1.06-2.29-1.34-3.62-1.52-2.31-.31-4.63-.51-6.95-.68C337.26,225.29,336.29,225.13,335.33,225Z" style="fill:#263238"></path><path d="M344.52,236c1.64,1.36,3.24,4.61,1.5,14.09-1.48,8-4.42,9.61-5.82,10s-3.88-.39-6.28-1.19l-.58,3.33s3.05,7.56,1.91,11.24c-.66,2.16-5.26-1.09-8.09-3.77a26.3,26.3,0,0,1-4.86-7.29l2-12a2.41,2.41,0,0,1-3-.51c-1.76-1.6-2.05-5.08-.22-6.43s4.44-.84,4.67,1.85c0,0,.51-4.1,6.68-5.18C337,239.29,342.13,239.7,344.52,236Z" style="fill:#ffa8a7"></path><path d="M329.13,241c-.74.57-1.83,3.95-2.11,5.74a1.65,1.65,0,0,1-1.78,1.39h0l.47-2.84S326.26,240.17,329.13,241Z" style="fill:#263238"></path><path d="M336.76,247.12a1.12,1.12,0,1,1-1-1.29A1.15,1.15,0,0,1,336.76,247.12Z" style="fill:#263238"></path><path d="M335.79,253.29l3,1.53a1.68,1.68,0,0,1-2.27.82A1.78,1.78,0,0,1,335.79,253.29Z" style="fill:#f28f8f"></path><path d="M346.13,243l-2.58-.72a1.34,1.34,0,0,1,2.58.72Z" style="fill:#263238"></path><path d="M336.26,242.65l-2.57.78a1.34,1.34,0,0,1,2.57-.78Z" style="fill:#263238"></path><path d="M344.94,247.12a1.12,1.12,0,1,1-2.23-.25,1.12,1.12,0,1,1,2.23.25Z" style="fill:#263238"></path><polygon points="340.03 252.86 343.32 251.97 340.53 246.55 340.03 252.86" style="fill:#f28f8f"></polygon><path d="M333.92,258.83c-2.53-.76-7.62-3.15-8.12-5.39a5.57,5.57,0,0,0,1.44,3c1.38,1.62,6.43,4,6.43,4Z" style="fill:#f28f8f"></path><path d="M322.8,326.2v.72a2.07,2.07,0,0,0,1,1.78l19.51,11.22a2.06,2.06,0,0,0,2,0l35.79-20.66a2,2,0,0,0,1-1.77V317l-37.83,21.84Z" style="fill:#ebebeb"></path><path d="M382.18,317,361,304.74a1.21,1.21,0,0,0-1.22,0L322.93,326a.27.27,0,0,0,0,.47l21.42,12.36Z" style="fill:#fafafa"></path><path d="M350.84,307.63c1.74.67,1.67,1.18,3.1,2a7.13,7.13,0,0,0,4.34,1.2,25.34,25.34,0,0,0,2.5,2.06c1.86,1.28,3.73,2.26,6,1.54,2.52-.8.74-3.29,0-4.52s-4.79-4.82-5.59-5.55-4.23-1.24-7.25-2.18Z" style="fill:#ffa8a7"></path><polygon points="344.16 337.03 332.71 330.43 366.18 311.11 377.68 317.68 344.16 337.03" style="fill:#e0e0e0"></polygon><polygon points="338.53 318.67 338.74 318.79 344.35 322.03 354.33 316.27 354.54 316.15 348.71 312.79 338.53 318.67" style="fill:#e0e0e0"></polygon><polygon points="338.74 318.79 344.35 322.03 354.33 316.27 348.71 313.03 338.74 318.79" style="fill:#e6e6e6"></polygon><path d="M344.35,338.83v1.36a2,2,0,0,0,1-.27l35.79-20.66a2,2,0,0,0,1-1.77V317Z" style="fill:#ebebeb"></path><g style="opacity:0.5;mix-blend-mode:multiply"><path d="M344.35,338.83v1.36a2,2,0,0,0,1-.27l35.79-20.66a2,2,0,0,0,1-1.77V317Z" style="fill:#e0e0e0"></path></g><path d="M344.93,339.14A2.41,2.41,0,0,0,347,339l35.63-20.57a2.46,2.46,0,0,0,1.18-1.69l3.9-23.26a2.69,2.69,0,0,0,0-.4,2.4,2.4,0,0,0-.72-1.72l-37,21.38a1.78,1.78,0,0,0-.88,1.25Z" style="fill:#ebebeb"></path><path d="M344.35,338.83l.25.14a2.55,2.55,0,0,0,.33.17L349.14,314a1.78,1.78,0,0,1,.88-1.25l37-21.38a2.29,2.29,0,0,0-.49-.38l-37.1,21.42a1.76,1.76,0,0,0-.87,1.25Z" style="fill:#fafafa"></path><path d="M365,317.66a7.84,7.84,0,0,1,3.59-4.62c1.72-1,2.9-.54,2.64,1a7.85,7.85,0,0,1-3.59,4.62C365.92,319.68,364.73,319.22,365,317.66Z" style="fill:#7E57C2"></path><path d="M324.68,317.64c-4.23-2.14-19.38-8-23.94-10.49-3.17-1.73-4.85-2.85-4.39-5.79.43-2.74,7.66-25.89,10.15-31.1,2.19-4.57,5.55-6.09,10.56-7.24,3.46,4,1,16-2.43,20.39-2.5,5.39-6.93,15.25-6.93,15.25s7.85,5.33,14.11,9.17a56.25,56.25,0,0,0,9.68,4.77c2,.72,5.64,2.55,6.29,3.42a63.15,63.15,0,0,1,3.87,7.22c.5,1.35,1.78,4.12-.84,4.44-2.39.29-4.05-1-5.64-2.63a23.62,23.62,0,0,1-2.07-2.48,9.15,9.15,0,0,1-5.1-2.05C326.75,319.46,324.68,317.64,324.68,317.64Z" style="fill:#ffa8a7"></path><path d="M317.53,262.63s-5.51.52-8.67,3.73-3.29,5.13-4.84,9.22-4.74,14.1-4.74,14.1a11.79,11.79,0,0,0,11.85,4.51l4.19-10.08a24.1,24.1,0,0,0,4.06-10C320.35,268.12,319.93,264.67,317.53,262.63Z" style="fill:#37474f"></path></g></g></svg>