<svg xmlns="http://www.w3.org/2000/svg" viewBox="0 0 750 500"><g id="freepik--Screen--inject-104"><rect x="344.86" y="156.27" width="271.84" height="158.4" style="fill:#263238"></rect><path d="M366.12,306.7c-.14,0-.26-32.39-.26-72.34S366,162,366.12,162s.26,32.38.26,72.34S366.27,306.7,366.12,306.7Z" style="fill:#e0e0e0"></path><path d="M360.53,168.12a39.07,39.07,0,0,1-9,0,39.07,39.07,0,0,1,9,0Z" style="fill:#e0e0e0"></path><path d="M360.53,177.65a39.07,39.07,0,0,1-9,0,39.07,39.07,0,0,1,9,0Z" style="fill:#e0e0e0"></path><path d="M360.53,187.19a39.07,39.07,0,0,1-9,0,39.07,39.07,0,0,1,9,0Z" style="fill:#e0e0e0"></path><path d="M360.53,196.72a39.07,39.07,0,0,1-9,0,39.07,39.07,0,0,1,9,0Z" style="fill:#e0e0e0"></path><path d="M360.53,206.25a39.07,39.07,0,0,1-9,0,39.07,39.07,0,0,1,9,0Z" style="fill:#e0e0e0"></path><path d="M360.53,215.79a39.07,39.07,0,0,1-9,0,39.07,39.07,0,0,1,9,0Z" style="fill:#e0e0e0"></path><path d="M360.53,225.32a39.07,39.07,0,0,1-9,0,39.07,39.07,0,0,1,9,0Z" style="fill:#e0e0e0"></path><path d="M360.53,234.85a39.07,39.07,0,0,1-9,0,39.07,39.07,0,0,1,9,0Z" style="fill:#e0e0e0"></path><path d="M360.53,244.39a39.07,39.07,0,0,1-9,0,39.07,39.07,0,0,1,9,0Z" style="fill:#e0e0e0"></path><path d="M360.53,253.92a39.07,39.07,0,0,1-9,0,39.07,39.07,0,0,1,9,0Z" style="fill:#e0e0e0"></path><path d="M360.53,263.45a39.07,39.07,0,0,1-9,0,39.07,39.07,0,0,1,9,0Z" style="fill:#e0e0e0"></path><path d="M360.53,273a39.07,39.07,0,0,1-9,0,39.07,39.07,0,0,1,9,0Z" style="fill:#e0e0e0"></path><path d="M360.53,282.52a39.07,39.07,0,0,1-9,0,39.07,39.07,0,0,1,9,0Z" style="fill:#e0e0e0"></path><path d="M360.53,292.05a39.07,39.07,0,0,1-9,0,39.07,39.07,0,0,1,9,0Z" style="fill:#e0e0e0"></path><path d="M360.53,301.59a39.07,39.07,0,0,1-9,0,39.07,39.07,0,0,1,9,0Z" style="fill:#e0e0e0"></path><path d="M396.62,167.56c0,.14-5.23.26-11.68.26s-11.69-.12-11.69-.26,5.23-.26,11.69-.26S396.62,167.41,396.62,167.56Z" style="fill:#C540C5"></path><path d="M396.62,301.59c0,.14-5.23.26-11.68.26s-11.69-.12-11.69-.26,5.23-.26,11.69-.26S396.62,301.44,396.62,301.59Z" style="fill:#C540C5"></path><path d="M429.16,187.19c0,.14-9.79.26-21.86.26s-21.86-.12-21.86-.26,9.79-.26,21.86-.26S429.16,187,429.16,187.19Z" style="fill:#C540C5"></path><path d="M479.7,187.19c0,.14-9.78.26-21.85.26s-21.86-.12-21.86-.26,9.78-.26,21.86-.26S479.7,187,479.7,187.19Z" style="fill:#e0e0e0"></path><path d="M460.39,196.72c0,.14-14.43.26-32.21.26s-32.22-.12-32.22-.26,14.42-.26,32.22-.26S460.39,196.58,460.39,196.72Z" style="fill:#e0e0e0"></path><path d="M460.39,206.25c0,.15-14.43.26-32.21.26S396,206.4,396,206.25s14.42-.26,32.22-.26S460.39,206.11,460.39,206.25Z" style="fill:#e0e0e0"></path><path d="M504.73,234.85c0,.15-14.42.26-32.21.26s-32.21-.11-32.21-.26,14.42-.26,32.21-.26S504.73,234.71,504.73,234.85Z" style="fill:#e0e0e0"></path><path d="M485.6,215.79c0,.14-14.43.26-32.21.26s-32.22-.12-32.22-.26,14.42-.26,32.22-.26S485.6,215.64,485.6,215.79Z" style="fill:#e0e0e0"></path><path d="M564.32,215.79c0,.14-14.42.26-32.21.26s-32.21-.12-32.21-.26,14.42-.26,32.21-.26S564.32,215.64,564.32,215.79Z" style="fill:#e0e0e0"></path><path d="M536.94,196.72c0,.14-14.42.26-32.21.26s-32.21-.12-32.21-.26,14.42-.26,32.21-.26S536.94,196.58,536.94,196.72Z" style="fill:#fafafa"></path><path d="M581.45,234.85c0,.15-14.43.26-32.21.26S517,235,517,234.85s14.42-.26,32.22-.26S581.45,234.71,581.45,234.85Z" style="fill:#fafafa"></path><path d="M572.56,206.25c0,.15-22.4.26-50,.26s-50-.11-50-.26,22.39-.26,50-.26S572.56,206.11,572.56,206.25Z" style="fill:#455a64"></path><path d="M396.62,177.65c0,.15-5.23.26-11.68.26s-11.69-.11-11.69-.26,5.23-.26,11.69-.26S396.62,177.51,396.62,177.65Z" style="fill:#fafafa"></path><path d="M396.62,292.05c0,.15-5.23.26-11.68.26s-11.69-.11-11.69-.26,5.23-.26,11.69-.26S396.62,291.91,396.62,292.05Z" style="fill:#fafafa"></path><path d="M408.19,215.79c0,.14-5.23.26-11.68.26s-11.68-.12-11.68-.26,5.23-.26,11.68-.26S408.19,215.64,408.19,215.79Z" style="fill:#fafafa"></path><path d="M595.45,215.79c0,.14-5.23.26-11.68.26s-11.68-.12-11.68-.26,5.23-.26,11.68-.26S595.45,215.64,595.45,215.79Z" style="fill:#C540C5"></path><path d="M429.16,253.86c0,.15-9.79.26-21.86.26s-21.86-.11-21.86-.26,9.79-.26,21.86-.26S429.16,253.72,429.16,253.86Z" style="fill:#C540C5"></path><path d="M479.7,253.86c0,.15-9.78.26-21.85.26S436,254,436,253.86s9.78-.26,21.86-.26S479.7,253.72,479.7,253.86Z" style="fill:#e0e0e0"></path><path d="M460.39,263.4c0,.14-14.43.26-32.21.26S396,263.54,396,263.4s14.42-.26,32.22-.26S460.39,263.25,460.39,263.4Z" style="fill:#e0e0e0"></path><path d="M460.39,272.93c0,.14-14.43.26-32.21.26s-32.22-.12-32.22-.26,14.42-.26,32.22-.26S460.39,272.79,460.39,272.93Z" style="fill:#e0e0e0"></path><path d="M485.6,282.46c0,.15-14.43.26-32.21.26s-32.22-.11-32.22-.26,14.42-.26,32.22-.26S485.6,282.32,485.6,282.46Z" style="fill:#e0e0e0"></path><path d="M564.32,282.46c0,.15-14.42.26-32.21.26s-32.21-.11-32.21-.26,14.42-.26,32.21-.26S564.32,282.32,564.32,282.46Z" style="fill:#e0e0e0"></path><path d="M536.94,263.4c0,.14-14.42.26-32.21.26s-32.21-.12-32.21-.26,14.42-.26,32.21-.26S536.94,263.25,536.94,263.4Z" style="fill:#fafafa"></path><path d="M572.56,272.93c0,.14-22.4.26-50,.26s-50-.12-50-.26,22.39-.26,50-.26S572.56,272.79,572.56,272.93Z" style="fill:#455a64"></path><path d="M408.19,282.46c0,.15-5.23.26-11.68.26s-11.68-.11-11.68-.26,5.23-.26,11.68-.26S408.19,282.32,408.19,282.46Z" style="fill:#fafafa"></path><path d="M595.45,282.46c0,.15-5.23.26-11.68.26s-11.68-.11-11.68-.26,5.23-.26,11.68-.26S595.45,282.32,595.45,282.46Z" style="fill:#C540C5"></path></g><g id="freepik--Device--inject-104"><path d="M202.13,235.47H499.58a6.74,6.74,0,0,1,6.74,6.74v185a14.57,14.57,0,0,1-14.57,14.57H208.95a14.57,14.57,0,0,1-14.57-14.57v-184A7.75,7.75,0,0,1,202.13,235.47Z" style="fill:#455a64"></path><path d="M181.34,426.5h338a0,0,0,0,1,0,0v4.33a13.72,13.72,0,0,1-13.72,13.72H195.06a13.72,13.72,0,0,1-13.72-13.72V426.5a0,0,0,0,1,0,0Z" style="fill:#455a64"></path><rect x="202.75" y="243.67" width="294.32" height="174.2" style="fill:#e0e0e0"></rect><polygon points="319.6 426.5 323.79 433.17 382.8 433.17 386.7 426.5 319.6 426.5" style="fill:#263238"></polygon><rect x="194.43" y="426.43" width="311.94" height="0.99" style="fill:#263238"></rect><rect x="211.49" y="253.76" width="277.56" height="164.11" style="fill:#263238"></rect><path d="M232.78,413.05c-.14,0-.26-34.95-.26-78.06s.12-78.06.26-78.06S233,291.87,233,335,232.92,413.05,232.78,413.05Z" style="fill:#e0e0e0"></path><path d="M227.18,271.08a19.36,19.36,0,0,1-4.51.26,19.36,19.36,0,0,1-4.51-.26,39.25,39.25,0,0,1,9,0Z" style="fill:#e0e0e0"></path><path d="M227.53,262.22a19.36,19.36,0,0,1-4.51.26,19.36,19.36,0,0,1-4.51-.26,39.25,39.25,0,0,1,9,0Z" style="fill:#e0e0e0"></path><path d="M227.18,280.63a39.25,39.25,0,0,1-9,0,39.25,39.25,0,0,1,9,0Z" style="fill:#e0e0e0"></path><path d="M227.18,290.18a39.25,39.25,0,0,1-9,0,19.36,19.36,0,0,1,4.51-.26A19.36,19.36,0,0,1,227.18,290.18Z" style="fill:#e0e0e0"></path><path d="M227.18,299.73a39.25,39.25,0,0,1-9,0,19.36,19.36,0,0,1,4.51-.26A19.36,19.36,0,0,1,227.18,299.73Z" style="fill:#e0e0e0"></path><path d="M227.18,309.28a39.25,39.25,0,0,1-9,0,19.36,19.36,0,0,1,4.51-.26A19.36,19.36,0,0,1,227.18,309.28Z" style="fill:#e0e0e0"></path><path d="M227.18,318.82a19,19,0,0,1-4.51.27,19,19,0,0,1-4.51-.27,39.25,39.25,0,0,1,9,0Z" style="fill:#e0e0e0"></path><path d="M227.18,328.37a19.36,19.36,0,0,1-4.51.26,19.36,19.36,0,0,1-4.51-.26,39.25,39.25,0,0,1,9,0Z" style="fill:#e0e0e0"></path><path d="M227.18,337.92a19.36,19.36,0,0,1-4.51.26,19.36,19.36,0,0,1-4.51-.26,39.25,39.25,0,0,1,9,0Z" style="fill:#e0e0e0"></path><path d="M227.18,347.47a19.36,19.36,0,0,1-4.51.26,19.36,19.36,0,0,1-4.51-.26,39.25,39.25,0,0,1,9,0Z" style="fill:#e0e0e0"></path><path d="M227.18,357a39.25,39.25,0,0,1-9,0,39.25,39.25,0,0,1,9,0Z" style="fill:#e0e0e0"></path><path d="M227.18,366.57a39.25,39.25,0,0,1-9,0,19.36,19.36,0,0,1,4.51-.26A19.36,19.36,0,0,1,227.18,366.57Z" style="fill:#e0e0e0"></path><path d="M227.18,376.12a39.25,39.25,0,0,1-9,0,19.36,19.36,0,0,1,4.51-.26A19.36,19.36,0,0,1,227.18,376.12Z" style="fill:#e0e0e0"></path><path d="M227.18,385.67a39.25,39.25,0,0,1-9,0,19.36,19.36,0,0,1,4.51-.26A19.36,19.36,0,0,1,227.18,385.67Z" style="fill:#e0e0e0"></path><path d="M227.18,395.22a39.25,39.25,0,0,1-9,0,19,19,0,0,1,4.51-.27A19,19,0,0,1,227.18,395.22Z" style="fill:#e0e0e0"></path><path d="M227.18,404.76a19.36,19.36,0,0,1-4.51.26,19.36,19.36,0,0,1-4.51-.26,39.25,39.25,0,0,1,9,0Z" style="fill:#e0e0e0"></path><path d="M263.33,270.52c0,.14-5.24.26-11.7.26s-11.71-.12-11.71-.26,5.24-.26,11.71-.26S263.33,270.37,263.33,270.52Z" style="fill:#C540C5"></path><path d="M263.33,404.76c0,.15-5.24.26-11.7.26s-11.71-.11-11.71-.26,5.24-.26,11.71-.26S263.33,404.62,263.33,404.76Z" style="fill:#C540C5"></path><path d="M295.92,290.18c0,.14-9.81.26-21.9.26s-21.89-.12-21.89-.26,9.8-.26,21.89-.26S295.92,290,295.92,290.18Z" style="fill:#C540C5"></path><path d="M346.55,290.18c0,.14-9.81.26-21.9.26s-21.89-.12-21.89-.26,9.8-.26,21.89-.26S346.55,290,346.55,290.18Z" style="fill:#e0e0e0"></path><path d="M327.2,299.73c0,.14-14.45.26-32.27.26s-32.26-.12-32.26-.26,14.44-.26,32.26-.26S327.2,299.58,327.2,299.73Z" style="fill:#e0e0e0"></path><path d="M327.2,309.28c0,.14-14.45.26-32.27.26s-32.26-.12-32.26-.26,14.44-.26,32.26-.26S327.2,309.13,327.2,309.28Z" style="fill:#e0e0e0"></path><path d="M371.61,337.92c0,.15-14.44.26-32.26.26s-32.27-.11-32.27-.26,14.45-.26,32.27-.26S371.61,337.78,371.61,337.92Z" style="fill:#e0e0e0"></path><path d="M352.45,318.82c0,.15-14.45.27-32.27.27s-32.26-.12-32.26-.27,14.44-.26,32.26-.26S352.45,318.68,352.45,318.82Z" style="fill:#e0e0e0"></path><path d="M431.3,318.82c0,.15-14.45.27-32.26.27s-32.27-.12-32.27-.27,14.45-.26,32.27-.26S431.3,318.68,431.3,318.82Z" style="fill:#e0e0e0"></path><path d="M403.88,299.73c0,.14-14.45.26-32.27.26s-32.26-.12-32.26-.26,14.44-.26,32.26-.26S403.88,299.58,403.88,299.73Z" style="fill:#fafafa"></path><path d="M448.45,337.92c0,.15-14.45.26-32.26.26s-32.27-.11-32.27-.26,14.45-.26,32.27-.26S448.45,337.78,448.45,337.92Z" style="fill:#fafafa"></path><path d="M439.55,309.28c0,.14-22.43.26-50.1.26s-50.1-.12-50.1-.26,22.43-.26,50.1-.26S439.55,309.13,439.55,309.28Z" style="fill:#455a64"></path><path d="M263.33,280.63c0,.14-5.24.26-11.7.26s-11.71-.12-11.71-.26,5.24-.26,11.71-.26S263.33,280.49,263.33,280.63Z" style="fill:#fafafa"></path><path d="M263.33,395.22c0,.14-5.24.26-11.7.26s-11.71-.12-11.71-.26,5.24-.27,11.71-.27S263.33,395.07,263.33,395.22Z" style="fill:#fafafa"></path><path d="M274.92,318.82c0,.15-5.24.27-11.7.27s-11.7-.12-11.7-.27,5.23-.26,11.7-.26S274.92,318.68,274.92,318.82Z" style="fill:#fafafa"></path><path d="M462.48,318.82c0,.15-5.24.27-11.7.27s-11.7-.12-11.7-.27,5.23-.26,11.7-.26S462.48,318.68,462.48,318.82Z" style="fill:#C540C5"></path><path d="M295.92,357c0,.15-9.81.26-21.9.26s-21.89-.11-21.89-.26,9.8-.26,21.89-.26S295.92,356.82,295.92,357Z" style="fill:#C540C5"></path><path d="M346.55,357c0,.15-9.81.26-21.9.26s-21.89-.11-21.89-.26,9.8-.26,21.89-.26S346.55,356.82,346.55,357Z" style="fill:#e0e0e0"></path><path d="M327.2,366.51c0,.15-14.45.26-32.27.26s-32.26-.11-32.26-.26,14.44-.26,32.26-.26S327.2,366.37,327.2,366.51Z" style="fill:#e0e0e0"></path><path d="M327.2,376.06c0,.15-14.45.26-32.27.26s-32.26-.11-32.26-.26,14.44-.26,32.26-.26S327.2,375.92,327.2,376.06Z" style="fill:#e0e0e0"></path><path d="M352.45,385.61c0,.14-14.45.26-32.27.26s-32.26-.12-32.26-.26,14.44-.26,32.26-.26S352.45,385.47,352.45,385.61Z" style="fill:#e0e0e0"></path><path d="M431.3,385.61c0,.14-14.45.26-32.26.26s-32.27-.12-32.27-.26,14.45-.26,32.27-.26S431.3,385.47,431.3,385.61Z" style="fill:#e0e0e0"></path><path d="M403.88,366.51c0,.15-14.45.26-32.27.26s-32.26-.11-32.26-.26,14.44-.26,32.26-.26S403.88,366.37,403.88,366.51Z" style="fill:#fafafa"></path><path d="M439.55,376.06c0,.15-22.43.26-50.1.26s-50.1-.11-50.1-.26,22.43-.26,50.1-.26S439.55,375.92,439.55,376.06Z" style="fill:#455a64"></path><path d="M274.92,385.61c0,.14-5.24.26-11.7.26s-11.7-.12-11.7-.26,5.23-.26,11.7-.26S274.92,385.47,274.92,385.61Z" style="fill:#fafafa"></path><path d="M462.48,385.61c0,.14-5.24.26-11.7.26s-11.7-.12-11.7-.26,5.23-.26,11.7-.26S462.48,385.47,462.48,385.61Z" style="fill:#C540C5"></path></g><g id="freepik--character-2--inject-104"><path d="M568.68,388.12l4,12.49a14.43,14.43,0,0,0,11.2,10l26.66,5,7.25-.23-7.25-9-20-6.83a5.37,5.37,0,0,1-4-3.84l-8-17.36-10.11,6.2Z" style="fill:#ffbe9d"></path><path d="M549.58,304.23a8.79,8.79,0,0,0-1.5-5.54,6.77,6.77,0,0,0-4.38-3.38,5,5,0,0,0-5.19,3.06,6.52,6.52,0,0,0,.8,6.16,8.23,8.23,0,0,0,2.43,2.27,15.26,15.26,0,0,0-6,7.65c-.37,1.06-.62,2.16-1.08,3.18a4.74,4.74,0,0,1-2.21,2.45c-.76.34-1.61.37-2.39.66a4.38,4.38,0,0,0-2.63,3,5.32,5.32,0,0,0,.71,4,4.13,4.13,0,0,1,.9,1.86,4.79,4.79,0,0,1-.29,1.39,3.8,3.8,0,0,0,6.24,3.71,5.41,5.41,0,0,0,2.3,2.89c1.14.54,2.82.05,3-1.19a3,3,0,0,0,5.71-1.08l21.5-23.51C564.3,303.27,551.75,304,549.58,304.23Z" style="fill:#C540C5"></path><path d="M545.94,312.4a2.7,2.7,0,0,0-2.4,2.72h0l1.52,36.2c.06,4.28,7.82,9.34,12.39,9.24h0c4.63-.1,3.27-5,3.33-9.07.12-6.8.11-9.35.12-9.31s5.84-1,7.05-8.59c.6-3.79.41-10,.09-15.08-.29-4.57-3.32-10.18-7.87-9.7Z" style="fill:#ffbe9d"></path><path d="M566.06,323.44a1,1,0,0,1-.94,1,.94.94,0,0,1-1-.88,1,1,0,0,1,.94-1A.94.94,0,0,1,566.06,323.44Z" style="fill:#263238"></path><path d="M566.69,321.74c-.12.13-.86-.42-1.91-.42s-1.83.53-1.94.4.07-.28.4-.53a2.74,2.74,0,0,1,1.55-.48,2.62,2.62,0,0,1,1.53.5C566.64,321.45,566.75,321.68,566.69,321.74Z" style="fill:#263238"></path><path d="M555.78,323.44a1,1,0,0,1-.94,1,.94.94,0,0,1-1-.88,1,1,0,0,1,.94-1A.94.94,0,0,1,555.78,323.44Z" style="fill:#263238"></path><path d="M556.35,321.94c-.12.12-.86-.42-1.91-.42s-1.82.53-1.94.4.07-.29.41-.53a2.64,2.64,0,0,1,1.55-.48,2.61,2.61,0,0,1,1.52.49C556.3,321.65,556.41,321.88,556.35,321.94Z" style="fill:#263238"></path><path d="M560.17,329.74a6.54,6.54,0,0,1,1.71-.31c.27,0,.52-.08.57-.27a1.38,1.38,0,0,0-.18-.79c-.26-.65-.52-1.33-.8-2.05a34.6,34.6,0,0,1-1.78-5.35,35.16,35.16,0,0,1,2.21,5.2c.26.72.52,1.4.76,2.05a1.57,1.57,0,0,1,.14,1.06.68.68,0,0,1-.44.39,1.66,1.66,0,0,1-.46.06A6.94,6.94,0,0,1,560.17,329.74Z" style="fill:#263238"></path><path d="M560.9,342.18a19.42,19.42,0,0,1-10.21-2.72s2.48,5.23,10.1,4.52Z" style="fill:#eb996e"></path><path d="M559.72,332.27a1.88,1.88,0,0,0-1.69-.7,1.75,1.75,0,0,0-1.2.64,1.09,1.09,0,0,0-.08,1.25,1.27,1.27,0,0,0,1.38.35,3.92,3.92,0,0,0,1.34-.8,1.26,1.26,0,0,0,.3-.31.35.35,0,0,0,0-.39" style="fill:#eb996e"></path><path d="M557.07,330.46c.18,0,.18,1.14,1.15,2s2.2.68,2.21.84-.28.22-.79.24a2.93,2.93,0,0,1-1.84-.64,2.51,2.51,0,0,1-.89-1.63C556.87,330.74,557,330.46,557.07,330.46Z" style="fill:#263238"></path><path d="M556.83,320.1c-.11.28-1.16.15-2.39.3s-2.23.48-2.4.22.1-.39.51-.66a4,4,0,0,1,1.77-.63,4.06,4.06,0,0,1,1.87.22C556.64,319.74,556.87,320,556.83,320.1Z" style="fill:#C540C5"></path><path d="M566.3,318.7c-.18.24-.91,0-1.78,0s-1.61.16-1.78-.09,0-.36.37-.59a2.5,2.5,0,0,1,1.45-.39,2.47,2.47,0,0,1,1.42.48C566.28,318.34,566.39,318.58,566.3,318.7Z" style="fill:#C540C5"></path><path d="M544.39,324.59a1.93,1.93,0,0,0-2,.1,3.53,3.53,0,0,0,2.23,6.56" style="fill:#ffbe9d"></path><path d="M556.37,306.27a15.48,15.48,0,0,1,7.32,2.27,10.63,10.63,0,0,1,5.23,6.21,2.18,2.18,0,0,1-.06,1.72,1.69,1.69,0,0,1-2.09.45,4.9,4.9,0,0,1-1.7-1.57,3.26,3.26,0,0,1-6.33-.07,2.86,2.86,0,0,1-2.94,2.62,3.75,3.75,0,0,1-3.24-2.56,9.61,9.61,0,0,1-1.34,3.72,3.26,3.26,0,0,1-3.45,1.41,6.78,6.78,0,0,1,0,3.41,2.33,2.33,0,0,1-2.69,1.57c-1.06-.36-1.47-1.61-1.71-2.7a25.17,25.17,0,0,1-.82-6.39,9.35,9.35,0,0,1,7.55-9.48,25,25,0,0,1,6.63-.61" style="fill:#C540C5"></path><path d="M543.86,329c0-.05-.3.07-.67-.1a1.33,1.33,0,0,1-.65-1.3,1.35,1.35,0,0,1,.81-1.23,4.38,4.38,0,0,1,.68-.13s-.26-.24-.76-.13a1.36,1.36,0,0,0-.75.46,1.71,1.71,0,0,0-.38,1,1.52,1.52,0,0,0,1,1.58C543.61,329.28,543.9,329,543.86,329Z" style="fill:#eb996e"></path><path d="M541,329.38s-.11,0-.32.08a6.49,6.49,0,0,0-3.33,2.73,4.89,4.89,0,0,0-.68,2.29,5.37,5.37,0,0,0,.64,2.68,6.29,6.29,0,0,0,2,2.26,5.64,5.64,0,0,0,3.11,1,5.91,5.91,0,0,0,5.15-3.22,5,5,0,0,0,.54-2.7,5.63,5.63,0,0,0-.74-2.27,5.44,5.44,0,0,0-2.52-2.3,3.63,3.63,0,0,0-.89-.27q-.32-.06-.33,0s.44.1,1.15.44a5.54,5.54,0,0,1,2.35,2.29,5.46,5.46,0,0,1,.65,2.17,4.77,4.77,0,0,1-.54,2.51,5.56,5.56,0,0,1-4.82,3,5.68,5.68,0,0,1-4.81-3,4.76,4.76,0,0,1,0-4.66,6.54,6.54,0,0,1,2.32-2.35C540.55,329.56,541,329.41,541,329.38Z" style="fill:#263238"></path><path d="M547.25,305.76c-.08,0-.24-.67-.71-1.66a9.15,9.15,0,0,0-6.47-5.1c-1.08-.23-1.78-.22-1.78-.31a3.8,3.8,0,0,1,1.84-.06,8.51,8.51,0,0,1,4.1,1.74,8.41,8.41,0,0,1,2.64,3.58A3.8,3.8,0,0,1,547.25,305.76Z" style="fill:#e0e0e0"></path><path d="M529.73,334.71s-.13,0-.27-.25a1.46,1.46,0,0,1-.18-1,2.17,2.17,0,0,1,.94-1.38,18.23,18.23,0,0,1,1.89-1,2.31,2.31,0,0,0,1.32-1.88,11.06,11.06,0,0,0-.52-2.87,5.72,5.72,0,0,1-.16-1.68,2.8,2.8,0,0,1,.72-1.66,6.89,6.89,0,0,1,3.21-1.69,5.34,5.34,0,0,0,2.88-1.66,4.31,4.31,0,0,0,.48-3,15.67,15.67,0,0,1-.21-3,8.32,8.32,0,0,1,2.89-5.64,5.13,5.13,0,0,1,.85-.59,1.16,1.16,0,0,1,.33-.16s-.4.3-1,.9a8.4,8.4,0,0,0-2.05,3.05,8.13,8.13,0,0,0-.55,2.47,16.26,16.26,0,0,0,.25,2.93,4.72,4.72,0,0,1-.53,3.36,5.72,5.72,0,0,1-3.14,1.86,6.51,6.51,0,0,0-3,1.54,3.09,3.09,0,0,0-.47,2.9,10.8,10.8,0,0,1,.48,3,2.6,2.6,0,0,1-.54,1.36,3.13,3.13,0,0,1-1,.81c-.72.39-1.4.61-1.9,1a2,2,0,0,0-.91,1.19A1.49,1.49,0,0,0,529.73,334.71Z" style="fill:#e0e0e0"></path><path d="M556.89,315c-.08,0-.15-.81-.55-2a10.66,10.66,0,0,0-2.58-4.23,10.83,10.83,0,0,0-4.23-2.56c-1.22-.4-2-.46-2-.55a4.73,4.73,0,0,1,2.13.2,9.74,9.74,0,0,1,7.06,7A4.55,4.55,0,0,1,556.89,315Z" style="fill:#e0e0e0"></path><path d="M563,311.7a19,19,0,0,0-1.33-2.36,10.43,10.43,0,0,0-5.22-3.63,16.15,16.15,0,0,0-6.45-.52c-1.67.18-2.69.41-2.71.33a8.9,8.9,0,0,1,2.66-.69,14.73,14.73,0,0,1,6.66.38,10.1,10.1,0,0,1,5.36,3.92,6.77,6.77,0,0,1,.89,1.83A1.79,1.79,0,0,1,563,311.7Z" style="fill:#e0e0e0"></path><path d="M549.74,303.85s-.19.5-.78,1.11a7.51,7.51,0,0,1-2.78,1.74,7.36,7.36,0,0,1-3.25.41,2.59,2.59,0,0,1-1.31-.37,13.15,13.15,0,0,0,4.39-.53A13.4,13.4,0,0,0,549.74,303.85Z" style="fill:#263238"></path><path d="M555.09,444.62c-18.31-6.06-5.76-30.28-5.76-30.28l80,7.53A11.57,11.57,0,0,1,641,433.45h0A11.57,11.57,0,0,1,629.44,445l-74.35-.4" style="fill:#263238"></path><path d="M536.35,444.6c-17.84-6-5.54-30.27-5.54-30.27l78,7.36c7.62.1,11.34,3.78,11.34,11.55h0c0,6.39-2.38,11.78-11.31,11.6l-72.5-.24" style="fill:#263238"></path><path d="M554.46,418.43h.22l.65,0,2.5.1L567,419l30.27,1.66c1.48.07,2.94.2,4.38.22s2.87.08,4.26.17,2.77.19,4.11.33a14.94,14.94,0,0,1,3.9.8,9.63,9.63,0,0,1,3.25,2.08,8.59,8.59,0,0,1,2,3.16,15.47,15.47,0,0,1,.81,3.41,24.19,24.19,0,0,1,.21,3.23,13.76,13.76,0,0,1-1,5.43,9,9,0,0,1-2.43,3.31,6.6,6.6,0,0,1-2.21,1.24c-.55.18-.56.12,0-.08a6.84,6.84,0,0,0,2.14-1.29,9.06,9.06,0,0,0,2.32-3.28,13.65,13.65,0,0,0,1-5.33,23.63,23.63,0,0,0-.24-3.18,15.51,15.51,0,0,0-.8-3.33,8.33,8.33,0,0,0-1.91-3,8.84,8.84,0,0,0-3.13-2,14.24,14.24,0,0,0-3.81-.77c-1.33-.14-2.7-.24-4.09-.32s-2.81-.14-4.24-.16-2.91-.15-4.39-.22L567,419.29l-9.18-.59-2.49-.18-.65-.06Z" style="fill:#455a64"></path><path d="M582.2,420l-6.41-3.15L571.32,402l-.43-19,9.06-3.82-7.19-18.05c-1.31-2.67-4-9.74-10.76-12.06a8.15,8.15,0,0,1,.24-3c.53-.89-16.59-1.42-17.56-1.07s.16,3.48.05,4c-6.09,1.68-12,4.19-14.23,12.56-.86,3.26-.57,10.14-.1,13.46l4.75,25.13-2.67,8.25s-9.35,19.48-5.8,27.09,9.57,9.33,9.57,9.33l46.58-.1Z" style="fill:#C540C5"></path><g style="opacity:0.30000000000000004"><path d="M535.46,390.2a93.9,93.9,0,0,0,3.42,11.89,25.67,25.67,0,0,0,3.74,6.86,17.35,17.35,0,0,0,9,5.47,28.27,28.27,0,0,0,10.61.52l-17.63-10-4.69-16.29Z"></path></g><path d="M571.31,401.45a7.45,7.45,0,0,1-.13-1.35c0-.94-.1-2.18-.18-3.67-.13-3.1-.28-7.39-.43-12.13s-.25-9-.3-12.13c0-1.5,0-2.74,0-3.68a8.38,8.38,0,0,1,0-1.35,8,8,0,0,1,.12,1.34c.05.94.11,2.18.18,3.68.13,3.1.29,7.39.43,12.13s.25,9,.31,12.13c0,1.5,0,2.74,0,3.68A8.38,8.38,0,0,1,571.31,401.45Z" style="fill:#263238"></path><path d="M554.06,383.7a1.57,1.57,0,0,1-.32.14l-1,.36-3.84,1.35-14.06,4.85-.23.08-.05-.24c-.95-5.11-2.07-11.09-3.28-17.56h0v0c-.19-3.19-.83-6.52-.56-10a9.08,9.08,0,0,1,.69-2.45,11.07,11.07,0,0,1,1.16-2.21,9.38,9.38,0,0,1,3.7-3.16,8.1,8.1,0,0,1,8.78.95,11,11,0,0,1,2.35,3.58,33.62,33.62,0,0,1,1.37,3.76c.74,2.46,1.31,4.79,1.86,6.93l2.55,10c.29,1.15.51,2.05.67,2.71.07.28.12.51.17.69s0,.24,0,.23a1.12,1.12,0,0,1-.09-.25q-.09-.29-.21-.72c-.19-.66-.44-1.57-.77-2.72-.65-2.39-1.58-5.78-2.72-9.94-.58-2.08-1.15-4.4-1.91-6.84a33.39,33.39,0,0,0-1.38-3.7,10.47,10.47,0,0,0-2.24-3.41,7.64,7.64,0,0,0-8.24-.85,8.86,8.86,0,0,0-3.5,3,10.88,10.88,0,0,0-1.11,2.11,8.73,8.73,0,0,0-.65,2.32c-.26,3.37.35,6.7.55,9.93v0c1.18,6.47,2.27,12.45,3.2,17.57l-.28-.16,14-4.61,3.93-1.26,1-.33Z" style="fill:#263238"></path><path d="M540,388.35c-.13,0-.5-.73-.83-1.73s-.47-1.85-.33-1.89.51.73.83,1.73S540.17,388.31,540,388.35Z" style="fill:#263238"></path><path d="M544.62,387.06c-.14,0-.45-.72-.68-1.69s-.32-1.77-.18-1.81.45.72.68,1.69S544.76,387,544.62,387.06Z" style="fill:#263238"></path><path d="M549.25,385.4c-.14,0-.45-.58-.69-1.38s-.32-1.48-.18-1.53.44.58.68,1.38S549.38,385.36,549.25,385.4Z" style="fill:#263238"></path><path d="M574.29,381.57c-.12.07-.65-.59-1-1.56s-.41-1.81-.28-1.83.42.73.77,1.65S574.42,381.49,574.29,381.57Z" style="fill:#263238"></path><path d="M577.77,379.59c-.13.07-.55-.51-.94-1.28s-.6-1.45-.47-1.52.55.51.94,1.28S577.9,379.53,577.77,379.59Z" style="fill:#263238"></path><path d="M547.37,349.79s.08.17.09.45h-.27a17.22,17.22,0,0,1-.32-2.38,8.11,8.11,0,0,1,0-2.85,7.71,7.71,0,0,1,.5,2.81,17.81,17.81,0,0,1,.07,2.4h-.27C547.26,349.94,547.32,349.78,547.37,349.79Z" style="fill:#263238"></path><path d="M551.53,349.79a5.69,5.69,0,0,1-.43-2.32,5.24,5.24,0,0,1,.09-2.35,5.69,5.69,0,0,1,.43,2.32A5.24,5.24,0,0,1,551.53,349.79Z" style="fill:#263238"></path><path d="M555.89,350.73a7.57,7.57,0,0,1-.3-2.8,7.94,7.94,0,0,1,.22-2.81,7.57,7.57,0,0,1,.3,2.8A7.94,7.94,0,0,1,555.89,350.73Z" style="fill:#263238"></path><path d="M559.45,350.14a5.79,5.79,0,0,1-.26-2.39,5.86,5.86,0,0,1,.26-2.4,5.57,5.57,0,0,1,.27,2.4A5.51,5.51,0,0,1,559.45,350.14Z" style="fill:#263238"></path><path d="M582.5,420.54c0,.14-8.69-.33-19.39-1.06s-19.36-1.44-19.35-1.58,8.69.33,19.39,1.06S582.51,420.4,582.5,420.54Z" style="fill:#263238"></path><path d="M537.53,389.54l4.29,14A14.5,14.5,0,0,0,553,413.68l26.66,5.07,7.25-.24-2.46-6.19-24.83-9.82a5.41,5.41,0,0,1-4-3.89l-3.75-14.05Z" style="fill:#ffbe9d"></path><polygon points="561.1 418.93 561.33 417.2 581.81 416.4 591.86 391.05 630.15 393.65 617.23 421.79 561.1 418.93" style="fill:#455a64"></polygon><path d="M606.93,407.49a2,2,0,1,1-.62-2.76A2,2,0,0,1,606.93,407.49Z" style="fill:#fff"></path></g><g id="freepik--Plants--inject-104"><path d="M86.05,426c.67-2.66-1.08-5.31-3-7.23s-4.3-3.63-5.33-6.17c-1.67-4.12.51-9.48-2.32-12.9-1.66-2-4.63-2.68-6.1-4.84A11,11,0,0,1,67.9,391,39.36,39.36,0,0,0,58,372.78,34.08,34.08,0,0,0,62,390.38c1.15,2.16,2.56,4.26,2.95,6.68.64,3.92-1.53,8-.55,11.82,1.13,4.4,6.1,7.32,6.36,11.86.22,3.83-3.11,7.22-2.83,11.05a10.32,10.32,0,0,0,1.73,4.54c3,4.91,7.37,8.28,14,8.13l8.09.24Z" style="fill:#C540C5"></path><g style="opacity:0.30000000000000004"><path d="M86.05,426c.67-2.66-1.08-5.31-3-7.23s-4.3-3.63-5.33-6.17c-1.67-4.12.51-9.48-2.32-12.9-1.66-2-4.63-2.68-6.1-4.84A11,11,0,0,1,67.9,391,39.36,39.36,0,0,0,58,372.78,34.08,34.08,0,0,0,62,390.38c1.15,2.16,2.56,4.26,2.95,6.68.64,3.92-1.53,8-.55,11.82,1.13,4.4,6.1,7.32,6.36,11.86.22,3.83-3.11,7.22-2.83,11.05a10.32,10.32,0,0,0,1.73,4.54c3,4.91,7.37,8.28,14,8.13l8.09.24Z"></path></g><path d="M93.32,444.9a6.27,6.27,0,0,0,2.22-.06,13.46,13.46,0,0,0,2.63-.68,11.08,11.08,0,0,0,3.23-1.79,4.67,4.67,0,0,0,1.33-1.79,8.28,8.28,0,0,0,.36-2.42,23.7,23.7,0,0,1,.18-2.61,7.09,7.09,0,0,1,1-2.61c.94-1.68,2.52-3.28,3-5.55s.13-4.66-.26-7.09-.77-5.07.14-7.6,2.62-4.83,3.49-7.68.43-6,.6-9a12.1,12.1,0,0,1,1-4.49c.65-1.44,1.55-2.79,2.25-4.3,1.42-3.06,1.65-6.51,2-9.9.18-1.7.37-3.43.55-5.17a26,26,0,0,1,.87-5.18,45.09,45.09,0,0,1,1.91-5,16.88,16.88,0,0,0,.92-2.62,26.81,26.81,0,0,0,.25-2.78,32.82,32.82,0,0,0-.25-5.6c-.23-1.87-.58-3.71-.79-5.58l0-.33,0-.37-.33.17a12.5,12.5,0,0,0-4.33,3.7,19.65,19.65,0,0,0-2.65,4.94c-1.33,3.49-1.8,7.13-2.46,10.61a28.57,28.57,0,0,1-3.27,9.8c-.87,1.44-1.94,2.76-2.87,4.17a11.45,11.45,0,0,0-2,4.62c-.46,3.43,1.44,6.42,1.07,9.45a10.46,10.46,0,0,1-1.45,4.21c-.73,1.29-1.59,2.5-2.4,3.71a23.65,23.65,0,0,0-2.15,3.74,11.93,11.93,0,0,0-1,4.06c-.18,2.73.22,5.31,0,7.76a17.88,17.88,0,0,1-2,6.65c-1,2-2,3.8-3,5.55-.45.88-.87,1.73-1.21,2.59a12.5,12.5,0,0,0-.69,2.56,15.88,15.88,0,0,0,0,4.61,11.65,11.65,0,0,0,2.35,5.88,5.66,5.66,0,0,0,.66.7,3.75,3.75,0,0,0,.53.45c.3.22.47.32.47.32a10,10,0,0,1-1.58-1.54,11.66,11.66,0,0,1-2.23-5.83,15.91,15.91,0,0,1,.08-4.55,12.49,12.49,0,0,1,.7-2.5,26.75,26.75,0,0,1,1.22-2.55c.91-1.74,2-3.54,3-5.54a18.07,18.07,0,0,0,2-6.78c.2-2.49-.19-5.09,0-7.75a11.66,11.66,0,0,1,1-3.93,24.32,24.32,0,0,1,2.13-3.66c.81-1.2,1.68-2.41,2.42-3.74a10.8,10.8,0,0,0,1.52-4.37c.37-3.23-1.51-6.25-1.05-9.43a11.05,11.05,0,0,1,1.92-4.42c.91-1.38,2-2.7,2.89-4.19a29.17,29.17,0,0,0,3.34-10c.67-3.5,1.14-7.1,2.44-10.51a19.3,19.3,0,0,1,2.58-4.82,11.91,11.91,0,0,1,4.15-3.54l-.37-.21,0,.33c.21,1.89.56,3.74.79,5.58a32.93,32.93,0,0,1,.24,5.51c-.05.91-.1,1.85-.23,2.7a15.91,15.91,0,0,1-.9,2.53,47.08,47.08,0,0,0-1.92,5.07,26.16,26.16,0,0,0-.88,5.26c-.18,1.75-.36,3.47-.54,5.18-.37,3.4-.6,6.8-2,9.75-.67,1.46-1.57,2.82-2.24,4.3a12.58,12.58,0,0,0-1,4.67c-.16,3.12.26,6.17-.57,8.94s-2.57,5.06-3.45,7.67-.53,5.37-.13,7.79.81,4.8.3,6.95-2,3.76-2.94,5.48a7.6,7.6,0,0,0-1,2.71,22.42,22.42,0,0,0-.15,2.65,8.06,8.06,0,0,1-.34,2.36,4.29,4.29,0,0,1-1.24,1.7A11,11,0,0,1,98.11,444a14.2,14.2,0,0,1-2.59.72,10.22,10.22,0,0,1-1.64.16Z" style="fill:#263238"></path><path d="M118.33,349.49a.75.75,0,0,0-.08.24c0,.2-.1.44-.18.73-.15.64-.34,1.6-.63,2.8s-1,2.56-1.66,4.24-1.29,3.58-1.89,5.74-1.14,4.56-1.69,7.13a29.86,29.86,0,0,1-2.55,7.91c-.65,1.32-1.39,2.66-2,4.11a19.06,19.06,0,0,0-1.14,4.65,93,93,0,0,1-1.69,9.79c-1.58,6.64-3.09,13-4.47,18.72s-2.67,10.9-3.74,15.26-1.89,7.82-2.48,10.3c-.28,1.18-.5,2.12-.65,2.8-.07.3-.12.54-.16.74a.79.79,0,0,0,0,.25l.08-.24q.09-.29.21-.72l.74-2.78c.64-2.47,1.54-6,2.64-10.26l3.86-15.24c1.38-5.76,2.91-12.08,4.51-18.72a91.49,91.49,0,0,0,1.68-9.83,18.53,18.53,0,0,1,1.1-4.53c.56-1.42,1.29-2.75,1.94-4.08a30,30,0,0,0,2.54-8c.54-2.57,1-5,1.63-7.12s1.19-4.08,1.8-5.74,1.29-3,1.58-4.28.42-2.19.55-2.84c0-.3.09-.54.12-.74A1.51,1.51,0,0,0,118.33,349.49Z" style="fill:#263238"></path><path d="M94.74,444.92c5.27-3.17,6.73-12.71,4.49-18.43s-6.12-10.95-6.75-17.06c-.48-4.7,1-9.53-.09-14.12-1.51-6.19-7.6-11-7.56-17.34,0-3.57,2-7,1.85-10.52-.22-4.39-3.61-7.84-5.71-11.69-3.23-5.89-3.48-12.88-4.6-19.5s-3.7-13.7-9.59-16.93C66,325,64.49,328.83,65,336.45c.18,2.73,3.39,7.95,3.85,13.95.28,3.58.48,7.17.72,10.76s.48,7,1.75,10.3c1,2.5,2.53,4.76,3.26,7.34,1.36,4.86-.37,10.13.74,15.05.94,4.17,3.85,7.75,4.47,12,.86,5.94-3,12.14-1,17.8,1,2.8,3.32,5.05,4,7.95.52,2.26,0,4.65.46,6.91.76,3.64,7.74,6.44,11.45,6.19" style="fill:#C540C5"></path><path d="M68.27,324.91a1.54,1.54,0,0,0,0,.32c0,.23.08.54.13.92.12.81.27,2,.55,3.55s1.11,3.29,1.76,5.39,1.37,4.51,2,7.22,1.14,5.71,1.69,8.93a37.29,37.29,0,0,0,2.77,10.09c.75,1.69,1.59,3.37,2.22,5.17a23.16,23.16,0,0,1,1.15,5.7,114.12,114.12,0,0,0,1.62,12.3c1.66,8.32,3.25,16.25,4.69,23.47l4,19.12C92.05,432.5,93,436.9,93.66,440c.33,1.49.59,2.66.78,3.5q.14.55.21.9a1.31,1.31,0,0,0,.09.31,1.11,1.11,0,0,0,0-.32c0-.23-.09-.53-.16-.91-.16-.84-.39-2-.68-3.52-.63-3.08-1.51-7.49-2.61-12.91s-2.45-11.95-3.93-19.15l-4.65-23.46A118,118,0,0,1,81,372.15a23.59,23.59,0,0,0-1.18-5.82c-.66-1.83-1.51-3.52-2.26-5.19a37.52,37.52,0,0,1-2.78-10c-.56-3.22-1.11-6.23-1.75-8.94A73.27,73.27,0,0,0,71,335c-.68-2.11-1.52-3.84-1.84-5.35s-.49-2.71-.65-3.51c-.07-.38-.13-.69-.17-.92A1.87,1.87,0,0,0,68.27,324.91Z" style="fill:#263238"></path><path d="M662.9,418.38c-1.22,1.74-3.59,1.16-4.69.1a8.88,8.88,0,0,1-2-4.07c-1-3.36-1.94-6.88-1.22-10.29a5.72,5.72,0,0,1,1.31-2.8,3,3,0,0,1,2.83-.94,4.35,4.35,0,0,1,2.48,2.59,24.64,24.64,0,0,1,2.42,10.53,8.46,8.46,0,0,1-1.15,4.88" style="fill:#C540C5"></path><g style="opacity:0.2"><path d="M662.9,418.38c-1.22,1.74-3.59,1.16-4.69.1a8.88,8.88,0,0,1-2-4.07c-1-3.36-1.94-6.88-1.22-10.29a5.72,5.72,0,0,1,1.31-2.8,3,3,0,0,1,2.83-.94,4.35,4.35,0,0,1,2.48,2.59,24.64,24.64,0,0,1,2.42,10.53,8.46,8.46,0,0,1-1.15,4.88"></path></g><path d="M658.33,427.19a10.51,10.51,0,0,0-6.55-.79,5.43,5.43,0,0,0-3.24,1.44,2.33,2.33,0,0,0,0,3.23,3.06,3.06,0,0,0,2,.52c1.73,0,3.66-.32,5,.72.79.59,1.31,1.58,2.26,1.87a2.22,2.22,0,0,0,2.45-1.09,3.79,3.79,0,0,0,.28-2.81A4.31,4.31,0,0,0,658.33,427.19Z" style="fill:#C540C5"></path><path d="M666.25,420.87a6.3,6.3,0,0,1-1-5.82,11.22,11.22,0,0,1,3.45-5,18.63,18.63,0,0,1,6.19-3.65,6.63,6.63,0,0,1,2.78-.47,2.91,2.91,0,0,1,2.33,1.41c.65,1.24,0,2.75-.65,4a47.12,47.12,0,0,1-4.06,6.19,11,11,0,0,1-4.46,3.82c-1.86.71-3.79.63-4.77-.66" style="fill:#C540C5"></path><path d="M663,444.64a4.26,4.26,0,0,1-.11-.8c0-.57-.12-1.29-.21-2.15a31.63,31.63,0,0,0-.48-3.17,25.06,25.06,0,0,0-1.15-3.74,14.2,14.2,0,0,0-1.91-3.38,7,7,0,0,0-2.41-2,6.77,6.77,0,0,0-2-.64,4,4,0,0,1-.78-.11,3.51,3.51,0,0,1,.8,0,6,6,0,0,1,2.12.55,7.12,7.12,0,0,1,2.54,2,13.38,13.38,0,0,1,2,3.45,23.13,23.13,0,0,1,1.14,3.8,26.43,26.43,0,0,1,.42,3.2c.07.92.1,1.66.11,2.18A3.19,3.19,0,0,1,663,444.64Z" style="fill:#263238"></path><path d="M662.83,443a2.45,2.45,0,0,1,0-.36c0-.28,0-.63,0-1.05,0-.91,0-2.23-.05-3.86-.08-3.25-.36-7.75-.9-12.69s-1.27-9.38-1.93-12.57c-.16-.8-.31-1.52-.46-2.15s-.26-1.17-.38-1.61l-.24-1a1.41,1.41,0,0,1-.07-.37,1.52,1.52,0,0,1,.13.35l.31,1c.13.44.27,1,.43,1.61s.33,1.34.51,2.14a122.9,122.9,0,0,1,2,12.59c.54,4.95.79,9.45.81,12.72,0,1.63,0,2.95-.06,3.86,0,.43,0,.77-.06,1.05S662.85,443,662.83,443Z" style="fill:#263238"></path><path d="M662.81,434.28a7,7,0,0,1,0-1.09,29.64,29.64,0,0,1,.34-3,38.81,38.81,0,0,1,1-4.33,38.13,38.13,0,0,1,1.81-5.12,27.15,27.15,0,0,1,5.32-8.28,12.83,12.83,0,0,1,1.25-1.16c.19-.16.36-.32.53-.45l.49-.34a6.66,6.66,0,0,1,.92-.59,31.74,31.74,0,0,0-3,2.7,28.78,28.78,0,0,0-5.18,8.25,40.12,40.12,0,0,0-1.82,5.07c-.47,1.59-.79,3-1,4.28s-.35,2.25-.43,2.95A7.52,7.52,0,0,1,662.81,434.28Z" style="fill:#263238"></path></g></svg>